<?xml version="1.0" standalone="no"?>
 <!DOCTYPE svg PUBLIC "-//W3C//DTD SVG 1.1//EN" 
 "http://www.w3.org/Graphics/SVG/1.1/DTD/svg11.dtd"> 
<svg
  xmlns:svg="http://www.w3.org/2000/svg"
  xmlns="http://www.w3.org/2000/svg"
  xmlns:xlink="http://www.w3.org/1999/xlink"
  xmlns:inkscape="http://www.inkscape.org/namespaces/inkscape"
  version="1.1"
  width="32.9946mm" height="26.4922mm" viewBox="0.0000 0.0000 32.9946 26.4922">
<title>SVG Image created as pcb-bottom.svg date 2026-05-18T08:00:19 </title>
  <desc>Image generated by PCBNEW </desc>
<g style="fill:#000000; fill-opacity:1.0000;stroke:#000000; stroke-opacity:1.0000;
stroke-linecap:round; stroke-linejoin:round;"
 transform="translate(0 0) scale(1 1)">
</g>
<g style="fill:none; 
stroke:#C872AB; stroke-width:0.1500; stroke-opacity:1; 
stroke-linecap:round; stroke-linejoin:round;">
<path d="M-245.1658 -115.9261
L-137.1658 -115.9261
L-137.1658 -83.9261
L-245.1658 -83.9261
L-245.1658 -115.9261
" />
<path d="M-148.1658 -88.4250
L-135.1658 -88.4250
L-135.1658 -81.9261
L-148.1658 -81.9261
L-148.1658 -88.4250
" />
<path d="M-146.1658 -86.4250
L-137.1658 -86.4250
L-137.1658 -83.9261
L-146.1658 -83.9261
L-146.1658 -86.4250
" />
<path d="M-98.1658 -86.4250
L-98.1658 -88.4250
" />
<text x="-123.1658" y="-86.7750"
textLength="1.4281" font-size="1.7333" lengthAdjust="spacingAndGlyphs"
text-anchor="start" opacity="0" stroke-opacity="0">1</text>
<g class="stroked-text"><desc>1</desc>
<path d="M-122.0766 -86.8314
L-122.8195 -86.8314
" />
<path d="M-122.4481 -86.8314
L-122.4481 -88.1314
" />
<path d="M-122.4481 -88.1314
L-122.5719 -87.9457
" />
<path d="M-122.5719 -87.9457
L-122.6957 -87.8219
" />
<path d="M-122.6957 -87.8219
L-122.8195 -87.7600
" />
</g><path d="M-98.1658 -83.9261
L-98.1658 -81.9261
" />
<text x="-123.1658" y="-82.2761"
textLength="1.4281" font-size="1.7333" lengthAdjust="spacingAndGlyphs"
text-anchor="start" opacity="0" stroke-opacity="0">1</text>
<g class="stroked-text"><desc>1</desc>
<path d="M-122.0766 -82.3325
L-122.8195 -82.3325
" />
<path d="M-122.4481 -82.3325
L-122.4481 -83.6325
" />
<path d="M-122.4481 -83.6325
L-122.5719 -83.4468
" />
<path d="M-122.5719 -83.4468
L-122.6957 -83.3230
" />
<path d="M-122.6957 -83.3230
L-122.8195 -83.2611
" />
</g><path d="M-148.1658 -38.4250
L-146.1658 -38.4250
" />
<text x="-147.1658" y="-62.7750"
textLength="1.3043" font-size="1.7333" lengthAdjust="spacingAndGlyphs"
text-anchor="middle" opacity="0" stroke-opacity="0">A</text>
<g class="stroked-text"><desc>A</desc>
<path d="M-147.4753 -63.2028
L-146.8563 -63.2028
" />
<path d="M-147.5991 -62.8314
L-147.1658 -64.1314
" />
<path d="M-147.1658 -64.1314
L-146.7325 -62.8314
" />
</g><path d="M-135.1658 -38.4250
L-137.1658 -38.4250
" />
<text x="-136.1658" y="-62.7750"
textLength="1.3043" font-size="1.7333" lengthAdjust="spacingAndGlyphs"
text-anchor="middle" opacity="0" stroke-opacity="0">A</text>
<g class="stroked-text"><desc>A</desc>
<path d="M-136.4753 -63.2028
L-135.8563 -63.2028
" />
<path d="M-136.5991 -62.8314
L-136.1658 -64.1314
" />
<path d="M-136.1658 -64.1314
L-135.7325 -62.8314
" />
</g><text x="-222.1658" y="-88.0761"
textLength="7.0071" font-size="2.0000" lengthAdjust="spacingAndGlyphs"
text-anchor="start" opacity="0" stroke-opacity="0">Date: </text>
<g class="stroked-text"><desc>Date: </desc>
<path d="M-221.7100 -88.1400
L-221.7100 -89.6400
" />
<path d="M-221.7100 -89.6400
L-221.3528 -89.6400
" />
<path d="M-221.3528 -89.6400
L-221.1385 -89.5686
" />
<path d="M-221.1385 -89.5686
L-220.9957 -89.4257
" />
<path d="M-220.9957 -89.4257
L-220.9243 -89.2828
" />
<path d="M-220.9243 -89.2828
L-220.8528 -88.9971
" />
<path d="M-220.8528 -88.9971
L-220.8528 -88.7828
" />
<path d="M-220.8528 -88.7828
L-220.9243 -88.4971
" />
<path d="M-220.9243 -88.4971
L-220.9957 -88.3543
" />
<path d="M-220.9957 -88.3543
L-221.1385 -88.2114
" />
<path d="M-221.1385 -88.2114
L-221.3528 -88.1400
" />
<path d="M-221.3528 -88.1400
L-221.7100 -88.1400
" />
<path d="M-219.5671 -88.1400
L-219.5671 -88.9257
" />
<path d="M-219.5671 -88.9257
L-219.6385 -89.0686
" />
<path d="M-219.6385 -89.0686
L-219.7814 -89.1400
" />
<path d="M-219.7814 -89.1400
L-220.0671 -89.1400
" />
<path d="M-220.0671 -89.1400
L-220.2100 -89.0686
" />
<path d="M-219.5671 -88.2114
L-219.7100 -88.1400
" />
<path d="M-219.7100 -88.1400
L-220.0671 -88.1400
" />
<path d="M-220.0671 -88.1400
L-220.2100 -88.2114
" />
<path d="M-220.2100 -88.2114
L-220.2814 -88.3543
" />
<path d="M-220.2814 -88.3543
L-220.2814 -88.4971
" />
<path d="M-220.2814 -88.4971
L-220.2100 -88.6400
" />
<path d="M-220.2100 -88.6400
L-220.0671 -88.7114
" />
<path d="M-220.0671 -88.7114
L-219.7100 -88.7114
" />
<path d="M-219.7100 -88.7114
L-219.5671 -88.7828
" />
<path d="M-219.0671 -89.1400
L-218.4957 -89.1400
" />
<path d="M-218.8528 -89.6400
L-218.8528 -88.3543
" />
<path d="M-218.8528 -88.3543
L-218.7814 -88.2114
" />
<path d="M-218.7814 -88.2114
L-218.6385 -88.1400
" />
<path d="M-218.6385 -88.1400
L-218.4957 -88.1400
" />
<path d="M-217.4243 -88.2114
L-217.5671 -88.1400
" />
<path d="M-217.5671 -88.1400
L-217.8528 -88.1400
" />
<path d="M-217.8528 -88.1400
L-217.9957 -88.2114
" />
<path d="M-217.9957 -88.2114
L-218.0671 -88.3543
" />
<path d="M-218.0671 -88.3543
L-218.0671 -88.9257
" />
<path d="M-218.0671 -88.9257
L-217.9957 -89.0686
" />
<path d="M-217.9957 -89.0686
L-217.8528 -89.1400
" />
<path d="M-217.8528 -89.1400
L-217.5671 -89.1400
" />
<path d="M-217.5671 -89.1400
L-217.4243 -89.0686
" />
<path d="M-217.4243 -89.0686
L-217.3528 -88.9257
" />
<path d="M-217.3528 -88.9257
L-217.3528 -88.7828
" />
<path d="M-217.3528 -88.7828
L-218.0671 -88.6400
" />
<path d="M-216.7100 -88.2828
L-216.6385 -88.2114
" />
<path d="M-216.6385 -88.2114
L-216.7100 -88.1400
" />
<path d="M-216.7100 -88.1400
L-216.7814 -88.2114
" />
<path d="M-216.7814 -88.2114
L-216.7100 -88.2828
" />
<path d="M-216.7100 -88.2828
L-216.7100 -88.1400
" />
<path d="M-216.7100 -89.0686
L-216.6385 -88.9971
" />
<path d="M-216.6385 -88.9971
L-216.7100 -88.9257
" />
<path d="M-216.7100 -88.9257
L-216.7814 -88.9971
" />
<path d="M-216.7814 -88.9971
L-216.7100 -89.0686
" />
<path d="M-216.7100 -89.0686
L-216.7100 -88.9257
" />
</g><path d="M-245.1658 -87.4261
L-137.1658 -87.4261
" />
<text x="-244.1658" y="-85.2761"
textLength="22.2929" font-size="2.0000" lengthAdjust="spacingAndGlyphs"
text-anchor="start" opacity="0" stroke-opacity="0">KiCad E.D.A. 10.0.1</text>
<g class="stroked-text"><desc>KiCad E.D.A. 10.0.1</desc>
<path d="M-243.7100 -85.3400
L-243.7100 -86.8400
" />
<path d="M-242.8528 -85.3400
L-243.4957 -86.1971
" />
<path d="M-242.8528 -86.8400
L-243.7100 -85.9828
" />
<path d="M-242.2100 -85.3400
L-242.2100 -86.3400
" />
<path d="M-242.2100 -86.8400
L-242.2814 -86.7686
" />
<path d="M-242.2814 -86.7686
L-242.2100 -86.6971
" />
<path d="M-242.2100 -86.6971
L-242.1385 -86.7686
" />
<path d="M-242.1385 -86.7686
L-242.2100 -86.8400
" />
<path d="M-242.2100 -86.8400
L-242.2100 -86.6971
" />
<path d="M-240.6385 -85.4828
L-240.7100 -85.4114
" />
<path d="M-240.7100 -85.4114
L-240.9243 -85.3400
" />
<path d="M-240.9243 -85.3400
L-241.0671 -85.3400
" />
<path d="M-241.0671 -85.3400
L-241.2814 -85.4114
" />
<path d="M-241.2814 -85.4114
L-241.4243 -85.5543
" />
<path d="M-241.4243 -85.5543
L-241.4957 -85.6971
" />
<path d="M-241.4957 -85.6971
L-241.5671 -85.9828
" />
<path d="M-241.5671 -85.9828
L-241.5671 -86.1971
" />
<path d="M-241.5671 -86.1971
L-241.4957 -86.4828
" />
<path d="M-241.4957 -86.4828
L-241.4243 -86.6257
" />
<path d="M-241.4243 -86.6257
L-241.2814 -86.7686
" />
<path d="M-241.2814 -86.7686
L-241.0671 -86.8400
" />
<path d="M-241.0671 -86.8400
L-240.9243 -86.8400
" />
<path d="M-240.9243 -86.8400
L-240.7100 -86.7686
" />
<path d="M-240.7100 -86.7686
L-240.6385 -86.6971
" />
<path d="M-239.3528 -85.3400
L-239.3528 -86.1257
" />
<path d="M-239.3528 -86.1257
L-239.4243 -86.2686
" />
<path d="M-239.4243 -86.2686
L-239.5671 -86.3400
" />
<path d="M-239.5671 -86.3400
L-239.8528 -86.3400
" />
<path d="M-239.8528 -86.3400
L-239.9957 -86.2686
" />
<path d="M-239.3528 -85.4114
L-239.4957 -85.3400
" />
<path d="M-239.4957 -85.3400
L-239.8528 -85.3400
" />
<path d="M-239.8528 -85.3400
L-239.9957 -85.4114
" />
<path d="M-239.9957 -85.4114
L-240.0671 -85.5543
" />
<path d="M-240.0671 -85.5543
L-240.0671 -85.6971
" />
<path d="M-240.0671 -85.6971
L-239.9957 -85.8400
" />
<path d="M-239.9957 -85.8400
L-239.8528 -85.9114
" />
<path d="M-239.8528 -85.9114
L-239.4957 -85.9114
" />
<path d="M-239.4957 -85.9114
L-239.3528 -85.9828
" />
<path d="M-237.9957 -85.3400
L-237.9957 -86.8400
" />
<path d="M-237.9957 -85.4114
L-238.1385 -85.3400
" />
<path d="M-238.1385 -85.3400
L-238.4243 -85.3400
" />
<path d="M-238.4243 -85.3400
L-238.5671 -85.4114
" />
<path d="M-238.5671 -85.4114
L-238.6385 -85.4828
" />
<path d="M-238.6385 -85.4828
L-238.7100 -85.6257
" />
<path d="M-238.7100 -85.6257
L-238.7100 -86.0543
" />
<path d="M-238.7100 -86.0543
L-238.6385 -86.1971
" />
<path d="M-238.6385 -86.1971
L-238.5671 -86.2686
" />
<path d="M-238.5671 -86.2686
L-238.4243 -86.3400
" />
<path d="M-238.4243 -86.3400
L-238.1385 -86.3400
" />
<path d="M-238.1385 -86.3400
L-237.9957 -86.2686
" />
<path d="M-236.1385 -86.1257
L-235.6385 -86.1257
" />
<path d="M-235.4243 -85.3400
L-236.1385 -85.3400
" />
<path d="M-236.1385 -85.3400
L-236.1385 -86.8400
" />
<path d="M-236.1385 -86.8400
L-235.4243 -86.8400
" />
<path d="M-234.7814 -85.4828
L-234.7100 -85.4114
" />
<path d="M-234.7100 -85.4114
L-234.7814 -85.3400
" />
<path d="M-234.7814 -85.3400
L-234.8528 -85.4114
" />
<path d="M-234.8528 -85.4114
L-234.7814 -85.4828
" />
<path d="M-234.7814 -85.4828
L-234.7814 -85.3400
" />
<path d="M-234.0671 -85.3400
L-234.0671 -86.8400
" />
<path d="M-234.0671 -86.8400
L-233.7100 -86.8400
" />
<path d="M-233.7100 -86.8400
L-233.4957 -86.7686
" />
<path d="M-233.4957 -86.7686
L-233.3528 -86.6257
" />
<path d="M-233.3528 -86.6257
L-233.2814 -86.4828
" />
<path d="M-233.2814 -86.4828
L-233.2100 -86.1971
" />
<path d="M-233.2100 -86.1971
L-233.2100 -85.9828
" />
<path d="M-233.2100 -85.9828
L-233.2814 -85.6971
" />
<path d="M-233.2814 -85.6971
L-233.3528 -85.5543
" />
<path d="M-233.3528 -85.5543
L-233.4957 -85.4114
" />
<path d="M-233.4957 -85.4114
L-233.7100 -85.3400
" />
<path d="M-233.7100 -85.3400
L-234.0671 -85.3400
" />
<path d="M-232.5671 -85.4828
L-232.4957 -85.4114
" />
<path d="M-232.4957 -85.4114
L-232.5671 -85.3400
" />
<path d="M-232.5671 -85.3400
L-232.6385 -85.4114
" />
<path d="M-232.6385 -85.4114
L-232.5671 -85.4828
" />
<path d="M-232.5671 -85.4828
L-232.5671 -85.3400
" />
<path d="M-231.9243 -85.7686
L-231.2100 -85.7686
" />
<path d="M-232.0671 -85.3400
L-231.5671 -86.8400
" />
<path d="M-231.5671 -86.8400
L-231.0671 -85.3400
" />
<path d="M-230.5671 -85.4828
L-230.4957 -85.4114
" />
<path d="M-230.4957 -85.4114
L-230.5671 -85.3400
" />
<path d="M-230.5671 -85.3400
L-230.6385 -85.4114
" />
<path d="M-230.6385 -85.4114
L-230.5671 -85.4828
" />
<path d="M-230.5671 -85.4828
L-230.5671 -85.3400
" />
<path d="M-227.9243 -85.3400
L-228.7814 -85.3400
" />
<path d="M-228.3528 -85.3400
L-228.3528 -86.8400
" />
<path d="M-228.3528 -86.8400
L-228.4957 -86.6257
" />
<path d="M-228.4957 -86.6257
L-228.6385 -86.4828
" />
<path d="M-228.6385 -86.4828
L-228.7814 -86.4114
" />
<path d="M-226.9957 -86.8400
L-226.8528 -86.8400
" />
<path d="M-226.8528 -86.8400
L-226.7100 -86.7686
" />
<path d="M-226.7100 -86.7686
L-226.6385 -86.6971
" />
<path d="M-226.6385 -86.6971
L-226.5671 -86.5543
" />
<path d="M-226.5671 -86.5543
L-226.4957 -86.2686
" />
<path d="M-226.4957 -86.2686
L-226.4957 -85.9114
" />
<path d="M-226.4957 -85.9114
L-226.5671 -85.6257
" />
<path d="M-226.5671 -85.6257
L-226.6385 -85.4828
" />
<path d="M-226.6385 -85.4828
L-226.7100 -85.4114
" />
<path d="M-226.7100 -85.4114
L-226.8528 -85.3400
" />
<path d="M-226.8528 -85.3400
L-226.9957 -85.3400
" />
<path d="M-226.9957 -85.3400
L-227.1385 -85.4114
" />
<path d="M-227.1385 -85.4114
L-227.2100 -85.4828
" />
<path d="M-227.2100 -85.4828
L-227.2814 -85.6257
" />
<path d="M-227.2814 -85.6257
L-227.3528 -85.9114
" />
<path d="M-227.3528 -85.9114
L-227.3528 -86.2686
" />
<path d="M-227.3528 -86.2686
L-227.2814 -86.5543
" />
<path d="M-227.2814 -86.5543
L-227.2100 -86.6971
" />
<path d="M-227.2100 -86.6971
L-227.1385 -86.7686
" />
<path d="M-227.1385 -86.7686
L-226.9957 -86.8400
" />
<path d="M-225.8528 -85.4828
L-225.7814 -85.4114
" />
<path d="M-225.7814 -85.4114
L-225.8528 -85.3400
" />
<path d="M-225.8528 -85.3400
L-225.9243 -85.4114
" />
<path d="M-225.9243 -85.4114
L-225.8528 -85.4828
" />
<path d="M-225.8528 -85.4828
L-225.8528 -85.3400
" />
<path d="M-224.8528 -86.8400
L-224.7100 -86.8400
" />
<path d="M-224.7100 -86.8400
L-224.5671 -86.7686
" />
<path d="M-224.5671 -86.7686
L-224.4957 -86.6971
" />
<path d="M-224.4957 -86.6971
L-224.4243 -86.5543
" />
<path d="M-224.4243 -86.5543
L-224.3528 -86.2686
" />
<path d="M-224.3528 -86.2686
L-224.3528 -85.9114
" />
<path d="M-224.3528 -85.9114
L-224.4243 -85.6257
" />
<path d="M-224.4243 -85.6257
L-224.4957 -85.4828
" />
<path d="M-224.4957 -85.4828
L-224.5671 -85.4114
" />
<path d="M-224.5671 -85.4114
L-224.7100 -85.3400
" />
<path d="M-224.7100 -85.3400
L-224.8528 -85.3400
" />
<path d="M-224.8528 -85.3400
L-224.9957 -85.4114
" />
<path d="M-224.9957 -85.4114
L-225.0671 -85.4828
" />
<path d="M-225.0671 -85.4828
L-225.1385 -85.6257
" />
<path d="M-225.1385 -85.6257
L-225.2100 -85.9114
" />
<path d="M-225.2100 -85.9114
L-225.2100 -86.2686
" />
<path d="M-225.2100 -86.2686
L-225.1385 -86.5543
" />
<path d="M-225.1385 -86.5543
L-225.0671 -86.6971
" />
<path d="M-225.0671 -86.6971
L-224.9957 -86.7686
" />
<path d="M-224.9957 -86.7686
L-224.8528 -86.8400
" />
<path d="M-223.7100 -85.4828
L-223.6385 -85.4114
" />
<path d="M-223.6385 -85.4114
L-223.7100 -85.3400
" />
<path d="M-223.7100 -85.3400
L-223.7814 -85.4114
" />
<path d="M-223.7814 -85.4114
L-223.7100 -85.4828
" />
<path d="M-223.7100 -85.4828
L-223.7100 -85.3400
" />
<path d="M-222.2100 -85.3400
L-223.0671 -85.3400
" />
<path d="M-222.6385 -85.3400
L-222.6385 -86.8400
" />
<path d="M-222.6385 -86.8400
L-222.7814 -86.6257
" />
<path d="M-222.7814 -86.6257
L-222.9243 -86.4828
" />
<path d="M-222.9243 -86.4828
L-223.0671 -86.4114
" />
</g><path d="M-245.1658 -90.4261
L-137.1658 -90.4261
" />
</g>
<g style="fill:none; 
stroke:#C872AB; stroke-width:0.3000; stroke-opacity:1; 
stroke-linecap:round; stroke-linejoin:round;">
<text x="-159.1658" y="-88.0761"
textLength="6.3857" font-size="2.0000" lengthAdjust="spacingAndGlyphs"
text-anchor="start" opacity="0" stroke-opacity="0">Rev: </text>
<g class="stroked-text"><desc>Rev: </desc>
<path d="M-157.7541 -88.1478
L-158.2541 -88.8621
" />
<path d="M-158.6113 -88.1478
L-158.6113 -89.6478
" />
<path d="M-158.6113 -89.6478
L-158.0399 -89.6478
" />
<path d="M-158.0399 -89.6478
L-157.8970 -89.5764
" />
<path d="M-157.8970 -89.5764
L-157.8256 -89.5049
" />
<path d="M-157.8256 -89.5049
L-157.7541 -89.3621
" />
<path d="M-157.7541 -89.3621
L-157.7541 -89.1478
" />
<path d="M-157.7541 -89.1478
L-157.8256 -89.0049
" />
<path d="M-157.8256 -89.0049
L-157.8970 -88.9335
" />
<path d="M-157.8970 -88.9335
L-158.0399 -88.8621
" />
<path d="M-158.0399 -88.8621
L-158.6113 -88.8621
" />
<path d="M-156.5399 -88.2192
L-156.6827 -88.1478
" />
<path d="M-156.6827 -88.1478
L-156.9684 -88.1478
" />
<path d="M-156.9684 -88.1478
L-157.1113 -88.2192
" />
<path d="M-157.1113 -88.2192
L-157.1827 -88.3621
" />
<path d="M-157.1827 -88.3621
L-157.1827 -88.9335
" />
<path d="M-157.1827 -88.9335
L-157.1113 -89.0764
" />
<path d="M-157.1113 -89.0764
L-156.9684 -89.1478
" />
<path d="M-156.9684 -89.1478
L-156.6827 -89.1478
" />
<path d="M-156.6827 -89.1478
L-156.5399 -89.0764
" />
<path d="M-156.5399 -89.0764
L-156.4684 -88.9335
" />
<path d="M-156.4684 -88.9335
L-156.4684 -88.7906
" />
<path d="M-156.4684 -88.7906
L-157.1827 -88.6478
" />
<path d="M-155.9684 -89.1478
L-155.6113 -88.1478
" />
<path d="M-155.6113 -88.1478
L-155.2541 -89.1478
" />
<path d="M-154.6827 -88.2906
L-154.6113 -88.2192
" />
<path d="M-154.6113 -88.2192
L-154.6827 -88.1478
" />
<path d="M-154.6827 -88.1478
L-154.7541 -88.2192
" />
<path d="M-154.7541 -88.2192
L-154.6827 -88.2906
" />
<path d="M-154.6827 -88.2906
L-154.6827 -88.1478
" />
<path d="M-154.6827 -89.0764
L-154.6113 -89.0049
" />
<path d="M-154.6113 -89.0049
L-154.6827 -88.9335
" />
<path d="M-154.6827 -88.9335
L-154.7541 -89.0049
" />
<path d="M-154.7541 -89.0049
L-154.6827 -89.0764
" />
<path d="M-154.6827 -89.0764
L-154.6827 -88.9335
" />
</g></g>
<g style="fill:none; 
stroke:#C872AB; stroke-width:0.1500; stroke-opacity:1; 
stroke-linecap:round; stroke-linejoin:round;">
<text x="-244.1658" y="-88.0761"
textLength="11.6500" font-size="2.0000" lengthAdjust="spacingAndGlyphs"
text-anchor="start" opacity="0" stroke-opacity="0">Size: User</text>
<g class="stroked-text"><desc>Size: User</desc>
<path d="M-243.7814 -88.2114
L-243.5671 -88.1400
" />
<path d="M-243.5671 -88.1400
L-243.2100 -88.1400
" />
<path d="M-243.2100 -88.1400
L-243.0671 -88.2114
" />
<path d="M-243.0671 -88.2114
L-242.9957 -88.2828
" />
<path d="M-242.9957 -88.2828
L-242.9243 -88.4257
" />
<path d="M-242.9243 -88.4257
L-242.9243 -88.5686
" />
<path d="M-242.9243 -88.5686
L-242.9957 -88.7114
" />
<path d="M-242.9957 -88.7114
L-243.0671 -88.7828
" />
<path d="M-243.0671 -88.7828
L-243.2100 -88.8543
" />
<path d="M-243.2100 -88.8543
L-243.4957 -88.9257
" />
<path d="M-243.4957 -88.9257
L-243.6385 -88.9971
" />
<path d="M-243.6385 -88.9971
L-243.7100 -89.0686
" />
<path d="M-243.7100 -89.0686
L-243.7814 -89.2114
" />
<path d="M-243.7814 -89.2114
L-243.7814 -89.3543
" />
<path d="M-243.7814 -89.3543
L-243.7100 -89.4971
" />
<path d="M-243.7100 -89.4971
L-243.6385 -89.5686
" />
<path d="M-243.6385 -89.5686
L-243.4957 -89.6400
" />
<path d="M-243.4957 -89.6400
L-243.1385 -89.6400
" />
<path d="M-243.1385 -89.6400
L-242.9243 -89.5686
" />
<path d="M-242.2814 -88.1400
L-242.2814 -89.1400
" />
<path d="M-242.2814 -89.6400
L-242.3528 -89.5686
" />
<path d="M-242.3528 -89.5686
L-242.2814 -89.4971
" />
<path d="M-242.2814 -89.4971
L-242.2100 -89.5686
" />
<path d="M-242.2100 -89.5686
L-242.2814 -89.6400
" />
<path d="M-242.2814 -89.6400
L-242.2814 -89.4971
" />
<path d="M-241.7100 -89.1400
L-240.9243 -89.1400
" />
<path d="M-240.9243 -89.1400
L-241.7100 -88.1400
" />
<path d="M-241.7100 -88.1400
L-240.9243 -88.1400
" />
<path d="M-239.7814 -88.2114
L-239.9243 -88.1400
" />
<path d="M-239.9243 -88.1400
L-240.2100 -88.1400
" />
<path d="M-240.2100 -88.1400
L-240.3528 -88.2114
" />
<path d="M-240.3528 -88.2114
L-240.4243 -88.3543
" />
<path d="M-240.4243 -88.3543
L-240.4243 -88.9257
" />
<path d="M-240.4243 -88.9257
L-240.3528 -89.0686
" />
<path d="M-240.3528 -89.0686
L-240.2100 -89.1400
" />
<path d="M-240.2100 -89.1400
L-239.9243 -89.1400
" />
<path d="M-239.9243 -89.1400
L-239.7814 -89.0686
" />
<path d="M-239.7814 -89.0686
L-239.7100 -88.9257
" />
<path d="M-239.7100 -88.9257
L-239.7100 -88.7828
" />
<path d="M-239.7100 -88.7828
L-240.4243 -88.6400
" />
<path d="M-239.0671 -88.2828
L-238.9957 -88.2114
" />
<path d="M-238.9957 -88.2114
L-239.0671 -88.1400
" />
<path d="M-239.0671 -88.1400
L-239.1385 -88.2114
" />
<path d="M-239.1385 -88.2114
L-239.0671 -88.2828
" />
<path d="M-239.0671 -88.2828
L-239.0671 -88.1400
" />
<path d="M-239.0671 -89.0686
L-238.9957 -88.9971
" />
<path d="M-238.9957 -88.9971
L-239.0671 -88.9257
" />
<path d="M-239.0671 -88.9257
L-239.1385 -88.9971
" />
<path d="M-239.1385 -88.9971
L-239.0671 -89.0686
" />
<path d="M-239.0671 -89.0686
L-239.0671 -88.9257
" />
<path d="M-237.2100 -89.6400
L-237.2100 -88.4257
" />
<path d="M-237.2100 -88.4257
L-237.1385 -88.2828
" />
<path d="M-237.1385 -88.2828
L-237.0671 -88.2114
" />
<path d="M-237.0671 -88.2114
L-236.9243 -88.1400
" />
<path d="M-236.9243 -88.1400
L-236.6385 -88.1400
" />
<path d="M-236.6385 -88.1400
L-236.4957 -88.2114
" />
<path d="M-236.4957 -88.2114
L-236.4243 -88.2828
" />
<path d="M-236.4243 -88.2828
L-236.3528 -88.4257
" />
<path d="M-236.3528 -88.4257
L-236.3528 -89.6400
" />
<path d="M-235.7100 -88.2114
L-235.5671 -88.1400
" />
<path d="M-235.5671 -88.1400
L-235.2814 -88.1400
" />
<path d="M-235.2814 -88.1400
L-235.1385 -88.2114
" />
<path d="M-235.1385 -88.2114
L-235.0671 -88.3543
" />
<path d="M-235.0671 -88.3543
L-235.0671 -88.4257
" />
<path d="M-235.0671 -88.4257
L-235.1385 -88.5686
" />
<path d="M-235.1385 -88.5686
L-235.2814 -88.6400
" />
<path d="M-235.2814 -88.6400
L-235.4957 -88.6400
" />
<path d="M-235.4957 -88.6400
L-235.6385 -88.7114
" />
<path d="M-235.6385 -88.7114
L-235.7100 -88.8543
" />
<path d="M-235.7100 -88.8543
L-235.7100 -88.9257
" />
<path d="M-235.7100 -88.9257
L-235.6385 -89.0686
" />
<path d="M-235.6385 -89.0686
L-235.4957 -89.1400
" />
<path d="M-235.4957 -89.1400
L-235.2814 -89.1400
" />
<path d="M-235.2814 -89.1400
L-235.1385 -89.0686
" />
<path d="M-233.8528 -88.2114
L-233.9957 -88.1400
" />
<path d="M-233.9957 -88.1400
L-234.2814 -88.1400
" />
<path d="M-234.2814 -88.1400
L-234.4243 -88.2114
" />
<path d="M-234.4243 -88.2114
L-234.4957 -88.3543
" />
<path d="M-234.4957 -88.3543
L-234.4957 -88.9257
" />
<path d="M-234.4957 -88.9257
L-234.4243 -89.0686
" />
<path d="M-234.4243 -89.0686
L-234.2814 -89.1400
" />
<path d="M-234.2814 -89.1400
L-233.9957 -89.1400
" />
<path d="M-233.9957 -89.1400
L-233.8528 -89.0686
" />
<path d="M-233.8528 -89.0686
L-233.7814 -88.9257
" />
<path d="M-233.7814 -88.9257
L-233.7814 -88.7828
" />
<path d="M-233.7814 -88.7828
L-234.4957 -88.6400
" />
<path d="M-233.1385 -88.1400
L-233.1385 -89.1400
" />
<path d="M-233.1385 -88.8543
L-233.0671 -88.9971
" />
<path d="M-233.0671 -88.9971
L-232.9957 -89.0686
" />
<path d="M-232.9957 -89.0686
L-232.8528 -89.1400
" />
<path d="M-232.8528 -89.1400
L-232.7100 -89.1400
" />
</g><text x="-159.1658" y="-85.2761"
textLength="8.5071" font-size="2.0000" lengthAdjust="spacingAndGlyphs"
text-anchor="start" opacity="0" stroke-opacity="0">Id: 1/1</text>
<g class="stroked-text"><desc>Id: 1/1</desc>
<path d="M-158.7100 -85.3400
L-158.7100 -86.8400
" />
<path d="M-157.3528 -85.3400
L-157.3528 -86.8400
" />
<path d="M-157.3528 -85.4114
L-157.4957 -85.3400
" />
<path d="M-157.4957 -85.3400
L-157.7814 -85.3400
" />
<path d="M-157.7814 -85.3400
L-157.9243 -85.4114
" />
<path d="M-157.9243 -85.4114
L-157.9957 -85.4828
" />
<path d="M-157.9957 -85.4828
L-158.0671 -85.6257
" />
<path d="M-158.0671 -85.6257
L-158.0671 -86.0543
" />
<path d="M-158.0671 -86.0543
L-157.9957 -86.1971
" />
<path d="M-157.9957 -86.1971
L-157.9243 -86.2686
" />
<path d="M-157.9243 -86.2686
L-157.7814 -86.3400
" />
<path d="M-157.7814 -86.3400
L-157.4957 -86.3400
" />
<path d="M-157.4957 -86.3400
L-157.3528 -86.2686
" />
<path d="M-156.6385 -85.4828
L-156.5671 -85.4114
" />
<path d="M-156.5671 -85.4114
L-156.6385 -85.3400
" />
<path d="M-156.6385 -85.3400
L-156.7100 -85.4114
" />
<path d="M-156.7100 -85.4114
L-156.6385 -85.4828
" />
<path d="M-156.6385 -85.4828
L-156.6385 -85.3400
" />
<path d="M-156.6385 -86.2686
L-156.5671 -86.1971
" />
<path d="M-156.5671 -86.1971
L-156.6385 -86.1257
" />
<path d="M-156.6385 -86.1257
L-156.7100 -86.1971
" />
<path d="M-156.7100 -86.1971
L-156.6385 -86.2686
" />
<path d="M-156.6385 -86.2686
L-156.6385 -86.1257
" />
<path d="M-153.9957 -85.3400
L-154.8528 -85.3400
" />
<path d="M-154.4243 -85.3400
L-154.4243 -86.8400
" />
<path d="M-154.4243 -86.8400
L-154.5671 -86.6257
" />
<path d="M-154.5671 -86.6257
L-154.7100 -86.4828
" />
<path d="M-154.7100 -86.4828
L-154.8528 -86.4114
" />
<path d="M-152.2814 -86.9114
L-153.5671 -84.9828
" />
<path d="M-150.9957 -85.3400
L-151.8528 -85.3400
" />
<path d="M-151.4243 -85.3400
L-151.4243 -86.8400
" />
<path d="M-151.4243 -86.8400
L-151.5671 -86.6257
" />
<path d="M-151.5671 -86.6257
L-151.7100 -86.4828
" />
<path d="M-151.7100 -86.4828
L-151.8528 -86.4114
" />
</g><path d="M-245.1658 -94.4261
L-137.1658 -94.4261
" />
</g>
<g style="fill:none; 
stroke:#C872AB; stroke-width:0.4000; stroke-opacity:1; 
stroke-linecap:round; stroke-linejoin:round;">
<text x="-244.1658" y="-91.6261"
textLength="9.6571" font-size="2.6667" lengthAdjust="spacingAndGlyphs"
text-anchor="start" opacity="0" stroke-opacity="0">Title: </text>
<g class="stroked-text"><desc>Title: </desc>
<path d="M-243.4741 -93.7217
L-242.3312 -93.7217
" />
<path d="M-243.1526 -91.7217
L-242.9026 -93.7217
" />
<path d="M-241.9145 -91.7217
L-241.7479 -93.0550
" />
<path d="M-241.6645 -93.7217
L-241.7717 -93.6264
" />
<path d="M-241.7717 -93.6264
L-241.6884 -93.5312
" />
<path d="M-241.6884 -93.5312
L-241.5812 -93.6264
" />
<path d="M-241.5812 -93.6264
L-241.6645 -93.7217
" />
<path d="M-241.6645 -93.7217
L-241.6884 -93.5312
" />
<path d="M-241.0812 -93.0550
L-240.3193 -93.0550
" />
<path d="M-240.7122 -93.7217
L-240.9265 -92.0074
" />
<path d="M-240.9265 -92.0074
L-240.8550 -91.8169
" />
<path d="M-240.8550 -91.8169
L-240.6765 -91.7217
" />
<path d="M-240.6765 -91.7217
L-240.4860 -91.7217
" />
<path d="M-239.5336 -91.7217
L-239.7122 -91.8169
" />
<path d="M-239.7122 -91.8169
L-239.7836 -92.0074
" />
<path d="M-239.7836 -92.0074
L-239.5693 -93.7217
" />
<path d="M-237.9979 -91.8169
L-238.2003 -91.7217
" />
<path d="M-238.2003 -91.7217
L-238.5812 -91.7217
" />
<path d="M-238.5812 -91.7217
L-238.7598 -91.8169
" />
<path d="M-238.7598 -91.8169
L-238.8312 -92.0074
" />
<path d="M-238.8312 -92.0074
L-238.7360 -92.7693
" />
<path d="M-238.7360 -92.7693
L-238.6169 -92.9598
" />
<path d="M-238.6169 -92.9598
L-238.4145 -93.0550
" />
<path d="M-238.4145 -93.0550
L-238.0336 -93.0550
" />
<path d="M-238.0336 -93.0550
L-237.8550 -92.9598
" />
<path d="M-237.8550 -92.9598
L-237.7836 -92.7693
" />
<path d="M-237.7836 -92.7693
L-237.8074 -92.5788
" />
<path d="M-237.8074 -92.5788
L-238.7836 -92.3883
" />
<path d="M-237.0336 -91.9122
L-236.9503 -91.8169
" />
<path d="M-236.9503 -91.8169
L-237.0574 -91.7217
" />
<path d="M-237.0574 -91.7217
L-237.1407 -91.8169
" />
<path d="M-237.1407 -91.8169
L-237.0336 -91.9122
" />
<path d="M-237.0336 -91.9122
L-237.0574 -91.7217
" />
<path d="M-236.9026 -92.9598
L-236.8193 -92.8645
" />
<path d="M-236.8193 -92.8645
L-236.9265 -92.7693
" />
<path d="M-236.9265 -92.7693
L-237.0098 -92.8645
" />
<path d="M-237.0098 -92.8645
L-236.9026 -92.9598
" />
<path d="M-236.9026 -92.9598
L-236.9265 -92.7693
" />
</g></g>
<g style="fill:none; 
stroke:#C872AB; stroke-width:0.1500; stroke-opacity:1; 
stroke-linecap:round; stroke-linejoin:round;">
<text x="-244.1658" y="-95.4761"
textLength="26.3643" font-size="2.0000" lengthAdjust="spacingAndGlyphs"
text-anchor="start" opacity="0" stroke-opacity="0">File: joystick.kicad_pcb</text>
<g class="stroked-text"><desc>File: joystick.kicad_pcb</desc>
<path d="M-243.2100 -96.3257
L-243.7100 -96.3257
" />
<path d="M-243.7100 -95.5400
L-243.7100 -97.0400
" />
<path d="M-243.7100 -97.0400
L-242.9957 -97.0400
" />
<path d="M-242.4243 -95.5400
L-242.4243 -96.5400
" />
<path d="M-242.4243 -97.0400
L-242.4957 -96.9686
" />
<path d="M-242.4957 -96.9686
L-242.4243 -96.8971
" />
<path d="M-242.4243 -96.8971
L-242.3528 -96.9686
" />
<path d="M-242.3528 -96.9686
L-242.4243 -97.0400
" />
<path d="M-242.4243 -97.0400
L-242.4243 -96.8971
" />
<path d="M-241.4957 -95.5400
L-241.6385 -95.6114
" />
<path d="M-241.6385 -95.6114
L-241.7100 -95.7543
" />
<path d="M-241.7100 -95.7543
L-241.7100 -97.0400
" />
<path d="M-240.3528 -95.6114
L-240.4957 -95.5400
" />
<path d="M-240.4957 -95.5400
L-240.7814 -95.5400
" />
<path d="M-240.7814 -95.5400
L-240.9243 -95.6114
" />
<path d="M-240.9243 -95.6114
L-240.9957 -95.7543
" />
<path d="M-240.9957 -95.7543
L-240.9957 -96.3257
" />
<path d="M-240.9957 -96.3257
L-240.9243 -96.4686
" />
<path d="M-240.9243 -96.4686
L-240.7814 -96.5400
" />
<path d="M-240.7814 -96.5400
L-240.4957 -96.5400
" />
<path d="M-240.4957 -96.5400
L-240.3528 -96.4686
" />
<path d="M-240.3528 -96.4686
L-240.2814 -96.3257
" />
<path d="M-240.2814 -96.3257
L-240.2814 -96.1828
" />
<path d="M-240.2814 -96.1828
L-240.9957 -96.0400
" />
<path d="M-239.6385 -95.6828
L-239.5671 -95.6114
" />
<path d="M-239.5671 -95.6114
L-239.6385 -95.5400
" />
<path d="M-239.6385 -95.5400
L-239.7100 -95.6114
" />
<path d="M-239.7100 -95.6114
L-239.6385 -95.6828
" />
<path d="M-239.6385 -95.6828
L-239.6385 -95.5400
" />
<path d="M-239.6385 -96.4686
L-239.5671 -96.3971
" />
<path d="M-239.5671 -96.3971
L-239.6385 -96.3257
" />
<path d="M-239.6385 -96.3257
L-239.7100 -96.3971
" />
<path d="M-239.7100 -96.3971
L-239.6385 -96.4686
" />
<path d="M-239.6385 -96.4686
L-239.6385 -96.3257
" />
<path d="M-237.7814 -96.5400
L-237.7814 -95.2543
" />
<path d="M-237.7814 -95.2543
L-237.8528 -95.1114
" />
<path d="M-237.8528 -95.1114
L-237.9957 -95.0400
" />
<path d="M-237.9957 -95.0400
L-238.0671 -95.0400
" />
<path d="M-237.7814 -97.0400
L-237.8528 -96.9686
" />
<path d="M-237.8528 -96.9686
L-237.7814 -96.8971
" />
<path d="M-237.7814 -96.8971
L-237.7100 -96.9686
" />
<path d="M-237.7100 -96.9686
L-237.7814 -97.0400
" />
<path d="M-237.7814 -97.0400
L-237.7814 -96.8971
" />
<path d="M-236.8528 -95.5400
L-236.9957 -95.6114
" />
<path d="M-236.9957 -95.6114
L-237.0671 -95.6828
" />
<path d="M-237.0671 -95.6828
L-237.1385 -95.8257
" />
<path d="M-237.1385 -95.8257
L-237.1385 -96.2543
" />
<path d="M-237.1385 -96.2543
L-237.0671 -96.3971
" />
<path d="M-237.0671 -96.3971
L-236.9957 -96.4686
" />
<path d="M-236.9957 -96.4686
L-236.8528 -96.5400
" />
<path d="M-236.8528 -96.5400
L-236.6385 -96.5400
" />
<path d="M-236.6385 -96.5400
L-236.4957 -96.4686
" />
<path d="M-236.4957 -96.4686
L-236.4243 -96.3971
" />
<path d="M-236.4243 -96.3971
L-236.3528 -96.2543
" />
<path d="M-236.3528 -96.2543
L-236.3528 -95.8257
" />
<path d="M-236.3528 -95.8257
L-236.4243 -95.6828
" />
<path d="M-236.4243 -95.6828
L-236.4957 -95.6114
" />
<path d="M-236.4957 -95.6114
L-236.6385 -95.5400
" />
<path d="M-236.6385 -95.5400
L-236.8528 -95.5400
" />
<path d="M-235.8528 -96.5400
L-235.4957 -95.5400
" />
<path d="M-235.1385 -96.5400
L-235.4957 -95.5400
" />
<path d="M-235.4957 -95.5400
L-235.6385 -95.1828
" />
<path d="M-235.6385 -95.1828
L-235.7100 -95.1114
" />
<path d="M-235.7100 -95.1114
L-235.8528 -95.0400
" />
<path d="M-234.6385 -95.6114
L-234.4957 -95.5400
" />
<path d="M-234.4957 -95.5400
L-234.2100 -95.5400
" />
<path d="M-234.2100 -95.5400
L-234.0671 -95.6114
" />
<path d="M-234.0671 -95.6114
L-233.9957 -95.7543
" />
<path d="M-233.9957 -95.7543
L-233.9957 -95.8257
" />
<path d="M-233.9957 -95.8257
L-234.0671 -95.9686
" />
<path d="M-234.0671 -95.9686
L-234.2100 -96.0400
" />
<path d="M-234.2100 -96.0400
L-234.4243 -96.0400
" />
<path d="M-234.4243 -96.0400
L-234.5671 -96.1114
" />
<path d="M-234.5671 -96.1114
L-234.6385 -96.2543
" />
<path d="M-234.6385 -96.2543
L-234.6385 -96.3257
" />
<path d="M-234.6385 -96.3257
L-234.5671 -96.4686
" />
<path d="M-234.5671 -96.4686
L-234.4243 -96.5400
" />
<path d="M-234.4243 -96.5400
L-234.2100 -96.5400
" />
<path d="M-234.2100 -96.5400
L-234.0671 -96.4686
" />
<path d="M-233.5671 -96.5400
L-232.9957 -96.5400
" />
<path d="M-233.3528 -97.0400
L-233.3528 -95.7543
" />
<path d="M-233.3528 -95.7543
L-233.2814 -95.6114
" />
<path d="M-233.2814 -95.6114
L-233.1385 -95.5400
" />
<path d="M-233.1385 -95.5400
L-232.9957 -95.5400
" />
<path d="M-232.4957 -95.5400
L-232.4957 -96.5400
" />
<path d="M-232.4957 -97.0400
L-232.5671 -96.9686
" />
<path d="M-232.5671 -96.9686
L-232.4957 -96.8971
" />
<path d="M-232.4957 -96.8971
L-232.4243 -96.9686
" />
<path d="M-232.4243 -96.9686
L-232.4957 -97.0400
" />
<path d="M-232.4957 -97.0400
L-232.4957 -96.8971
" />
<path d="M-231.1385 -95.6114
L-231.2814 -95.5400
" />
<path d="M-231.2814 -95.5400
L-231.5671 -95.5400
" />
<path d="M-231.5671 -95.5400
L-231.7100 -95.6114
" />
<path d="M-231.7100 -95.6114
L-231.7814 -95.6828
" />
<path d="M-231.7814 -95.6828
L-231.8528 -95.8257
" />
<path d="M-231.8528 -95.8257
L-231.8528 -96.2543
" />
<path d="M-231.8528 -96.2543
L-231.7814 -96.3971
" />
<path d="M-231.7814 -96.3971
L-231.7100 -96.4686
" />
<path d="M-231.7100 -96.4686
L-231.5671 -96.5400
" />
<path d="M-231.5671 -96.5400
L-231.2814 -96.5400
" />
<path d="M-231.2814 -96.5400
L-231.1385 -96.4686
" />
<path d="M-230.4957 -95.5400
L-230.4957 -97.0400
" />
<path d="M-230.3528 -96.1114
L-229.9243 -95.5400
" />
<path d="M-229.9243 -96.5400
L-230.4957 -95.9686
" />
<path d="M-229.2814 -95.6828
L-229.2100 -95.6114
" />
<path d="M-229.2100 -95.6114
L-229.2814 -95.5400
" />
<path d="M-229.2814 -95.5400
L-229.3528 -95.6114
" />
<path d="M-229.3528 -95.6114
L-229.2814 -95.6828
" />
<path d="M-229.2814 -95.6828
L-229.2814 -95.5400
" />
<path d="M-228.5671 -95.5400
L-228.5671 -97.0400
" />
<path d="M-228.4243 -96.1114
L-227.9957 -95.5400
" />
<path d="M-227.9957 -96.5400
L-228.5671 -95.9686
" />
<path d="M-227.3528 -95.5400
L-227.3528 -96.5400
" />
<path d="M-227.3528 -97.0400
L-227.4243 -96.9686
" />
<path d="M-227.4243 -96.9686
L-227.3528 -96.8971
" />
<path d="M-227.3528 -96.8971
L-227.2814 -96.9686
" />
<path d="M-227.2814 -96.9686
L-227.3528 -97.0400
" />
<path d="M-227.3528 -97.0400
L-227.3528 -96.8971
" />
<path d="M-225.9957 -95.6114
L-226.1385 -95.5400
" />
<path d="M-226.1385 -95.5400
L-226.4243 -95.5400
" />
<path d="M-226.4243 -95.5400
L-226.5671 -95.6114
" />
<path d="M-226.5671 -95.6114
L-226.6385 -95.6828
" />
<path d="M-226.6385 -95.6828
L-226.7100 -95.8257
" />
<path d="M-226.7100 -95.8257
L-226.7100 -96.2543
" />
<path d="M-226.7100 -96.2543
L-226.6385 -96.3971
" />
<path d="M-226.6385 -96.3971
L-226.5671 -96.4686
" />
<path d="M-226.5671 -96.4686
L-226.4243 -96.5400
" />
<path d="M-226.4243 -96.5400
L-226.1385 -96.5400
" />
<path d="M-226.1385 -96.5400
L-225.9957 -96.4686
" />
<path d="M-224.7100 -95.5400
L-224.7100 -96.3257
" />
<path d="M-224.7100 -96.3257
L-224.7814 -96.4686
" />
<path d="M-224.7814 -96.4686
L-224.9243 -96.5400
" />
<path d="M-224.9243 -96.5400
L-225.2100 -96.5400
" />
<path d="M-225.2100 -96.5400
L-225.3528 -96.4686
" />
<path d="M-224.7100 -95.6114
L-224.8528 -95.5400
" />
<path d="M-224.8528 -95.5400
L-225.2100 -95.5400
" />
<path d="M-225.2100 -95.5400
L-225.3528 -95.6114
" />
<path d="M-225.3528 -95.6114
L-225.4243 -95.7543
" />
<path d="M-225.4243 -95.7543
L-225.4243 -95.8971
" />
<path d="M-225.4243 -95.8971
L-225.3528 -96.0400
" />
<path d="M-225.3528 -96.0400
L-225.2100 -96.1114
" />
<path d="M-225.2100 -96.1114
L-224.8528 -96.1114
" />
<path d="M-224.8528 -96.1114
L-224.7100 -96.1828
" />
<path d="M-223.3528 -95.5400
L-223.3528 -97.0400
" />
<path d="M-223.3528 -95.6114
L-223.4957 -95.5400
" />
<path d="M-223.4957 -95.5400
L-223.7814 -95.5400
" />
<path d="M-223.7814 -95.5400
L-223.9243 -95.6114
" />
<path d="M-223.9243 -95.6114
L-223.9957 -95.6828
" />
<path d="M-223.9957 -95.6828
L-224.0671 -95.8257
" />
<path d="M-224.0671 -95.8257
L-224.0671 -96.2543
" />
<path d="M-224.0671 -96.2543
L-223.9957 -96.3971
" />
<path d="M-223.9957 -96.3971
L-223.9243 -96.4686
" />
<path d="M-223.9243 -96.4686
L-223.7814 -96.5400
" />
<path d="M-223.7814 -96.5400
L-223.4957 -96.5400
" />
<path d="M-223.4957 -96.5400
L-223.3528 -96.4686
" />
<path d="M-222.9957 -95.3971
L-221.8528 -95.3971
" />
<path d="M-221.4957 -96.5400
L-221.4957 -95.0400
" />
<path d="M-221.4957 -96.4686
L-221.3528 -96.5400
" />
<path d="M-221.3528 -96.5400
L-221.0671 -96.5400
" />
<path d="M-221.0671 -96.5400
L-220.9243 -96.4686
" />
<path d="M-220.9243 -96.4686
L-220.8528 -96.3971
" />
<path d="M-220.8528 -96.3971
L-220.7814 -96.2543
" />
<path d="M-220.7814 -96.2543
L-220.7814 -95.8257
" />
<path d="M-220.7814 -95.8257
L-220.8528 -95.6828
" />
<path d="M-220.8528 -95.6828
L-220.9243 -95.6114
" />
<path d="M-220.9243 -95.6114
L-221.0671 -95.5400
" />
<path d="M-221.0671 -95.5400
L-221.3528 -95.5400
" />
<path d="M-221.3528 -95.5400
L-221.4957 -95.6114
" />
<path d="M-219.4957 -95.6114
L-219.6385 -95.5400
" />
<path d="M-219.6385 -95.5400
L-219.9243 -95.5400
" />
<path d="M-219.9243 -95.5400
L-220.0671 -95.6114
" />
<path d="M-220.0671 -95.6114
L-220.1385 -95.6828
" />
<path d="M-220.1385 -95.6828
L-220.2100 -95.8257
" />
<path d="M-220.2100 -95.8257
L-220.2100 -96.2543
" />
<path d="M-220.2100 -96.2543
L-220.1385 -96.3971
" />
<path d="M-220.1385 -96.3971
L-220.0671 -96.4686
" />
<path d="M-220.0671 -96.4686
L-219.9243 -96.5400
" />
<path d="M-219.9243 -96.5400
L-219.6385 -96.5400
" />
<path d="M-219.6385 -96.5400
L-219.4957 -96.4686
" />
<path d="M-218.8528 -95.5400
L-218.8528 -97.0400
" />
<path d="M-218.8528 -96.4686
L-218.7100 -96.5400
" />
<path d="M-218.7100 -96.5400
L-218.4243 -96.5400
" />
<path d="M-218.4243 -96.5400
L-218.2814 -96.4686
" />
<path d="M-218.2814 -96.4686
L-218.2100 -96.3971
" />
<path d="M-218.2100 -96.3971
L-218.1385 -96.2543
" />
<path d="M-218.1385 -96.2543
L-218.1385 -95.8257
" />
<path d="M-218.1385 -95.8257
L-218.2100 -95.6828
" />
<path d="M-218.2100 -95.6828
L-218.2814 -95.6114
" />
<path d="M-218.2814 -95.6114
L-218.4243 -95.5400
" />
<path d="M-218.4243 -95.5400
L-218.7100 -95.5400
" />
<path d="M-218.7100 -95.5400
L-218.8528 -95.6114
" />
</g><path d="M-245.1658 -100.4261
L-137.1658 -100.4261
" />
<text x="-244.1658" y="-98.1761"
textLength="8.2214" font-size="2.0000" lengthAdjust="spacingAndGlyphs"
text-anchor="start" opacity="0" stroke-opacity="0">Sheet: </text>
<g class="stroked-text"><desc>Sheet: </desc>
<path d="M-243.7814 -98.3114
L-243.5671 -98.2400
" />
<path d="M-243.5671 -98.2400
L-243.2100 -98.2400
" />
<path d="M-243.2100 -98.2400
L-243.0671 -98.3114
" />
<path d="M-243.0671 -98.3114
L-242.9957 -98.3828
" />
<path d="M-242.9957 -98.3828
L-242.9243 -98.5257
" />
<path d="M-242.9243 -98.5257
L-242.9243 -98.6686
" />
<path d="M-242.9243 -98.6686
L-242.9957 -98.8114
" />
<path d="M-242.9957 -98.8114
L-243.0671 -98.8828
" />
<path d="M-243.0671 -98.8828
L-243.2100 -98.9543
" />
<path d="M-243.2100 -98.9543
L-243.4957 -99.0257
" />
<path d="M-243.4957 -99.0257
L-243.6385 -99.0971
" />
<path d="M-243.6385 -99.0971
L-243.7100 -99.1686
" />
<path d="M-243.7100 -99.1686
L-243.7814 -99.3114
" />
<path d="M-243.7814 -99.3114
L-243.7814 -99.4543
" />
<path d="M-243.7814 -99.4543
L-243.7100 -99.5971
" />
<path d="M-243.7100 -99.5971
L-243.6385 -99.6686
" />
<path d="M-243.6385 -99.6686
L-243.4957 -99.7400
" />
<path d="M-243.4957 -99.7400
L-243.1385 -99.7400
" />
<path d="M-243.1385 -99.7400
L-242.9243 -99.6686
" />
<path d="M-242.2814 -98.2400
L-242.2814 -99.7400
" />
<path d="M-241.6385 -98.2400
L-241.6385 -99.0257
" />
<path d="M-241.6385 -99.0257
L-241.7100 -99.1686
" />
<path d="M-241.7100 -99.1686
L-241.8528 -99.2400
" />
<path d="M-241.8528 -99.2400
L-242.0671 -99.2400
" />
<path d="M-242.0671 -99.2400
L-242.2100 -99.1686
" />
<path d="M-242.2100 -99.1686
L-242.2814 -99.0971
" />
<path d="M-240.3528 -98.3114
L-240.4957 -98.2400
" />
<path d="M-240.4957 -98.2400
L-240.7814 -98.2400
" />
<path d="M-240.7814 -98.2400
L-240.9243 -98.3114
" />
<path d="M-240.9243 -98.3114
L-240.9957 -98.4543
" />
<path d="M-240.9957 -98.4543
L-240.9957 -99.0257
" />
<path d="M-240.9957 -99.0257
L-240.9243 -99.1686
" />
<path d="M-240.9243 -99.1686
L-240.7814 -99.2400
" />
<path d="M-240.7814 -99.2400
L-240.4957 -99.2400
" />
<path d="M-240.4957 -99.2400
L-240.3528 -99.1686
" />
<path d="M-240.3528 -99.1686
L-240.2814 -99.0257
" />
<path d="M-240.2814 -99.0257
L-240.2814 -98.8828
" />
<path d="M-240.2814 -98.8828
L-240.9957 -98.7400
" />
<path d="M-239.0671 -98.3114
L-239.2100 -98.2400
" />
<path d="M-239.2100 -98.2400
L-239.4957 -98.2400
" />
<path d="M-239.4957 -98.2400
L-239.6385 -98.3114
" />
<path d="M-239.6385 -98.3114
L-239.7100 -98.4543
" />
<path d="M-239.7100 -98.4543
L-239.7100 -99.0257
" />
<path d="M-239.7100 -99.0257
L-239.6385 -99.1686
" />
<path d="M-239.6385 -99.1686
L-239.4957 -99.2400
" />
<path d="M-239.4957 -99.2400
L-239.2100 -99.2400
" />
<path d="M-239.2100 -99.2400
L-239.0671 -99.1686
" />
<path d="M-239.0671 -99.1686
L-238.9957 -99.0257
" />
<path d="M-238.9957 -99.0257
L-238.9957 -98.8828
" />
<path d="M-238.9957 -98.8828
L-239.7100 -98.7400
" />
<path d="M-238.5671 -99.2400
L-237.9957 -99.2400
" />
<path d="M-238.3528 -99.7400
L-238.3528 -98.4543
" />
<path d="M-238.3528 -98.4543
L-238.2814 -98.3114
" />
<path d="M-238.2814 -98.3114
L-238.1385 -98.2400
" />
<path d="M-238.1385 -98.2400
L-237.9957 -98.2400
" />
<path d="M-237.4957 -98.3828
L-237.4243 -98.3114
" />
<path d="M-237.4243 -98.3114
L-237.4957 -98.2400
" />
<path d="M-237.4957 -98.2400
L-237.5671 -98.3114
" />
<path d="M-237.5671 -98.3114
L-237.4957 -98.3828
" />
<path d="M-237.4957 -98.3828
L-237.4957 -98.2400
" />
<path d="M-237.4957 -99.1686
L-237.4243 -99.0971
" />
<path d="M-237.4243 -99.0971
L-237.4957 -99.0257
" />
<path d="M-237.4957 -99.0257
L-237.5671 -99.0971
" />
<path d="M-237.5671 -99.0971
L-237.4957 -99.1686
" />
<path d="M-237.4957 -99.1686
L-237.4957 -99.0257
" />
</g></g>
<g style="fill:none; 
stroke:#C872AB; stroke-width:0.3000; stroke-opacity:1; 
stroke-linecap:round; stroke-linejoin:round;">
<text x="-244.1658" y="-101.1761"
textLength="0.9000" font-size="2.0000" lengthAdjust="spacingAndGlyphs"
text-anchor="start" opacity="0" stroke-opacity="0"></text>
<g class="stroked-text"><desc></desc>
</g></g>
<g style="fill:none; 
stroke:#C872AB; stroke-width:0.1500; stroke-opacity:1; 
stroke-linecap:round; stroke-linejoin:round;">
<text x="-244.1658" y="-104.1761"
textLength="0.4500" font-size="2.0000" lengthAdjust="spacingAndGlyphs"
text-anchor="start" opacity="0" stroke-opacity="0"></text>
<g class="stroked-text"><desc></desc>
</g><text x="-244.1658" y="-107.1761"
textLength="0.4500" font-size="2.0000" lengthAdjust="spacingAndGlyphs"
text-anchor="start" opacity="0" stroke-opacity="0"></text>
<g class="stroked-text"><desc></desc>
</g><text x="-244.1658" y="-110.1761"
textLength="0.4500" font-size="2.0000" lengthAdjust="spacingAndGlyphs"
text-anchor="start" opacity="0" stroke-opacity="0"></text>
<g class="stroked-text"><desc></desc>
</g><text x="-244.1658" y="-113.1761"
textLength="0.4500" font-size="2.0000" lengthAdjust="spacingAndGlyphs"
text-anchor="start" opacity="0" stroke-opacity="0"></text>
<g class="stroked-text"><desc></desc>
</g><path d="M-225.1658 -90.4261
L-225.1658 -87.4261
" />
<path d="M-161.1658 -90.4261
L-161.1658 -83.9261
" />
<path style="fill:#4D7FC4; fill-opacity:1.0000; stroke:none;fill-rule:evenodd;"
d="M 31.8670,1.3154
31.8480,1.2197
31.7938,1.1386
31.7127,1.0844
31.6170,1.0654
31.0870,1.0654
30.9913,1.0844
30.9102,1.1386
30.8560,1.2197
30.8370,1.3154
30.8370,2.5454
30.8560,2.6411
30.9102,2.7222
30.9913,2.7764
31.0870,2.7954
31.6170,2.7954
31.7127,2.7764
31.7938,2.7222
31.8480,2.6411
31.8670,2.5454
Z" /> 
</g>
<g style="fill:none; 
stroke:#4D7FC4; stroke-width:1.0300; stroke-opacity:1; 
stroke-linecap:round; stroke-linejoin:round;">
<path d="M29.8520 1.5804
L29.8520 2.2804
" />
<path d="M28.3520 1.5804
L28.3520 2.2804
" />
<path d="M26.8520 1.5804
L26.8520 2.2804
" />
<path d="M25.3520 1.5804
L25.3520 2.2804
" />
<path d="M23.8520 1.5804
L23.8520 2.2804
" />
</g>
<g style="fill:none; 
stroke:#4D7FC4; stroke-width:1.2000; stroke-opacity:1; 
stroke-linecap:round; stroke-linejoin:round;">
<path d="M3.7538 1.3304
L3.7538 2.5304
" />
<path d="M1.3038 1.3304
L1.3038 2.5304
" />
</g>
<g style="fill:#4D7FC4; fill-opacity:1.0000; stroke:none;">
<circle cx="25.2348" cy="11.6916" r="0.9000" /> 
<circle cx="25.2348" cy="14.2316" r="0.9000" /> 
<circle cx="25.2348" cy="16.7716" r="0.9000" /> 
<circle cx="19.0448" cy="22.9516" r="0.9000" /> 
<circle cx="16.5048" cy="22.9516" r="0.9000" /> 
<circle cx="13.9648" cy="22.9516" r="0.9000" /> 
<circle cx="10.1748" cy="19.2216" r="1.2500" /> 
<circle cx="10.1748" cy="9.2316" r="1.2500" /> 
<circle cx="22.8248" cy="9.2316" r="1.2500" /> 
<circle cx="22.8248" cy="19.2216" r="1.2500" /> 
</g>
<g style="fill:none; 
stroke:#4D7FC4; stroke-width:1.2000; stroke-opacity:1; 
stroke-linecap:round; stroke-linejoin:round;">
<path d="M10.4224 1.3558
L10.4224 2.5558
" />
<path style="fill:#4D7FC4; fill-opacity:1.0000; stroke:none;fill-rule:evenodd;"
d="M 17.8738,5.4747
17.8738,3.9747
17.1738,3.9747
17.1738,5.4747
Z" /> 
<path style="fill:#4D7FC4; fill-opacity:1.0000; stroke:none;fill-rule:evenodd;"
d="M 14.8738,5.4747
14.8738,3.9747
14.1738,3.9747
14.1738,5.4747
Z" /> 
<path style="fill:#4D7FC4; fill-opacity:1.0000; stroke:none;fill-rule:evenodd;"
d="M 13.3738,5.4747
13.3738,3.9747
12.6738,3.9747
12.6738,5.4747
Z" /> 
<path style="fill:#4D7FC4; fill-opacity:1.0000; stroke:none;fill-rule:evenodd;"
d="M 20.1429,10.7050
20.0855,10.7164
20.0368,10.7489
20.0043,10.7976
19.9929,10.8550
19.9929,12.5050
20.0043,12.5624
20.0368,12.6111
20.0855,12.6436
20.1429,12.6550
20.4429,12.6550
20.5003,12.6436
20.5490,12.6111
20.5815,12.5624
20.5929,12.5050
20.5929,10.8550
20.5815,10.7976
20.5490,10.7489
20.5003,10.7164
20.4429,10.7050
Z" /> 
<path style="fill:#4D7FC4; fill-opacity:1.0000; stroke:none;fill-rule:evenodd;"
d="M 18.8729,10.7050
18.8155,10.7164
18.7668,10.7489
18.7343,10.7976
18.7229,10.8550
18.7229,12.5050
18.7343,12.5624
18.7668,12.6111
18.8155,12.6436
18.8729,12.6550
19.1729,12.6550
19.2303,12.6436
19.2790,12.6111
19.3115,12.5624
19.3229,12.5050
19.3229,10.8550
19.3115,10.7976
19.2790,10.7489
19.2303,10.7164
19.1729,10.7050
Z" /> 
<path style="fill:#4D7FC4; fill-opacity:1.0000; stroke:none;fill-rule:evenodd;"
d="M 17.6029,10.7050
17.5455,10.7164
17.4968,10.7489
17.4643,10.7976
17.4529,10.8550
17.4529,12.5050
17.4643,12.5624
17.4968,12.6111
17.5455,12.6436
17.6029,12.6550
17.9029,12.6550
17.9603,12.6436
18.0090,12.6111
18.0415,12.5624
18.0529,12.5050
18.0529,10.8550
18.0415,10.7976
18.0090,10.7489
17.9603,10.7164
17.9029,10.7050
Z" /> 
<path style="fill:#4D7FC4; fill-opacity:1.0000; stroke:none;fill-rule:evenodd;"
d="M 16.3329,10.7050
16.2755,10.7164
16.2268,10.7489
16.1943,10.7976
16.1829,10.8550
16.1829,12.5050
16.1943,12.5624
16.2268,12.6111
16.2755,12.6436
16.3329,12.6550
16.6329,12.6550
16.6903,12.6436
16.7390,12.6111
16.7715,12.5624
16.7829,12.5050
16.7829,10.8550
16.7715,10.7976
16.7390,10.7489
16.6903,10.7164
16.6329,10.7050
Z" /> 
<path style="fill:#4D7FC4; fill-opacity:1.0000; stroke:none;fill-rule:evenodd;"
d="M 15.0629,10.7050
15.0055,10.7164
14.9568,10.7489
14.9243,10.7976
14.9129,10.8550
14.9129,12.5050
14.9243,12.5624
14.9568,12.6111
15.0055,12.6436
15.0629,12.6550
15.3629,12.6550
15.4203,12.6436
15.4690,12.6111
15.5015,12.5624
15.5129,12.5050
15.5129,10.8550
15.5015,10.7976
15.4690,10.7489
15.4203,10.7164
15.3629,10.7050
Z" /> 
<path style="fill:#4D7FC4; fill-opacity:1.0000; stroke:none;fill-rule:evenodd;"
d="M 13.7929,10.7050
13.7355,10.7164
13.6868,10.7489
13.6543,10.7976
13.6429,10.8550
13.6429,12.5050
13.6543,12.5624
13.6868,12.6111
13.7355,12.6436
13.7929,12.6550
14.0929,12.6550
14.1503,12.6436
14.1990,12.6111
14.2315,12.5624
14.2429,12.5050
14.2429,10.8550
14.2315,10.7976
14.1990,10.7489
14.1503,10.7164
14.0929,10.7050
Z" /> 
<path style="fill:#4D7FC4; fill-opacity:1.0000; stroke:none;fill-rule:evenodd;"
d="M 12.5229,10.7050
12.4655,10.7164
12.4168,10.7489
12.3843,10.7976
12.3729,10.8550
12.3729,12.5050
12.3843,12.5624
12.4168,12.6111
12.4655,12.6436
12.5229,12.6550
12.8229,12.6550
12.8803,12.6436
12.9290,12.6111
12.9615,12.5624
12.9729,12.5050
12.9729,10.8550
12.9615,10.7976
12.9290,10.7489
12.8803,10.7164
12.8229,10.7050
Z" /> 
<path style="fill:#4D7FC4; fill-opacity:1.0000; stroke:none;fill-rule:evenodd;"
d="M 12.5229,15.6550
12.4655,15.6664
12.4168,15.6989
12.3843,15.7476
12.3729,15.8050
12.3729,17.4550
12.3843,17.5124
12.4168,17.5611
12.4655,17.5936
12.5229,17.6050
12.8229,17.6050
12.8803,17.5936
12.9290,17.5611
12.9615,17.5124
12.9729,17.4550
12.9729,15.8050
12.9615,15.7476
12.9290,15.6989
12.8803,15.6664
12.8229,15.6550
Z" /> 
<path style="fill:#4D7FC4; fill-opacity:1.0000; stroke:none;fill-rule:evenodd;"
d="M 13.7929,15.6550
13.7355,15.6664
13.6868,15.6989
13.6543,15.7476
13.6429,15.8050
13.6429,17.4550
13.6543,17.5124
13.6868,17.5611
13.7355,17.5936
13.7929,17.6050
14.0929,17.6050
14.1503,17.5936
14.1990,17.5611
14.2315,17.5124
14.2429,17.4550
14.2429,15.8050
14.2315,15.7476
14.1990,15.6989
14.1503,15.6664
14.0929,15.6550
Z" /> 
<path style="fill:#4D7FC4; fill-opacity:1.0000; stroke:none;fill-rule:evenodd;"
d="M 15.0629,15.6550
15.0055,15.6664
14.9568,15.6989
14.9243,15.7476
14.9129,15.8050
14.9129,17.4550
14.9243,17.5124
14.9568,17.5611
15.0055,17.5936
15.0629,17.6050
15.3629,17.6050
15.4203,17.5936
15.4690,17.5611
15.5015,17.5124
15.5129,17.4550
15.5129,15.8050
15.5015,15.7476
15.4690,15.6989
15.4203,15.6664
15.3629,15.6550
Z" /> 
<path style="fill:#4D7FC4; fill-opacity:1.0000; stroke:none;fill-rule:evenodd;"
d="M 16.3329,15.6550
16.2755,15.6664
16.2268,15.6989
16.1943,15.7476
16.1829,15.8050
16.1829,17.4550
16.1943,17.5124
16.2268,17.5611
16.2755,17.5936
16.3329,17.6050
16.6329,17.6050
16.6903,17.5936
16.7390,17.5611
16.7715,17.5124
16.7829,17.4550
16.7829,15.8050
16.7715,15.7476
16.7390,15.6989
16.6903,15.6664
16.6329,15.6550
Z" /> 
<path style="fill:#4D7FC4; fill-opacity:1.0000; stroke:none;fill-rule:evenodd;"
d="M 17.6029,15.6550
17.5455,15.6664
17.4968,15.6989
17.4643,15.7476
17.4529,15.8050
17.4529,17.4550
17.4643,17.5124
17.4968,17.5611
17.5455,17.5936
17.6029,17.6050
17.9029,17.6050
17.9603,17.5936
18.0090,17.5611
18.0415,17.5124
18.0529,17.4550
18.0529,15.8050
18.0415,15.7476
18.0090,15.6989
17.9603,15.6664
17.9029,15.6550
Z" /> 
<path style="fill:#4D7FC4; fill-opacity:1.0000; stroke:none;fill-rule:evenodd;"
d="M 18.8729,15.6550
18.8155,15.6664
18.7668,15.6989
18.7343,15.7476
18.7229,15.8050
18.7229,17.4550
18.7343,17.5124
18.7668,17.5611
18.8155,17.5936
18.8729,17.6050
19.1729,17.6050
19.2303,17.5936
19.2790,17.5611
19.3115,17.5124
19.3229,17.4550
19.3229,15.8050
19.3115,15.7476
19.2790,15.6989
19.2303,15.6664
19.1729,15.6550
Z" /> 
<path style="fill:#4D7FC4; fill-opacity:1.0000; stroke:none;fill-rule:evenodd;"
d="M 20.1429,15.6550
20.0855,15.6664
20.0368,15.6989
20.0043,15.7476
19.9929,15.8050
19.9929,17.4550
20.0043,17.5124
20.0368,17.5611
20.0855,17.5936
20.1429,17.6050
20.4429,17.6050
20.5003,17.5936
20.5490,17.5611
20.5815,17.5124
20.5929,17.4550
20.5929,15.8050
20.5815,15.7476
20.5490,15.6989
20.5003,15.6664
20.4429,15.6550
Z" /> 
<path style="fill:#4D7FC4; fill-opacity:1.0000; stroke:none;fill-rule:evenodd;"
d="M 21.8346,11.4790
21.7389,11.4980
21.6578,11.5522
21.6036,11.6333
21.5846,11.7290
21.5846,12.2290
21.6036,12.3247
21.6578,12.4058
21.7389,12.4600
21.8346,12.4790
22.7846,12.4790
22.8803,12.4600
22.9614,12.4058
23.0156,12.3247
23.0346,12.2290
23.0346,11.7290
23.0156,11.6333
22.9614,11.5522
22.8803,11.4980
22.7846,11.4790
Z" /> 
<path style="fill:#4D7FC4; fill-opacity:1.0000; stroke:none;fill-rule:evenodd;"
d="M 21.8346,13.3790
21.7389,13.3980
21.6578,13.4522
21.6036,13.5333
21.5846,13.6290
21.5846,14.1290
21.6036,14.2247
21.6578,14.3058
21.7389,14.3600
21.8346,14.3790
22.7846,14.3790
22.8803,14.3600
22.9614,14.3058
23.0156,14.2247
23.0346,14.1290
23.0346,13.6290
23.0156,13.5333
22.9614,13.4522
22.8803,13.3980
22.7846,13.3790
Z" /> 
<path style="fill:#4D7FC4; fill-opacity:1.0000; stroke:none;fill-rule:evenodd;"
d="M 1.4106,20.2810
3.1106,20.2810
3.1106,18.5810
1.4106,18.5810
Z" /> 
</g>
<g style="fill:#4D7FC4; fill-opacity:1.0000; stroke:none;">
<circle cx="2.2606" cy="16.8910" r="0.8500" /> 
<circle cx="4.8006" cy="19.4310" r="0.8500" /> 
<circle cx="4.8006" cy="16.8910" r="0.8500" /> 
<circle cx="7.3406" cy="19.4310" r="0.8500" /> 
<circle cx="7.3406" cy="16.8910" r="0.8500" /> 
<path style="fill:#4D7FC4; fill-opacity:1.0000; stroke:none;fill-rule:evenodd;"
d="M 16.9780,8.6554
16.9969,8.7506
17.0509,8.8313
17.1316,8.8853
17.2268,8.9042
17.7492,8.9042
17.8444,8.8853
17.9251,8.8313
17.9791,8.7506
17.9980,8.6554
17.9980,7.7530
17.9791,7.6578
17.9251,7.5771
17.8444,7.5231
17.7492,7.5042
17.2268,7.5042
17.1316,7.5231
17.0509,7.5771
16.9969,7.6578
16.9780,7.7530
Z" /> 
<path style="fill:#4D7FC4; fill-opacity:1.0000; stroke:none;fill-rule:evenodd;"
d="M 18.7980,8.6554
18.8169,8.7506
18.8709,8.8313
18.9516,8.8853
19.0468,8.9042
19.5692,8.9042
19.6644,8.8853
19.7451,8.8313
19.7991,8.7506
19.8180,8.6554
19.8180,7.7530
19.7991,7.6578
19.7451,7.5771
19.6644,7.5231
19.5692,7.5042
19.0468,7.5042
18.9516,7.5231
18.8709,7.5771
18.8169,7.6578
18.7980,7.7530
Z" /> 
</g>
<g style="fill:none; 
stroke:#E8B2A7; stroke-width:0.1750; stroke-opacity:1; 
stroke-linecap:round; stroke-linejoin:round;">
<text x="16.5946" y="6.7818"
transform="scale(-1 1) translate(-33.189200 0)"
textLength="3.0517" font-size="0.9333" lengthAdjust="spacingAndGlyphs"
text-anchor="start" opacity="0" stroke-opacity="0">Calib</text>
<g class="stroked-text"><desc>Calib</desc>
<path d="M15.9128 6.6204
L15.9461 6.6537
" />
<path d="M15.9461 6.6537
L16.0461 6.6870
" />
<path d="M16.0461 6.6870
L16.1128 6.6870
" />
<path d="M16.1128 6.6870
L16.2128 6.6537
" />
<path d="M16.2128 6.6537
L16.2795 6.5870
" />
<path d="M16.2795 6.5870
L16.3128 6.5204
" />
<path d="M16.3128 6.5204
L16.3461 6.3870
" />
<path d="M16.3461 6.3870
L16.3461 6.2870
" />
<path d="M16.3461 6.2870
L16.3128 6.1537
" />
<path d="M16.3128 6.1537
L16.2795 6.0870
" />
<path d="M16.2795 6.0870
L16.2128 6.0204
" />
<path d="M16.2128 6.0204
L16.1128 5.9870
" />
<path d="M16.1128 5.9870
L16.0461 5.9870
" />
<path d="M16.0461 5.9870
L15.9461 6.0204
" />
<path d="M15.9461 6.0204
L15.9128 6.0537
" />
<path d="M15.3128 6.6870
L15.3128 6.3204
" />
<path d="M15.3128 6.3204
L15.3461 6.2537
" />
<path d="M15.3461 6.2537
L15.4128 6.2204
" />
<path d="M15.4128 6.2204
L15.5461 6.2204
" />
<path d="M15.5461 6.2204
L15.6128 6.2537
" />
<path d="M15.3128 6.6537
L15.3795 6.6870
" />
<path d="M15.3795 6.6870
L15.5461 6.6870
" />
<path d="M15.5461 6.6870
L15.6128 6.6537
" />
<path d="M15.6128 6.6537
L15.6461 6.5870
" />
<path d="M15.6461 6.5870
L15.6461 6.5204
" />
<path d="M15.6461 6.5204
L15.6128 6.4537
" />
<path d="M15.6128 6.4537
L15.5461 6.4204
" />
<path d="M15.5461 6.4204
L15.3795 6.4204
" />
<path d="M15.3795 6.4204
L15.3128 6.3870
" />
<path d="M14.8795 6.6870
L14.9461 6.6537
" />
<path d="M14.9461 6.6537
L14.9795 6.5870
" />
<path d="M14.9795 6.5870
L14.9795 5.9870
" />
<path d="M14.6128 6.6870
L14.6128 6.2204
" />
<path d="M14.6128 5.9870
L14.6461 6.0204
" />
<path d="M14.6461 6.0204
L14.6128 6.0537
" />
<path d="M14.6128 6.0537
L14.5795 6.0204
" />
<path d="M14.5795 6.0204
L14.6128 5.9870
" />
<path d="M14.6128 5.9870
L14.6128 6.0537
" />
<path d="M14.2795 6.6870
L14.2795 5.9870
" />
<path d="M14.2795 6.2537
L14.2128 6.2204
" />
<path d="M14.2128 6.2204
L14.0795 6.2204
" />
<path d="M14.0795 6.2204
L14.0128 6.2537
" />
<path d="M14.0128 6.2537
L13.9795 6.2870
" />
<path d="M13.9795 6.2870
L13.9461 6.3537
" />
<path d="M13.9461 6.3537
L13.9461 6.5537
" />
<path d="M13.9461 6.5537
L13.9795 6.6204
" />
<path d="M13.9795 6.6204
L14.0128 6.6537
" />
<path d="M14.0128 6.6537
L14.0795 6.6870
" />
<path d="M14.0795 6.6870
L14.2128 6.6870
" />
<path d="M14.2128 6.6870
L14.2795 6.6537
" />
</g></g>
<g style="fill:none; 
stroke:#E8B2A7; stroke-width:0.2540; stroke-opacity:1; 
stroke-linecap:round; stroke-linejoin:round;">
<text x="15.5795" y="3.6687"
textLength="2.9270" font-size="1.6933" lengthAdjust="spacingAndGlyphs"
text-anchor="middle" opacity="0" stroke-opacity="0">S1</text>
<g class="stroked-text"><desc>S1</desc>
<path d="M14.6119 3.5475
L14.7933 3.6080
" />
<path d="M14.7933 3.6080
L15.0957 3.6080
" />
<path d="M15.0957 3.6080
L15.2166 3.5475
" />
<path d="M15.2166 3.5475
L15.2771 3.4870
" />
<path d="M15.2771 3.4870
L15.3376 3.3661
" />
<path d="M15.3376 3.3661
L15.3376 3.2451
" />
<path d="M15.3376 3.2451
L15.2771 3.1242
" />
<path d="M15.2771 3.1242
L15.2166 3.0637
" />
<path d="M15.2166 3.0637
L15.0957 3.0032
" />
<path d="M15.0957 3.0032
L14.8538 2.9427
" />
<path d="M14.8538 2.9427
L14.7328 2.8823
" />
<path d="M14.7328 2.8823
L14.6723 2.8218
" />
<path d="M14.6723 2.8218
L14.6119 2.7008
" />
<path d="M14.6119 2.7008
L14.6119 2.5799
" />
<path d="M14.6119 2.5799
L14.6723 2.4589
" />
<path d="M14.6723 2.4589
L14.7328 2.3985
" />
<path d="M14.7328 2.3985
L14.8538 2.3380
" />
<path d="M14.8538 2.3380
L15.1561 2.3380
" />
<path d="M15.1561 2.3380
L15.3376 2.3985
" />
<path d="M16.5471 3.6080
L15.8214 3.6080
" />
<path d="M16.1842 3.6080
L16.1842 2.3380
" />
<path d="M16.1842 2.3380
L16.0633 2.5194
" />
<path d="M16.0633 2.5194
L15.9423 2.6404
" />
<path d="M15.9423 2.6404
L15.8214 2.7008
" />
</g></g>
<g style="fill:none; 
stroke:#E8B2A7; stroke-width:0.1500; stroke-opacity:1; 
stroke-linecap:round; stroke-linejoin:round;">
<g transform="rotate(90.000000 21.8016 16.4084)">
<text x="21.8016" y="16.9084"
textLength="2.2500" font-size="1.3333" lengthAdjust="spacingAndGlyphs"
text-anchor="middle" opacity="0" stroke-opacity="0">U1</text>
</g>
<g class="stroked-text"><desc>U1</desc>
<path d="M22.3468 15.6465
L21.5373 15.6465
" />
<path d="M21.5373 15.6465
L21.4420 15.6941
" />
<path d="M21.4420 15.6941
L21.3944 15.7417
" />
<path d="M21.3944 15.7417
L21.3468 15.8370
" />
<path d="M21.3468 15.8370
L21.3468 16.0274
" />
<path d="M21.3468 16.0274
L21.3944 16.1227
" />
<path d="M21.3944 16.1227
L21.4420 16.1703
" />
<path d="M21.4420 16.1703
L21.5373 16.2179
" />
<path d="M21.5373 16.2179
L22.3468 16.2179
" />
<path d="M21.3468 17.2179
L21.3468 16.6465
" />
<path d="M21.3468 16.9322
L22.3468 16.9322
" />
<path d="M22.3468 16.9322
L22.2039 16.8370
" />
<path d="M22.2039 16.8370
L22.1087 16.7417
" />
<path d="M22.1087 16.7417
L22.0611 16.6465
" />
</g></g>
<g style="fill:none; 
stroke:#E8B2A7; stroke-width:0.2540; stroke-opacity:1; 
stroke-linecap:round; stroke-linejoin:round;">
<path d="M18.6238 1.6747
L18.6238 4.2747
" />
<path d="M16.9775 4.2747
L15.1285 4.2747
" />
<path d="M15.1738 0.1747
L13.8738 0.1747
" />
<path d="M15.1738 1.6747
L15.1738 0.1747
" />
<path d="M13.8738 0.1747
L13.8738 1.6747
" />
<path d="M11.9238 1.6747
L18.6238 1.6747
" />
<path d="M11.9238 4.2747
L11.9238 1.6747
" />
<circle cx="18.2941" cy="5.6133" r="0.1810" /> 
</g>
<g style="fill:none; 
stroke:#E8B2A7; stroke-width:0.1200; stroke-opacity:1; 
stroke-linecap:round; stroke-linejoin:round;">
<path d="M20.9179 12.0950
L20.9179 16.2150
" />
<path d="M20.9179 16.2150
L20.8529 16.2150
" />
<path d="M20.8529 12.0950
L20.9179 12.0950
" />
<path d="M12.1129 16.2150
L12.0479 16.2150
" />
<path d="M12.0479 12.0950
L12.1129 12.0950
" />
<path d="M12.0479 16.2150
L12.0479 12.0950
" />
<path style="fill:#E8B2A7; fill-opacity:1.0000; 
stroke:#E8B2A7; stroke-width:0.1200; stroke-opacity:1; 
stroke-linecap:round; stroke-linejoin:round;fill-rule:evenodd;"
d="M 20.8529,11.5550
21.1829,11.7950
21.1829,11.3150
Z" /> 
<path style="fill:#02FFEE; fill-opacity:0.4000; stroke:none;fill-rule:evenodd;"
d="M 31.8670,1.3154
31.8480,1.2197
31.7938,1.1386
31.7127,1.0844
31.6170,1.0654
31.0870,1.0654
30.9913,1.0844
30.9102,1.1386
30.8560,1.2197
30.8370,1.3154
30.8370,2.5454
30.8560,2.6411
30.9102,2.7222
30.9913,2.7764
31.0870,2.7954
31.6170,2.7954
31.7127,2.7764
31.7938,2.7222
31.8480,2.6411
31.8670,2.5454
Z" /> 
</g>
<g style="fill:none; 
stroke:#02FFEE; stroke-width:1.0300; stroke-opacity:1; 
stroke-linecap:round; stroke-linejoin:round;">
<path d="M29.8520 1.5804
L29.8520 2.2804
" />
<path d="M28.3520 1.5804
L28.3520 2.2804
" />
<path d="M26.8520 1.5804
L26.8520 2.2804
" />
<path d="M25.3520 1.5804
L25.3520 2.2804
" />
<path d="M23.8520 1.5804
L23.8520 2.2804
" />
</g>
<g style="fill:none; 
stroke:#02FFEE; stroke-width:1.2000; stroke-opacity:1; 
stroke-linecap:round; stroke-linejoin:round;">
<path d="M3.7538 1.3304
L3.7538 2.5304
" />
<path d="M1.3038 1.3304
L1.3038 2.5304
" />
</g>
<g style="fill:#02FFEE; fill-opacity:0.4000; stroke:none;">
<circle cx="25.2348" cy="11.6916" r="0.9000" /> 
<circle cx="25.2348" cy="14.2316" r="0.9000" /> 
<circle cx="25.2348" cy="16.7716" r="0.9000" /> 
<circle cx="19.0448" cy="22.9516" r="0.9000" /> 
<circle cx="16.5048" cy="22.9516" r="0.9000" /> 
<circle cx="13.9648" cy="22.9516" r="0.9000" /> 
<circle cx="10.1748" cy="19.2216" r="1.2500" /> 
<circle cx="10.1748" cy="9.2316" r="1.2500" /> 
<circle cx="22.8248" cy="9.2316" r="1.2500" /> 
<circle cx="22.8248" cy="19.2216" r="1.2500" /> 
</g>
<g style="fill:none; 
stroke:#02FFEE; stroke-width:1.2000; stroke-opacity:1; 
stroke-linecap:round; stroke-linejoin:round;">
<path d="M10.4224 1.3558
L10.4224 2.5558
" />
</g>
<g style="fill:#02FFEE; fill-opacity:0.4000; stroke:none;">
<circle cx="16.7738" cy="2.9747" r="0.4500" /> 
<circle cx="13.7738" cy="2.9747" r="0.4500" /> 
<path style="fill:#02FFEE; fill-opacity:0.4000; stroke:none;fill-rule:evenodd;"
d="M 17.8738,5.4747
17.8738,3.9747
17.1738,3.9747
17.1738,5.4747
Z" /> 
<path style="fill:#02FFEE; fill-opacity:0.4000; stroke:none;fill-rule:evenodd;"
d="M 14.8738,5.4747
14.8738,3.9747
14.1738,3.9747
14.1738,5.4747
Z" /> 
<path style="fill:#02FFEE; fill-opacity:0.4000; stroke:none;fill-rule:evenodd;"
d="M 13.3738,5.4747
13.3738,3.9747
12.6738,3.9747
12.6738,5.4747
Z" /> 
<path style="fill:#02FFEE; fill-opacity:0.4000; stroke:none;fill-rule:evenodd;"
d="M 20.1429,10.7050
20.0855,10.7164
20.0368,10.7489
20.0043,10.7976
19.9929,10.8550
19.9929,12.5050
20.0043,12.5624
20.0368,12.6111
20.0855,12.6436
20.1429,12.6550
20.4429,12.6550
20.5003,12.6436
20.5490,12.6111
20.5815,12.5624
20.5929,12.5050
20.5929,10.8550
20.5815,10.7976
20.5490,10.7489
20.5003,10.7164
20.4429,10.7050
Z" /> 
<path style="fill:#02FFEE; fill-opacity:0.4000; stroke:none;fill-rule:evenodd;"
d="M 18.8729,10.7050
18.8155,10.7164
18.7668,10.7489
18.7343,10.7976
18.7229,10.8550
18.7229,12.5050
18.7343,12.5624
18.7668,12.6111
18.8155,12.6436
18.8729,12.6550
19.1729,12.6550
19.2303,12.6436
19.2790,12.6111
19.3115,12.5624
19.3229,12.5050
19.3229,10.8550
19.3115,10.7976
19.2790,10.7489
19.2303,10.7164
19.1729,10.7050
Z" /> 
<path style="fill:#02FFEE; fill-opacity:0.4000; stroke:none;fill-rule:evenodd;"
d="M 17.6029,10.7050
17.5455,10.7164
17.4968,10.7489
17.4643,10.7976
17.4529,10.8550
17.4529,12.5050
17.4643,12.5624
17.4968,12.6111
17.5455,12.6436
17.6029,12.6550
17.9029,12.6550
17.9603,12.6436
18.0090,12.6111
18.0415,12.5624
18.0529,12.5050
18.0529,10.8550
18.0415,10.7976
18.0090,10.7489
17.9603,10.7164
17.9029,10.7050
Z" /> 
<path style="fill:#02FFEE; fill-opacity:0.4000; stroke:none;fill-rule:evenodd;"
d="M 16.3329,10.7050
16.2755,10.7164
16.2268,10.7489
16.1943,10.7976
16.1829,10.8550
16.1829,12.5050
16.1943,12.5624
16.2268,12.6111
16.2755,12.6436
16.3329,12.6550
16.6329,12.6550
16.6903,12.6436
16.7390,12.6111
16.7715,12.5624
16.7829,12.5050
16.7829,10.8550
16.7715,10.7976
16.7390,10.7489
16.6903,10.7164
16.6329,10.7050
Z" /> 
<path style="fill:#02FFEE; fill-opacity:0.4000; stroke:none;fill-rule:evenodd;"
d="M 15.0629,10.7050
15.0055,10.7164
14.9568,10.7489
14.9243,10.7976
14.9129,10.8550
14.9129,12.5050
14.9243,12.5624
14.9568,12.6111
15.0055,12.6436
15.0629,12.6550
15.3629,12.6550
15.4203,12.6436
15.4690,12.6111
15.5015,12.5624
15.5129,12.5050
15.5129,10.8550
15.5015,10.7976
15.4690,10.7489
15.4203,10.7164
15.3629,10.7050
Z" /> 
<path style="fill:#02FFEE; fill-opacity:0.4000; stroke:none;fill-rule:evenodd;"
d="M 13.7929,10.7050
13.7355,10.7164
13.6868,10.7489
13.6543,10.7976
13.6429,10.8550
13.6429,12.5050
13.6543,12.5624
13.6868,12.6111
13.7355,12.6436
13.7929,12.6550
14.0929,12.6550
14.1503,12.6436
14.1990,12.6111
14.2315,12.5624
14.2429,12.5050
14.2429,10.8550
14.2315,10.7976
14.1990,10.7489
14.1503,10.7164
14.0929,10.7050
Z" /> 
<path style="fill:#02FFEE; fill-opacity:0.4000; stroke:none;fill-rule:evenodd;"
d="M 12.5229,10.7050
12.4655,10.7164
12.4168,10.7489
12.3843,10.7976
12.3729,10.8550
12.3729,12.5050
12.3843,12.5624
12.4168,12.6111
12.4655,12.6436
12.5229,12.6550
12.8229,12.6550
12.8803,12.6436
12.9290,12.6111
12.9615,12.5624
12.9729,12.5050
12.9729,10.8550
12.9615,10.7976
12.9290,10.7489
12.8803,10.7164
12.8229,10.7050
Z" /> 
<path style="fill:#02FFEE; fill-opacity:0.4000; stroke:none;fill-rule:evenodd;"
d="M 12.5229,15.6550
12.4655,15.6664
12.4168,15.6989
12.3843,15.7476
12.3729,15.8050
12.3729,17.4550
12.3843,17.5124
12.4168,17.5611
12.4655,17.5936
12.5229,17.6050
12.8229,17.6050
12.8803,17.5936
12.9290,17.5611
12.9615,17.5124
12.9729,17.4550
12.9729,15.8050
12.9615,15.7476
12.9290,15.6989
12.8803,15.6664
12.8229,15.6550
Z" /> 
<path style="fill:#02FFEE; fill-opacity:0.4000; stroke:none;fill-rule:evenodd;"
d="M 13.7929,15.6550
13.7355,15.6664
13.6868,15.6989
13.6543,15.7476
13.6429,15.8050
13.6429,17.4550
13.6543,17.5124
13.6868,17.5611
13.7355,17.5936
13.7929,17.6050
14.0929,17.6050
14.1503,17.5936
14.1990,17.5611
14.2315,17.5124
14.2429,17.4550
14.2429,15.8050
14.2315,15.7476
14.1990,15.6989
14.1503,15.6664
14.0929,15.6550
Z" /> 
<path style="fill:#02FFEE; fill-opacity:0.4000; stroke:none;fill-rule:evenodd;"
d="M 15.0629,15.6550
15.0055,15.6664
14.9568,15.6989
14.9243,15.7476
14.9129,15.8050
14.9129,17.4550
14.9243,17.5124
14.9568,17.5611
15.0055,17.5936
15.0629,17.6050
15.3629,17.6050
15.4203,17.5936
15.4690,17.5611
15.5015,17.5124
15.5129,17.4550
15.5129,15.8050
15.5015,15.7476
15.4690,15.6989
15.4203,15.6664
15.3629,15.6550
Z" /> 
<path style="fill:#02FFEE; fill-opacity:0.4000; stroke:none;fill-rule:evenodd;"
d="M 16.3329,15.6550
16.2755,15.6664
16.2268,15.6989
16.1943,15.7476
16.1829,15.8050
16.1829,17.4550
16.1943,17.5124
16.2268,17.5611
16.2755,17.5936
16.3329,17.6050
16.6329,17.6050
16.6903,17.5936
16.7390,17.5611
16.7715,17.5124
16.7829,17.4550
16.7829,15.8050
16.7715,15.7476
16.7390,15.6989
16.6903,15.6664
16.6329,15.6550
Z" /> 
<path style="fill:#02FFEE; fill-opacity:0.4000; stroke:none;fill-rule:evenodd;"
d="M 17.6029,15.6550
17.5455,15.6664
17.4968,15.6989
17.4643,15.7476
17.4529,15.8050
17.4529,17.4550
17.4643,17.5124
17.4968,17.5611
17.5455,17.5936
17.6029,17.6050
17.9029,17.6050
17.9603,17.5936
18.0090,17.5611
18.0415,17.5124
18.0529,17.4550
18.0529,15.8050
18.0415,15.7476
18.0090,15.6989
17.9603,15.6664
17.9029,15.6550
Z" /> 
<path style="fill:#02FFEE; fill-opacity:0.4000; stroke:none;fill-rule:evenodd;"
d="M 18.8729,15.6550
18.8155,15.6664
18.7668,15.6989
18.7343,15.7476
18.7229,15.8050
18.7229,17.4550
18.7343,17.5124
18.7668,17.5611
18.8155,17.5936
18.8729,17.6050
19.1729,17.6050
19.2303,17.5936
19.2790,17.5611
19.3115,17.5124
19.3229,17.4550
19.3229,15.8050
19.3115,15.7476
19.2790,15.6989
19.2303,15.6664
19.1729,15.6550
Z" /> 
<path style="fill:#02FFEE; fill-opacity:0.4000; stroke:none;fill-rule:evenodd;"
d="M 20.1429,15.6550
20.0855,15.6664
20.0368,15.6989
20.0043,15.7476
19.9929,15.8050
19.9929,17.4550
20.0043,17.5124
20.0368,17.5611
20.0855,17.5936
20.1429,17.6050
20.4429,17.6050
20.5003,17.5936
20.5490,17.5611
20.5815,17.5124
20.5929,17.4550
20.5929,15.8050
20.5815,15.7476
20.5490,15.6989
20.5003,15.6664
20.4429,15.6550
Z" /> 
<path style="fill:#02FFEE; fill-opacity:0.4000; stroke:none;fill-rule:evenodd;"
d="M 21.8156,11.4410
21.7127,11.4615
21.6254,11.5198
21.5671,11.6071
21.5466,11.7100
21.5466,12.2480
21.5671,12.3509
21.6254,12.4382
21.7127,12.4965
21.8156,12.5170
22.8036,12.5170
22.9065,12.4965
22.9938,12.4382
23.0521,12.3509
23.0726,12.2480
23.0726,11.7100
23.0521,11.6071
22.9938,11.5198
22.9065,11.4615
22.8036,11.4410
Z" /> 
<path style="fill:#02FFEE; fill-opacity:0.4000; stroke:none;fill-rule:evenodd;"
d="M 21.8156,13.3410
21.7127,13.3615
21.6254,13.4198
21.5671,13.5071
21.5466,13.6100
21.5466,14.1480
21.5671,14.2509
21.6254,14.3382
21.7127,14.3965
21.8156,14.4170
22.8036,14.4170
22.9065,14.3965
22.9938,14.3382
23.0521,14.2509
23.0726,14.1480
23.0726,13.6100
23.0521,13.5071
22.9938,13.4198
22.9065,13.3615
22.8036,13.3410
Z" /> 
<path style="fill:#02FFEE; fill-opacity:0.4000; stroke:none;fill-rule:evenodd;"
d="M 1.4106,20.2810
3.1106,20.2810
3.1106,18.5810
1.4106,18.5810
Z" /> 
<circle cx="2.2606" cy="16.8910" r="0.8500" /> 
<circle cx="4.8006" cy="19.4310" r="0.8500" /> 
<circle cx="4.8006" cy="16.8910" r="0.8500" /> 
<circle cx="7.3406" cy="19.4310" r="0.8500" /> 
<circle cx="7.3406" cy="16.8910" r="0.8500" /> 
<path style="fill:#02FFEE; fill-opacity:0.4000; stroke:none;fill-rule:evenodd;"
d="M 16.9400,8.6749
16.9603,8.7772
17.0183,8.8639
17.1050,8.9219
17.2073,8.9422
17.7687,8.9422
17.8710,8.9219
17.9577,8.8639
18.0157,8.7772
18.0360,8.6749
18.0360,7.7335
18.0157,7.6312
17.9577,7.5445
17.8710,7.4865
17.7687,7.4662
17.2073,7.4662
17.1050,7.4865
17.0183,7.5445
16.9603,7.6312
16.9400,7.7335
Z" /> 
<path style="fill:#02FFEE; fill-opacity:0.4000; stroke:none;fill-rule:evenodd;"
d="M 18.7600,8.6749
18.7803,8.7772
18.8383,8.8639
18.9250,8.9219
19.0273,8.9422
19.5887,8.9422
19.6910,8.9219
19.7777,8.8639
19.8357,8.7772
19.8560,8.6749
19.8560,7.7335
19.8357,7.6312
19.7777,7.5445
19.6910,7.4865
19.5887,7.4662
19.0273,7.4662
18.9250,7.4865
18.8383,7.5445
18.7803,7.6312
18.7600,7.7335
Z" /> 
<path style="fill:#00C2C2; fill-opacity:0.9020; stroke:none;fill-rule:evenodd;"
d="M 17.8738,5.4747
17.8738,3.9747
17.1738,3.9747
17.1738,5.4747
Z" /> 
<path style="fill:#00C2C2; fill-opacity:0.9020; stroke:none;fill-rule:evenodd;"
d="M 14.8738,5.4747
14.8738,3.9747
14.1738,3.9747
14.1738,5.4747
Z" /> 
<path style="fill:#00C2C2; fill-opacity:0.9020; stroke:none;fill-rule:evenodd;"
d="M 13.3738,5.4747
13.3738,3.9747
12.6738,3.9747
12.6738,5.4747
Z" /> 
<path style="fill:#00C2C2; fill-opacity:0.9020; stroke:none;fill-rule:evenodd;"
d="M 20.1429,10.7050
20.0855,10.7164
20.0368,10.7489
20.0043,10.7976
19.9929,10.8550
19.9929,12.5050
20.0043,12.5624
20.0368,12.6111
20.0855,12.6436
20.1429,12.6550
20.4429,12.6550
20.5003,12.6436
20.5490,12.6111
20.5815,12.5624
20.5929,12.5050
20.5929,10.8550
20.5815,10.7976
20.5490,10.7489
20.5003,10.7164
20.4429,10.7050
Z" /> 
<path style="fill:#00C2C2; fill-opacity:0.9020; stroke:none;fill-rule:evenodd;"
d="M 18.8729,10.7050
18.8155,10.7164
18.7668,10.7489
18.7343,10.7976
18.7229,10.8550
18.7229,12.5050
18.7343,12.5624
18.7668,12.6111
18.8155,12.6436
18.8729,12.6550
19.1729,12.6550
19.2303,12.6436
19.2790,12.6111
19.3115,12.5624
19.3229,12.5050
19.3229,10.8550
19.3115,10.7976
19.2790,10.7489
19.2303,10.7164
19.1729,10.7050
Z" /> 
<path style="fill:#00C2C2; fill-opacity:0.9020; stroke:none;fill-rule:evenodd;"
d="M 17.6029,10.7050
17.5455,10.7164
17.4968,10.7489
17.4643,10.7976
17.4529,10.8550
17.4529,12.5050
17.4643,12.5624
17.4968,12.6111
17.5455,12.6436
17.6029,12.6550
17.9029,12.6550
17.9603,12.6436
18.0090,12.6111
18.0415,12.5624
18.0529,12.5050
18.0529,10.8550
18.0415,10.7976
18.0090,10.7489
17.9603,10.7164
17.9029,10.7050
Z" /> 
<path style="fill:#00C2C2; fill-opacity:0.9020; stroke:none;fill-rule:evenodd;"
d="M 16.3329,10.7050
16.2755,10.7164
16.2268,10.7489
16.1943,10.7976
16.1829,10.8550
16.1829,12.5050
16.1943,12.5624
16.2268,12.6111
16.2755,12.6436
16.3329,12.6550
16.6329,12.6550
16.6903,12.6436
16.7390,12.6111
16.7715,12.5624
16.7829,12.5050
16.7829,10.8550
16.7715,10.7976
16.7390,10.7489
16.6903,10.7164
16.6329,10.7050
Z" /> 
<path style="fill:#00C2C2; fill-opacity:0.9020; stroke:none;fill-rule:evenodd;"
d="M 15.0629,10.7050
15.0055,10.7164
14.9568,10.7489
14.9243,10.7976
14.9129,10.8550
14.9129,12.5050
14.9243,12.5624
14.9568,12.6111
15.0055,12.6436
15.0629,12.6550
15.3629,12.6550
15.4203,12.6436
15.4690,12.6111
15.5015,12.5624
15.5129,12.5050
15.5129,10.8550
15.5015,10.7976
15.4690,10.7489
15.4203,10.7164
15.3629,10.7050
Z" /> 
<path style="fill:#00C2C2; fill-opacity:0.9020; stroke:none;fill-rule:evenodd;"
d="M 13.7929,10.7050
13.7355,10.7164
13.6868,10.7489
13.6543,10.7976
13.6429,10.8550
13.6429,12.5050
13.6543,12.5624
13.6868,12.6111
13.7355,12.6436
13.7929,12.6550
14.0929,12.6550
14.1503,12.6436
14.1990,12.6111
14.2315,12.5624
14.2429,12.5050
14.2429,10.8550
14.2315,10.7976
14.1990,10.7489
14.1503,10.7164
14.0929,10.7050
Z" /> 
<path style="fill:#00C2C2; fill-opacity:0.9020; stroke:none;fill-rule:evenodd;"
d="M 12.5229,10.7050
12.4655,10.7164
12.4168,10.7489
12.3843,10.7976
12.3729,10.8550
12.3729,12.5050
12.3843,12.5624
12.4168,12.6111
12.4655,12.6436
12.5229,12.6550
12.8229,12.6550
12.8803,12.6436
12.9290,12.6111
12.9615,12.5624
12.9729,12.5050
12.9729,10.8550
12.9615,10.7976
12.9290,10.7489
12.8803,10.7164
12.8229,10.7050
Z" /> 
<path style="fill:#00C2C2; fill-opacity:0.9020; stroke:none;fill-rule:evenodd;"
d="M 12.5229,15.6550
12.4655,15.6664
12.4168,15.6989
12.3843,15.7476
12.3729,15.8050
12.3729,17.4550
12.3843,17.5124
12.4168,17.5611
12.4655,17.5936
12.5229,17.6050
12.8229,17.6050
12.8803,17.5936
12.9290,17.5611
12.9615,17.5124
12.9729,17.4550
12.9729,15.8050
12.9615,15.7476
12.9290,15.6989
12.8803,15.6664
12.8229,15.6550
Z" /> 
<path style="fill:#00C2C2; fill-opacity:0.9020; stroke:none;fill-rule:evenodd;"
d="M 13.7929,15.6550
13.7355,15.6664
13.6868,15.6989
13.6543,15.7476
13.6429,15.8050
13.6429,17.4550
13.6543,17.5124
13.6868,17.5611
13.7355,17.5936
13.7929,17.6050
14.0929,17.6050
14.1503,17.5936
14.1990,17.5611
14.2315,17.5124
14.2429,17.4550
14.2429,15.8050
14.2315,15.7476
14.1990,15.6989
14.1503,15.6664
14.0929,15.6550
Z" /> 
<path style="fill:#00C2C2; fill-opacity:0.9020; stroke:none;fill-rule:evenodd;"
d="M 15.0629,15.6550
15.0055,15.6664
14.9568,15.6989
14.9243,15.7476
14.9129,15.8050
14.9129,17.4550
14.9243,17.5124
14.9568,17.5611
15.0055,17.5936
15.0629,17.6050
15.3629,17.6050
15.4203,17.5936
15.4690,17.5611
15.5015,17.5124
15.5129,17.4550
15.5129,15.8050
15.5015,15.7476
15.4690,15.6989
15.4203,15.6664
15.3629,15.6550
Z" /> 
<path style="fill:#00C2C2; fill-opacity:0.9020; stroke:none;fill-rule:evenodd;"
d="M 16.3329,15.6550
16.2755,15.6664
16.2268,15.6989
16.1943,15.7476
16.1829,15.8050
16.1829,17.4550
16.1943,17.5124
16.2268,17.5611
16.2755,17.5936
16.3329,17.6050
16.6329,17.6050
16.6903,17.5936
16.7390,17.5611
16.7715,17.5124
16.7829,17.4550
16.7829,15.8050
16.7715,15.7476
16.7390,15.6989
16.6903,15.6664
16.6329,15.6550
Z" /> 
<path style="fill:#00C2C2; fill-opacity:0.9020; stroke:none;fill-rule:evenodd;"
d="M 17.6029,15.6550
17.5455,15.6664
17.4968,15.6989
17.4643,15.7476
17.4529,15.8050
17.4529,17.4550
17.4643,17.5124
17.4968,17.5611
17.5455,17.5936
17.6029,17.6050
17.9029,17.6050
17.9603,17.5936
18.0090,17.5611
18.0415,17.5124
18.0529,17.4550
18.0529,15.8050
18.0415,15.7476
18.0090,15.6989
17.9603,15.6664
17.9029,15.6550
Z" /> 
<path style="fill:#00C2C2; fill-opacity:0.9020; stroke:none;fill-rule:evenodd;"
d="M 18.8729,15.6550
18.8155,15.6664
18.7668,15.6989
18.7343,15.7476
18.7229,15.8050
18.7229,17.4550
18.7343,17.5124
18.7668,17.5611
18.8155,17.5936
18.8729,17.6050
19.1729,17.6050
19.2303,17.5936
19.2790,17.5611
19.3115,17.5124
19.3229,17.4550
19.3229,15.8050
19.3115,15.7476
19.2790,15.6989
19.2303,15.6664
19.1729,15.6550
Z" /> 
<path style="fill:#00C2C2; fill-opacity:0.9020; stroke:none;fill-rule:evenodd;"
d="M 20.1429,15.6550
20.0855,15.6664
20.0368,15.6989
20.0043,15.7476
19.9929,15.8050
19.9929,17.4550
20.0043,17.5124
20.0368,17.5611
20.0855,17.5936
20.1429,17.6050
20.4429,17.6050
20.5003,17.5936
20.5490,17.5611
20.5815,17.5124
20.5929,17.4550
20.5929,15.8050
20.5815,15.7476
20.5490,15.6989
20.5003,15.6664
20.4429,15.6550
Z" /> 
<path style="fill:#00C2C2; fill-opacity:0.9020; stroke:none;fill-rule:evenodd;"
d="M 21.8346,11.4790
21.7389,11.4980
21.6578,11.5522
21.6036,11.6333
21.5846,11.7290
21.5846,12.2290
21.6036,12.3247
21.6578,12.4058
21.7389,12.4600
21.8346,12.4790
22.7846,12.4790
22.8803,12.4600
22.9614,12.4058
23.0156,12.3247
23.0346,12.2290
23.0346,11.7290
23.0156,11.6333
22.9614,11.5522
22.8803,11.4980
22.7846,11.4790
Z" /> 
<path style="fill:#00C2C2; fill-opacity:0.9020; stroke:none;fill-rule:evenodd;"
d="M 21.8346,13.3790
21.7389,13.3980
21.6578,13.4522
21.6036,13.5333
21.5846,13.6290
21.5846,14.1290
21.6036,14.2247
21.6578,14.3058
21.7389,14.3600
21.8346,14.3790
22.7846,14.3790
22.8803,14.3600
22.9614,14.3058
23.0156,14.2247
23.0346,14.1290
23.0346,13.6290
23.0156,13.5333
22.9614,13.4522
22.8803,13.3980
22.7846,13.3790
Z" /> 
<path style="fill:#00C2C2; fill-opacity:0.9020; stroke:none;fill-rule:evenodd;"
d="M 16.9780,8.6554
16.9969,8.7506
17.0509,8.8313
17.1316,8.8853
17.2268,8.9042
17.7492,8.9042
17.8444,8.8853
17.9251,8.8313
17.9791,8.7506
17.9980,8.6554
17.9980,7.7530
17.9791,7.6578
17.9251,7.5771
17.8444,7.5231
17.7492,7.5042
17.2268,7.5042
17.1316,7.5231
17.0509,7.5771
16.9969,7.6578
16.9780,7.7530
Z" /> 
<path style="fill:#00C2C2; fill-opacity:0.9020; stroke:none;fill-rule:evenodd;"
d="M 18.7980,8.6554
18.8169,8.7506
18.8709,8.8313
18.9516,8.8853
19.0468,8.9042
19.5692,8.9042
19.6644,8.8853
19.7451,8.8313
19.7991,8.7506
19.8180,8.6554
19.8180,7.7530
19.7991,7.6578
19.7451,7.5771
19.6644,7.5231
19.5692,7.5042
19.0468,7.5042
18.9516,7.5231
18.8709,7.5771
18.8169,7.6578
18.7980,7.7530
Z" /> 
</g>
<g style="fill:none; 
stroke:#D0D2CD; stroke-width:0.2500; stroke-opacity:1; 
stroke-linecap:round; stroke-linejoin:round;">
<circle cx="29.2441" cy="14.0495" r="1.1000" /> 
<path d="M11.8768 1.4948
L11.8959 1.4986
" />
<path d="M18.7455 1.4486
L18.7455 0.0000
" />
<circle cx="25.4951" cy="5.0478" r="1.3000" /> 
<circle cx="7.4941" cy="23.0488" r="1.3000" /> 
<path d="M18.6955 1.4986
L18.7146 1.4948
" />
<path d="M32.9946 20.4773
L26.9730 26.4989
" />
<path d="M11.8459 0.0000
L11.8459 1.4486
" />
<path d="M11.8959 1.4986
L18.6955 1.4986
" />
<path d="M18.7417 1.4677
L18.7455 1.4486
" />
<path d="M6.0162 26.4989
L-0.0054 20.4773
" />
<path d="M-0.0054 20.4773
L-0.0054 0.0000
" />
<path d="M18.7146 1.4948
L18.7417 1.4677
" />
<path d="M18.7455 0.0000
L32.9946 0.0000
" />
<circle cx="25.4951" cy="23.0488" r="1.3000" /> 
<path d="M-0.0054 0.0000
L11.8459 0.0000
" />
<circle cx="7.4941" cy="5.0478" r="1.3000" /> 
<path d="M26.9730 26.4989
L6.0162 26.4989
" />
<path d="M32.9946 0.0000
L32.9946 20.4773
" />
<circle cx="3.7451" cy="14.0495" r="1.1000" /> 
<path d="M11.8497 1.4677
L11.8768 1.4948
" />
<path d="M11.8459 1.4486
L11.8497 1.4677
" />
</g>
<g style="fill:#FFFFFF; fill-opacity:1.0000; stroke:none;">
<circle cx="31.3520" cy="1.9304" r="0.3650" /> 
</g>
<g style="fill:#FFFFFF; fill-opacity:1.0000; stroke:none;">
<circle cx="29.8520" cy="1.9304" r="0.3650" /> 
</g>
<g style="fill:#FFFFFF; fill-opacity:1.0000; stroke:none;">
<circle cx="28.3520" cy="1.9304" r="0.3650" /> 
</g>
<g style="fill:#FFFFFF; fill-opacity:1.0000; stroke:none;">
<circle cx="26.8520" cy="1.9304" r="0.3650" /> 
</g>
<g style="fill:#FFFFFF; fill-opacity:1.0000; stroke:none;">
<circle cx="25.3520" cy="1.9304" r="0.3650" /> 
</g>
<g style="fill:#FFFFFF; fill-opacity:1.0000; stroke:none;">
<circle cx="23.8520" cy="1.9304" r="0.3650" /> 
</g>
<g style="fill:#FFFFFF; fill-opacity:1.0000; stroke:none;">
<circle cx="3.7538" cy="1.9304" r="0.3000" /> 
</g>
<g style="fill:#FFFFFF; fill-opacity:1.0000; stroke:none;">
<circle cx="1.3038" cy="1.9304" r="0.3000" /> 
</g>
<g style="fill:#FFFFFF; fill-opacity:1.0000; stroke:none;">
<circle cx="25.2348" cy="11.6916" r="0.6000" /> 
</g>
<g style="fill:#FFFFFF; fill-opacity:1.0000; stroke:none;">
<circle cx="25.2348" cy="14.2316" r="0.6000" /> 
</g>
<g style="fill:#FFFFFF; fill-opacity:1.0000; stroke:none;">
<circle cx="25.2348" cy="16.7716" r="0.6000" /> 
</g>
<g style="fill:#FFFFFF; fill-opacity:1.0000; stroke:none;">
<circle cx="19.0448" cy="22.9516" r="0.6000" /> 
</g>
<g style="fill:#FFFFFF; fill-opacity:1.0000; stroke:none;">
<circle cx="16.5048" cy="22.9516" r="0.6000" /> 
</g>
<g style="fill:#FFFFFF; fill-opacity:1.0000; stroke:none;">
<circle cx="13.9648" cy="22.9516" r="0.6000" /> 
</g>
<g style="fill:#FFFFFF; fill-opacity:1.0000; stroke:none;">
<circle cx="10.1748" cy="19.2216" r="0.6000" /> 
</g>
<g style="fill:#FFFFFF; fill-opacity:1.0000; stroke:none;">
<circle cx="10.1748" cy="9.2316" r="0.6000" /> 
</g>
<g style="fill:#FFFFFF; fill-opacity:1.0000; stroke:none;">
<circle cx="22.8248" cy="9.2316" r="0.6000" /> 
</g>
<g style="fill:#FFFFFF; fill-opacity:1.0000; stroke:none;">
<circle cx="22.8248" cy="19.2216" r="0.6000" /> 
</g>
<g style="fill:#FFFFFF; fill-opacity:1.0000; stroke:none;">
<circle cx="10.4224" cy="1.9558" r="0.5000" /> 
</g>
<g style="fill:#000000; fill-opacity:1.0000; stroke:none;">
<circle cx="16.7738" cy="2.9747" r="0.4500" /> 
<circle cx="13.7738" cy="2.9747" r="0.4500" /> 
</g>
<g style="fill:#FFFFFF; fill-opacity:1.0000; stroke:none;">
<circle cx="2.2606" cy="19.4310" r="0.5000" /> 
</g>
<g style="fill:#FFFFFF; fill-opacity:1.0000; stroke:none;">
<circle cx="2.2606" cy="16.8910" r="0.5000" /> 
</g>
<g style="fill:#FFFFFF; fill-opacity:1.0000; stroke:none;">
<circle cx="4.8006" cy="19.4310" r="0.5000" /> 
</g>
<g style="fill:#FFFFFF; fill-opacity:1.0000; stroke:none;">
<circle cx="4.8006" cy="16.8910" r="0.5000" /> 
</g>
<g style="fill:#FFFFFF; fill-opacity:1.0000; stroke:none;">
<circle cx="7.3406" cy="19.4310" r="0.5000" /> 
</g>
<g style="fill:#FFFFFF; fill-opacity:1.0000; stroke:none;">
<circle cx="7.3406" cy="16.8910" r="0.5000" /> 
</g> 
</svg>
