<?xml version="1.0" standalone="no"?>
 <!DOCTYPE svg PUBLIC "-//W3C//DTD SVG 1.1//EN" 
 "http://www.w3.org/Graphics/SVG/1.1/DTD/svg11.dtd"> 
<svg
  xmlns:svg="http://www.w3.org/2000/svg"
  xmlns="http://www.w3.org/2000/svg"
  xmlns:xlink="http://www.w3.org/1999/xlink"
  xmlns:inkscape="http://www.inkscape.org/namespaces/inkscape"
  version="1.1"
  width="32.9946mm" height="26.4922mm" viewBox="0.0000 0.0000 32.9946 26.4922">
<title>SVG Image created as pcb-top.svg date 2026-05-18T08:00:15 </title>
  <desc>Image generated by PCBNEW </desc>
<g style="fill:#000000; fill-opacity:1.0000;stroke:#000000; stroke-opacity:1.0000;
stroke-linecap:round; stroke-linejoin:round;"
 transform="translate(0 0) scale(1 1)">
</g>
<g style="fill:none; 
stroke:#C872AB; stroke-width:0.1500; stroke-opacity:1; 
stroke-linecap:round; stroke-linejoin:round;">
<path d="M-245.1658 -115.9261
L-137.1658 -115.9261
L-137.1658 -83.9261
L-245.1658 -83.9261
L-245.1658 -115.9261
" />
<path d="M-148.1658 -88.4250
L-135.1658 -88.4250
L-135.1658 -81.9261
L-148.1658 -81.9261
L-148.1658 -88.4250
" />
<path d="M-146.1658 -86.4250
L-137.1658 -86.4250
L-137.1658 -83.9261
L-146.1658 -83.9261
L-146.1658 -86.4250
" />
<path d="M-98.1658 -86.4250
L-98.1658 -88.4250
" />
<text x="-123.1658" y="-86.7750"
textLength="1.4281" font-size="1.7333" lengthAdjust="spacingAndGlyphs"
text-anchor="start" opacity="0" stroke-opacity="0">1</text>
<g class="stroked-text"><desc>1</desc>
<path d="M-122.0766 -86.8314
L-122.8195 -86.8314
" />
<path d="M-122.4481 -86.8314
L-122.4481 -88.1314
" />
<path d="M-122.4481 -88.1314
L-122.5719 -87.9457
" />
<path d="M-122.5719 -87.9457
L-122.6957 -87.8219
" />
<path d="M-122.6957 -87.8219
L-122.8195 -87.7600
" />
</g><path d="M-98.1658 -83.9261
L-98.1658 -81.9261
" />
<text x="-123.1658" y="-82.2761"
textLength="1.4281" font-size="1.7333" lengthAdjust="spacingAndGlyphs"
text-anchor="start" opacity="0" stroke-opacity="0">1</text>
<g class="stroked-text"><desc>1</desc>
<path d="M-122.0766 -82.3325
L-122.8195 -82.3325
" />
<path d="M-122.4481 -82.3325
L-122.4481 -83.6325
" />
<path d="M-122.4481 -83.6325
L-122.5719 -83.4468
" />
<path d="M-122.5719 -83.4468
L-122.6957 -83.3230
" />
<path d="M-122.6957 -83.3230
L-122.8195 -83.2611
" />
</g><path d="M-148.1658 -38.4250
L-146.1658 -38.4250
" />
<text x="-147.1658" y="-62.7750"
textLength="1.3043" font-size="1.7333" lengthAdjust="spacingAndGlyphs"
text-anchor="middle" opacity="0" stroke-opacity="0">A</text>
<g class="stroked-text"><desc>A</desc>
<path d="M-147.4753 -63.2028
L-146.8563 -63.2028
" />
<path d="M-147.5991 -62.8314
L-147.1658 -64.1314
" />
<path d="M-147.1658 -64.1314
L-146.7325 -62.8314
" />
</g><path d="M-135.1658 -38.4250
L-137.1658 -38.4250
" />
<text x="-136.1658" y="-62.7750"
textLength="1.3043" font-size="1.7333" lengthAdjust="spacingAndGlyphs"
text-anchor="middle" opacity="0" stroke-opacity="0">A</text>
<g class="stroked-text"><desc>A</desc>
<path d="M-136.4753 -63.2028
L-135.8563 -63.2028
" />
<path d="M-136.5991 -62.8314
L-136.1658 -64.1314
" />
<path d="M-136.1658 -64.1314
L-135.7325 -62.8314
" />
</g><text x="-222.1658" y="-88.0761"
textLength="7.0071" font-size="2.0000" lengthAdjust="spacingAndGlyphs"
text-anchor="start" opacity="0" stroke-opacity="0">Date: </text>
<g class="stroked-text"><desc>Date: </desc>
<path d="M-221.7100 -88.1400
L-221.7100 -89.6400
" />
<path d="M-221.7100 -89.6400
L-221.3528 -89.6400
" />
<path d="M-221.3528 -89.6400
L-221.1385 -89.5686
" />
<path d="M-221.1385 -89.5686
L-220.9957 -89.4257
" />
<path d="M-220.9957 -89.4257
L-220.9243 -89.2828
" />
<path d="M-220.9243 -89.2828
L-220.8528 -88.9971
" />
<path d="M-220.8528 -88.9971
L-220.8528 -88.7828
" />
<path d="M-220.8528 -88.7828
L-220.9243 -88.4971
" />
<path d="M-220.9243 -88.4971
L-220.9957 -88.3543
" />
<path d="M-220.9957 -88.3543
L-221.1385 -88.2114
" />
<path d="M-221.1385 -88.2114
L-221.3528 -88.1400
" />
<path d="M-221.3528 -88.1400
L-221.7100 -88.1400
" />
<path d="M-219.5671 -88.1400
L-219.5671 -88.9257
" />
<path d="M-219.5671 -88.9257
L-219.6385 -89.0686
" />
<path d="M-219.6385 -89.0686
L-219.7814 -89.1400
" />
<path d="M-219.7814 -89.1400
L-220.0671 -89.1400
" />
<path d="M-220.0671 -89.1400
L-220.2100 -89.0686
" />
<path d="M-219.5671 -88.2114
L-219.7100 -88.1400
" />
<path d="M-219.7100 -88.1400
L-220.0671 -88.1400
" />
<path d="M-220.0671 -88.1400
L-220.2100 -88.2114
" />
<path d="M-220.2100 -88.2114
L-220.2814 -88.3543
" />
<path d="M-220.2814 -88.3543
L-220.2814 -88.4971
" />
<path d="M-220.2814 -88.4971
L-220.2100 -88.6400
" />
<path d="M-220.2100 -88.6400
L-220.0671 -88.7114
" />
<path d="M-220.0671 -88.7114
L-219.7100 -88.7114
" />
<path d="M-219.7100 -88.7114
L-219.5671 -88.7828
" />
<path d="M-219.0671 -89.1400
L-218.4957 -89.1400
" />
<path d="M-218.8528 -89.6400
L-218.8528 -88.3543
" />
<path d="M-218.8528 -88.3543
L-218.7814 -88.2114
" />
<path d="M-218.7814 -88.2114
L-218.6385 -88.1400
" />
<path d="M-218.6385 -88.1400
L-218.4957 -88.1400
" />
<path d="M-217.4243 -88.2114
L-217.5671 -88.1400
" />
<path d="M-217.5671 -88.1400
L-217.8528 -88.1400
" />
<path d="M-217.8528 -88.1400
L-217.9957 -88.2114
" />
<path d="M-217.9957 -88.2114
L-218.0671 -88.3543
" />
<path d="M-218.0671 -88.3543
L-218.0671 -88.9257
" />
<path d="M-218.0671 -88.9257
L-217.9957 -89.0686
" />
<path d="M-217.9957 -89.0686
L-217.8528 -89.1400
" />
<path d="M-217.8528 -89.1400
L-217.5671 -89.1400
" />
<path d="M-217.5671 -89.1400
L-217.4243 -89.0686
" />
<path d="M-217.4243 -89.0686
L-217.3528 -88.9257
" />
<path d="M-217.3528 -88.9257
L-217.3528 -88.7828
" />
<path d="M-217.3528 -88.7828
L-218.0671 -88.6400
" />
<path d="M-216.7100 -88.2828
L-216.6385 -88.2114
" />
<path d="M-216.6385 -88.2114
L-216.7100 -88.1400
" />
<path d="M-216.7100 -88.1400
L-216.7814 -88.2114
" />
<path d="M-216.7814 -88.2114
L-216.7100 -88.2828
" />
<path d="M-216.7100 -88.2828
L-216.7100 -88.1400
" />
<path d="M-216.7100 -89.0686
L-216.6385 -88.9971
" />
<path d="M-216.6385 -88.9971
L-216.7100 -88.9257
" />
<path d="M-216.7100 -88.9257
L-216.7814 -88.9971
" />
<path d="M-216.7814 -88.9971
L-216.7100 -89.0686
" />
<path d="M-216.7100 -89.0686
L-216.7100 -88.9257
" />
</g><path d="M-245.1658 -87.4261
L-137.1658 -87.4261
" />
<text x="-244.1658" y="-85.2761"
textLength="22.2929" font-size="2.0000" lengthAdjust="spacingAndGlyphs"
text-anchor="start" opacity="0" stroke-opacity="0">KiCad E.D.A. 10.0.1</text>
<g class="stroked-text"><desc>KiCad E.D.A. 10.0.1</desc>
<path d="M-243.7100 -85.3400
L-243.7100 -86.8400
" />
<path d="M-242.8528 -85.3400
L-243.4957 -86.1971
" />
<path d="M-242.8528 -86.8400
L-243.7100 -85.9828
" />
<path d="M-242.2100 -85.3400
L-242.2100 -86.3400
" />
<path d="M-242.2100 -86.8400
L-242.2814 -86.7686
" />
<path d="M-242.2814 -86.7686
L-242.2100 -86.6971
" />
<path d="M-242.2100 -86.6971
L-242.1385 -86.7686
" />
<path d="M-242.1385 -86.7686
L-242.2100 -86.8400
" />
<path d="M-242.2100 -86.8400
L-242.2100 -86.6971
" />
<path d="M-240.6385 -85.4828
L-240.7100 -85.4114
" />
<path d="M-240.7100 -85.4114
L-240.9243 -85.3400
" />
<path d="M-240.9243 -85.3400
L-241.0671 -85.3400
" />
<path d="M-241.0671 -85.3400
L-241.2814 -85.4114
" />
<path d="M-241.2814 -85.4114
L-241.4243 -85.5543
" />
<path d="M-241.4243 -85.5543
L-241.4957 -85.6971
" />
<path d="M-241.4957 -85.6971
L-241.5671 -85.9828
" />
<path d="M-241.5671 -85.9828
L-241.5671 -86.1971
" />
<path d="M-241.5671 -86.1971
L-241.4957 -86.4828
" />
<path d="M-241.4957 -86.4828
L-241.4243 -86.6257
" />
<path d="M-241.4243 -86.6257
L-241.2814 -86.7686
" />
<path d="M-241.2814 -86.7686
L-241.0671 -86.8400
" />
<path d="M-241.0671 -86.8400
L-240.9243 -86.8400
" />
<path d="M-240.9243 -86.8400
L-240.7100 -86.7686
" />
<path d="M-240.7100 -86.7686
L-240.6385 -86.6971
" />
<path d="M-239.3528 -85.3400
L-239.3528 -86.1257
" />
<path d="M-239.3528 -86.1257
L-239.4243 -86.2686
" />
<path d="M-239.4243 -86.2686
L-239.5671 -86.3400
" />
<path d="M-239.5671 -86.3400
L-239.8528 -86.3400
" />
<path d="M-239.8528 -86.3400
L-239.9957 -86.2686
" />
<path d="M-239.3528 -85.4114
L-239.4957 -85.3400
" />
<path d="M-239.4957 -85.3400
L-239.8528 -85.3400
" />
<path d="M-239.8528 -85.3400
L-239.9957 -85.4114
" />
<path d="M-239.9957 -85.4114
L-240.0671 -85.5543
" />
<path d="M-240.0671 -85.5543
L-240.0671 -85.6971
" />
<path d="M-240.0671 -85.6971
L-239.9957 -85.8400
" />
<path d="M-239.9957 -85.8400
L-239.8528 -85.9114
" />
<path d="M-239.8528 -85.9114
L-239.4957 -85.9114
" />
<path d="M-239.4957 -85.9114
L-239.3528 -85.9828
" />
<path d="M-237.9957 -85.3400
L-237.9957 -86.8400
" />
<path d="M-237.9957 -85.4114
L-238.1385 -85.3400
" />
<path d="M-238.1385 -85.3400
L-238.4243 -85.3400
" />
<path d="M-238.4243 -85.3400
L-238.5671 -85.4114
" />
<path d="M-238.5671 -85.4114
L-238.6385 -85.4828
" />
<path d="M-238.6385 -85.4828
L-238.7100 -85.6257
" />
<path d="M-238.7100 -85.6257
L-238.7100 -86.0543
" />
<path d="M-238.7100 -86.0543
L-238.6385 -86.1971
" />
<path d="M-238.6385 -86.1971
L-238.5671 -86.2686
" />
<path d="M-238.5671 -86.2686
L-238.4243 -86.3400
" />
<path d="M-238.4243 -86.3400
L-238.1385 -86.3400
" />
<path d="M-238.1385 -86.3400
L-237.9957 -86.2686
" />
<path d="M-236.1385 -86.1257
L-235.6385 -86.1257
" />
<path d="M-235.4243 -85.3400
L-236.1385 -85.3400
" />
<path d="M-236.1385 -85.3400
L-236.1385 -86.8400
" />
<path d="M-236.1385 -86.8400
L-235.4243 -86.8400
" />
<path d="M-234.7814 -85.4828
L-234.7100 -85.4114
" />
<path d="M-234.7100 -85.4114
L-234.7814 -85.3400
" />
<path d="M-234.7814 -85.3400
L-234.8528 -85.4114
" />
<path d="M-234.8528 -85.4114
L-234.7814 -85.4828
" />
<path d="M-234.7814 -85.4828
L-234.7814 -85.3400
" />
<path d="M-234.0671 -85.3400
L-234.0671 -86.8400
" />
<path d="M-234.0671 -86.8400
L-233.7100 -86.8400
" />
<path d="M-233.7100 -86.8400
L-233.4957 -86.7686
" />
<path d="M-233.4957 -86.7686
L-233.3528 -86.6257
" />
<path d="M-233.3528 -86.6257
L-233.2814 -86.4828
" />
<path d="M-233.2814 -86.4828
L-233.2100 -86.1971
" />
<path d="M-233.2100 -86.1971
L-233.2100 -85.9828
" />
<path d="M-233.2100 -85.9828
L-233.2814 -85.6971
" />
<path d="M-233.2814 -85.6971
L-233.3528 -85.5543
" />
<path d="M-233.3528 -85.5543
L-233.4957 -85.4114
" />
<path d="M-233.4957 -85.4114
L-233.7100 -85.3400
" />
<path d="M-233.7100 -85.3400
L-234.0671 -85.3400
" />
<path d="M-232.5671 -85.4828
L-232.4957 -85.4114
" />
<path d="M-232.4957 -85.4114
L-232.5671 -85.3400
" />
<path d="M-232.5671 -85.3400
L-232.6385 -85.4114
" />
<path d="M-232.6385 -85.4114
L-232.5671 -85.4828
" />
<path d="M-232.5671 -85.4828
L-232.5671 -85.3400
" />
<path d="M-231.9243 -85.7686
L-231.2100 -85.7686
" />
<path d="M-232.0671 -85.3400
L-231.5671 -86.8400
" />
<path d="M-231.5671 -86.8400
L-231.0671 -85.3400
" />
<path d="M-230.5671 -85.4828
L-230.4957 -85.4114
" />
<path d="M-230.4957 -85.4114
L-230.5671 -85.3400
" />
<path d="M-230.5671 -85.3400
L-230.6385 -85.4114
" />
<path d="M-230.6385 -85.4114
L-230.5671 -85.4828
" />
<path d="M-230.5671 -85.4828
L-230.5671 -85.3400
" />
<path d="M-227.9243 -85.3400
L-228.7814 -85.3400
" />
<path d="M-228.3528 -85.3400
L-228.3528 -86.8400
" />
<path d="M-228.3528 -86.8400
L-228.4957 -86.6257
" />
<path d="M-228.4957 -86.6257
L-228.6385 -86.4828
" />
<path d="M-228.6385 -86.4828
L-228.7814 -86.4114
" />
<path d="M-226.9957 -86.8400
L-226.8528 -86.8400
" />
<path d="M-226.8528 -86.8400
L-226.7100 -86.7686
" />
<path d="M-226.7100 -86.7686
L-226.6385 -86.6971
" />
<path d="M-226.6385 -86.6971
L-226.5671 -86.5543
" />
<path d="M-226.5671 -86.5543
L-226.4957 -86.2686
" />
<path d="M-226.4957 -86.2686
L-226.4957 -85.9114
" />
<path d="M-226.4957 -85.9114
L-226.5671 -85.6257
" />
<path d="M-226.5671 -85.6257
L-226.6385 -85.4828
" />
<path d="M-226.6385 -85.4828
L-226.7100 -85.4114
" />
<path d="M-226.7100 -85.4114
L-226.8528 -85.3400
" />
<path d="M-226.8528 -85.3400
L-226.9957 -85.3400
" />
<path d="M-226.9957 -85.3400
L-227.1385 -85.4114
" />
<path d="M-227.1385 -85.4114
L-227.2100 -85.4828
" />
<path d="M-227.2100 -85.4828
L-227.2814 -85.6257
" />
<path d="M-227.2814 -85.6257
L-227.3528 -85.9114
" />
<path d="M-227.3528 -85.9114
L-227.3528 -86.2686
" />
<path d="M-227.3528 -86.2686
L-227.2814 -86.5543
" />
<path d="M-227.2814 -86.5543
L-227.2100 -86.6971
" />
<path d="M-227.2100 -86.6971
L-227.1385 -86.7686
" />
<path d="M-227.1385 -86.7686
L-226.9957 -86.8400
" />
<path d="M-225.8528 -85.4828
L-225.7814 -85.4114
" />
<path d="M-225.7814 -85.4114
L-225.8528 -85.3400
" />
<path d="M-225.8528 -85.3400
L-225.9243 -85.4114
" />
<path d="M-225.9243 -85.4114
L-225.8528 -85.4828
" />
<path d="M-225.8528 -85.4828
L-225.8528 -85.3400
" />
<path d="M-224.8528 -86.8400
L-224.7100 -86.8400
" />
<path d="M-224.7100 -86.8400
L-224.5671 -86.7686
" />
<path d="M-224.5671 -86.7686
L-224.4957 -86.6971
" />
<path d="M-224.4957 -86.6971
L-224.4243 -86.5543
" />
<path d="M-224.4243 -86.5543
L-224.3528 -86.2686
" />
<path d="M-224.3528 -86.2686
L-224.3528 -85.9114
" />
<path d="M-224.3528 -85.9114
L-224.4243 -85.6257
" />
<path d="M-224.4243 -85.6257
L-224.4957 -85.4828
" />
<path d="M-224.4957 -85.4828
L-224.5671 -85.4114
" />
<path d="M-224.5671 -85.4114
L-224.7100 -85.3400
" />
<path d="M-224.7100 -85.3400
L-224.8528 -85.3400
" />
<path d="M-224.8528 -85.3400
L-224.9957 -85.4114
" />
<path d="M-224.9957 -85.4114
L-225.0671 -85.4828
" />
<path d="M-225.0671 -85.4828
L-225.1385 -85.6257
" />
<path d="M-225.1385 -85.6257
L-225.2100 -85.9114
" />
<path d="M-225.2100 -85.9114
L-225.2100 -86.2686
" />
<path d="M-225.2100 -86.2686
L-225.1385 -86.5543
" />
<path d="M-225.1385 -86.5543
L-225.0671 -86.6971
" />
<path d="M-225.0671 -86.6971
L-224.9957 -86.7686
" />
<path d="M-224.9957 -86.7686
L-224.8528 -86.8400
" />
<path d="M-223.7100 -85.4828
L-223.6385 -85.4114
" />
<path d="M-223.6385 -85.4114
L-223.7100 -85.3400
" />
<path d="M-223.7100 -85.3400
L-223.7814 -85.4114
" />
<path d="M-223.7814 -85.4114
L-223.7100 -85.4828
" />
<path d="M-223.7100 -85.4828
L-223.7100 -85.3400
" />
<path d="M-222.2100 -85.3400
L-223.0671 -85.3400
" />
<path d="M-222.6385 -85.3400
L-222.6385 -86.8400
" />
<path d="M-222.6385 -86.8400
L-222.7814 -86.6257
" />
<path d="M-222.7814 -86.6257
L-222.9243 -86.4828
" />
<path d="M-222.9243 -86.4828
L-223.0671 -86.4114
" />
</g><path d="M-245.1658 -90.4261
L-137.1658 -90.4261
" />
</g>
<g style="fill:none; 
stroke:#C872AB; stroke-width:0.3000; stroke-opacity:1; 
stroke-linecap:round; stroke-linejoin:round;">
<text x="-159.1658" y="-88.0761"
textLength="6.3857" font-size="2.0000" lengthAdjust="spacingAndGlyphs"
text-anchor="start" opacity="0" stroke-opacity="0">Rev: </text>
<g class="stroked-text"><desc>Rev: </desc>
<path d="M-157.7541 -88.1478
L-158.2541 -88.8621
" />
<path d="M-158.6113 -88.1478
L-158.6113 -89.6478
" />
<path d="M-158.6113 -89.6478
L-158.0399 -89.6478
" />
<path d="M-158.0399 -89.6478
L-157.8970 -89.5764
" />
<path d="M-157.8970 -89.5764
L-157.8256 -89.5049
" />
<path d="M-157.8256 -89.5049
L-157.7541 -89.3621
" />
<path d="M-157.7541 -89.3621
L-157.7541 -89.1478
" />
<path d="M-157.7541 -89.1478
L-157.8256 -89.0049
" />
<path d="M-157.8256 -89.0049
L-157.8970 -88.9335
" />
<path d="M-157.8970 -88.9335
L-158.0399 -88.8621
" />
<path d="M-158.0399 -88.8621
L-158.6113 -88.8621
" />
<path d="M-156.5399 -88.2192
L-156.6827 -88.1478
" />
<path d="M-156.6827 -88.1478
L-156.9684 -88.1478
" />
<path d="M-156.9684 -88.1478
L-157.1113 -88.2192
" />
<path d="M-157.1113 -88.2192
L-157.1827 -88.3621
" />
<path d="M-157.1827 -88.3621
L-157.1827 -88.9335
" />
<path d="M-157.1827 -88.9335
L-157.1113 -89.0764
" />
<path d="M-157.1113 -89.0764
L-156.9684 -89.1478
" />
<path d="M-156.9684 -89.1478
L-156.6827 -89.1478
" />
<path d="M-156.6827 -89.1478
L-156.5399 -89.0764
" />
<path d="M-156.5399 -89.0764
L-156.4684 -88.9335
" />
<path d="M-156.4684 -88.9335
L-156.4684 -88.7906
" />
<path d="M-156.4684 -88.7906
L-157.1827 -88.6478
" />
<path d="M-155.9684 -89.1478
L-155.6113 -88.1478
" />
<path d="M-155.6113 -88.1478
L-155.2541 -89.1478
" />
<path d="M-154.6827 -88.2906
L-154.6113 -88.2192
" />
<path d="M-154.6113 -88.2192
L-154.6827 -88.1478
" />
<path d="M-154.6827 -88.1478
L-154.7541 -88.2192
" />
<path d="M-154.7541 -88.2192
L-154.6827 -88.2906
" />
<path d="M-154.6827 -88.2906
L-154.6827 -88.1478
" />
<path d="M-154.6827 -89.0764
L-154.6113 -89.0049
" />
<path d="M-154.6113 -89.0049
L-154.6827 -88.9335
" />
<path d="M-154.6827 -88.9335
L-154.7541 -89.0049
" />
<path d="M-154.7541 -89.0049
L-154.6827 -89.0764
" />
<path d="M-154.6827 -89.0764
L-154.6827 -88.9335
" />
</g></g>
<g style="fill:none; 
stroke:#C872AB; stroke-width:0.1500; stroke-opacity:1; 
stroke-linecap:round; stroke-linejoin:round;">
<text x="-244.1658" y="-88.0761"
textLength="11.6500" font-size="2.0000" lengthAdjust="spacingAndGlyphs"
text-anchor="start" opacity="0" stroke-opacity="0">Size: User</text>
<g class="stroked-text"><desc>Size: User</desc>
<path d="M-243.7814 -88.2114
L-243.5671 -88.1400
" />
<path d="M-243.5671 -88.1400
L-243.2100 -88.1400
" />
<path d="M-243.2100 -88.1400
L-243.0671 -88.2114
" />
<path d="M-243.0671 -88.2114
L-242.9957 -88.2828
" />
<path d="M-242.9957 -88.2828
L-242.9243 -88.4257
" />
<path d="M-242.9243 -88.4257
L-242.9243 -88.5686
" />
<path d="M-242.9243 -88.5686
L-242.9957 -88.7114
" />
<path d="M-242.9957 -88.7114
L-243.0671 -88.7828
" />
<path d="M-243.0671 -88.7828
L-243.2100 -88.8543
" />
<path d="M-243.2100 -88.8543
L-243.4957 -88.9257
" />
<path d="M-243.4957 -88.9257
L-243.6385 -88.9971
" />
<path d="M-243.6385 -88.9971
L-243.7100 -89.0686
" />
<path d="M-243.7100 -89.0686
L-243.7814 -89.2114
" />
<path d="M-243.7814 -89.2114
L-243.7814 -89.3543
" />
<path d="M-243.7814 -89.3543
L-243.7100 -89.4971
" />
<path d="M-243.7100 -89.4971
L-243.6385 -89.5686
" />
<path d="M-243.6385 -89.5686
L-243.4957 -89.6400
" />
<path d="M-243.4957 -89.6400
L-243.1385 -89.6400
" />
<path d="M-243.1385 -89.6400
L-242.9243 -89.5686
" />
<path d="M-242.2814 -88.1400
L-242.2814 -89.1400
" />
<path d="M-242.2814 -89.6400
L-242.3528 -89.5686
" />
<path d="M-242.3528 -89.5686
L-242.2814 -89.4971
" />
<path d="M-242.2814 -89.4971
L-242.2100 -89.5686
" />
<path d="M-242.2100 -89.5686
L-242.2814 -89.6400
" />
<path d="M-242.2814 -89.6400
L-242.2814 -89.4971
" />
<path d="M-241.7100 -89.1400
L-240.9243 -89.1400
" />
<path d="M-240.9243 -89.1400
L-241.7100 -88.1400
" />
<path d="M-241.7100 -88.1400
L-240.9243 -88.1400
" />
<path d="M-239.7814 -88.2114
L-239.9243 -88.1400
" />
<path d="M-239.9243 -88.1400
L-240.2100 -88.1400
" />
<path d="M-240.2100 -88.1400
L-240.3528 -88.2114
" />
<path d="M-240.3528 -88.2114
L-240.4243 -88.3543
" />
<path d="M-240.4243 -88.3543
L-240.4243 -88.9257
" />
<path d="M-240.4243 -88.9257
L-240.3528 -89.0686
" />
<path d="M-240.3528 -89.0686
L-240.2100 -89.1400
" />
<path d="M-240.2100 -89.1400
L-239.9243 -89.1400
" />
<path d="M-239.9243 -89.1400
L-239.7814 -89.0686
" />
<path d="M-239.7814 -89.0686
L-239.7100 -88.9257
" />
<path d="M-239.7100 -88.9257
L-239.7100 -88.7828
" />
<path d="M-239.7100 -88.7828
L-240.4243 -88.6400
" />
<path d="M-239.0671 -88.2828
L-238.9957 -88.2114
" />
<path d="M-238.9957 -88.2114
L-239.0671 -88.1400
" />
<path d="M-239.0671 -88.1400
L-239.1385 -88.2114
" />
<path d="M-239.1385 -88.2114
L-239.0671 -88.2828
" />
<path d="M-239.0671 -88.2828
L-239.0671 -88.1400
" />
<path d="M-239.0671 -89.0686
L-238.9957 -88.9971
" />
<path d="M-238.9957 -88.9971
L-239.0671 -88.9257
" />
<path d="M-239.0671 -88.9257
L-239.1385 -88.9971
" />
<path d="M-239.1385 -88.9971
L-239.0671 -89.0686
" />
<path d="M-239.0671 -89.0686
L-239.0671 -88.9257
" />
<path d="M-237.2100 -89.6400
L-237.2100 -88.4257
" />
<path d="M-237.2100 -88.4257
L-237.1385 -88.2828
" />
<path d="M-237.1385 -88.2828
L-237.0671 -88.2114
" />
<path d="M-237.0671 -88.2114
L-236.9243 -88.1400
" />
<path d="M-236.9243 -88.1400
L-236.6385 -88.1400
" />
<path d="M-236.6385 -88.1400
L-236.4957 -88.2114
" />
<path d="M-236.4957 -88.2114
L-236.4243 -88.2828
" />
<path d="M-236.4243 -88.2828
L-236.3528 -88.4257
" />
<path d="M-236.3528 -88.4257
L-236.3528 -89.6400
" />
<path d="M-235.7100 -88.2114
L-235.5671 -88.1400
" />
<path d="M-235.5671 -88.1400
L-235.2814 -88.1400
" />
<path d="M-235.2814 -88.1400
L-235.1385 -88.2114
" />
<path d="M-235.1385 -88.2114
L-235.0671 -88.3543
" />
<path d="M-235.0671 -88.3543
L-235.0671 -88.4257
" />
<path d="M-235.0671 -88.4257
L-235.1385 -88.5686
" />
<path d="M-235.1385 -88.5686
L-235.2814 -88.6400
" />
<path d="M-235.2814 -88.6400
L-235.4957 -88.6400
" />
<path d="M-235.4957 -88.6400
L-235.6385 -88.7114
" />
<path d="M-235.6385 -88.7114
L-235.7100 -88.8543
" />
<path d="M-235.7100 -88.8543
L-235.7100 -88.9257
" />
<path d="M-235.7100 -88.9257
L-235.6385 -89.0686
" />
<path d="M-235.6385 -89.0686
L-235.4957 -89.1400
" />
<path d="M-235.4957 -89.1400
L-235.2814 -89.1400
" />
<path d="M-235.2814 -89.1400
L-235.1385 -89.0686
" />
<path d="M-233.8528 -88.2114
L-233.9957 -88.1400
" />
<path d="M-233.9957 -88.1400
L-234.2814 -88.1400
" />
<path d="M-234.2814 -88.1400
L-234.4243 -88.2114
" />
<path d="M-234.4243 -88.2114
L-234.4957 -88.3543
" />
<path d="M-234.4957 -88.3543
L-234.4957 -88.9257
" />
<path d="M-234.4957 -88.9257
L-234.4243 -89.0686
" />
<path d="M-234.4243 -89.0686
L-234.2814 -89.1400
" />
<path d="M-234.2814 -89.1400
L-233.9957 -89.1400
" />
<path d="M-233.9957 -89.1400
L-233.8528 -89.0686
" />
<path d="M-233.8528 -89.0686
L-233.7814 -88.9257
" />
<path d="M-233.7814 -88.9257
L-233.7814 -88.7828
" />
<path d="M-233.7814 -88.7828
L-234.4957 -88.6400
" />
<path d="M-233.1385 -88.1400
L-233.1385 -89.1400
" />
<path d="M-233.1385 -88.8543
L-233.0671 -88.9971
" />
<path d="M-233.0671 -88.9971
L-232.9957 -89.0686
" />
<path d="M-232.9957 -89.0686
L-232.8528 -89.1400
" />
<path d="M-232.8528 -89.1400
L-232.7100 -89.1400
" />
</g><text x="-159.1658" y="-85.2761"
textLength="8.5071" font-size="2.0000" lengthAdjust="spacingAndGlyphs"
text-anchor="start" opacity="0" stroke-opacity="0">Id: 1/1</text>
<g class="stroked-text"><desc>Id: 1/1</desc>
<path d="M-158.7100 -85.3400
L-158.7100 -86.8400
" />
<path d="M-157.3528 -85.3400
L-157.3528 -86.8400
" />
<path d="M-157.3528 -85.4114
L-157.4957 -85.3400
" />
<path d="M-157.4957 -85.3400
L-157.7814 -85.3400
" />
<path d="M-157.7814 -85.3400
L-157.9243 -85.4114
" />
<path d="M-157.9243 -85.4114
L-157.9957 -85.4828
" />
<path d="M-157.9957 -85.4828
L-158.0671 -85.6257
" />
<path d="M-158.0671 -85.6257
L-158.0671 -86.0543
" />
<path d="M-158.0671 -86.0543
L-157.9957 -86.1971
" />
<path d="M-157.9957 -86.1971
L-157.9243 -86.2686
" />
<path d="M-157.9243 -86.2686
L-157.7814 -86.3400
" />
<path d="M-157.7814 -86.3400
L-157.4957 -86.3400
" />
<path d="M-157.4957 -86.3400
L-157.3528 -86.2686
" />
<path d="M-156.6385 -85.4828
L-156.5671 -85.4114
" />
<path d="M-156.5671 -85.4114
L-156.6385 -85.3400
" />
<path d="M-156.6385 -85.3400
L-156.7100 -85.4114
" />
<path d="M-156.7100 -85.4114
L-156.6385 -85.4828
" />
<path d="M-156.6385 -85.4828
L-156.6385 -85.3400
" />
<path d="M-156.6385 -86.2686
L-156.5671 -86.1971
" />
<path d="M-156.5671 -86.1971
L-156.6385 -86.1257
" />
<path d="M-156.6385 -86.1257
L-156.7100 -86.1971
" />
<path d="M-156.7100 -86.1971
L-156.6385 -86.2686
" />
<path d="M-156.6385 -86.2686
L-156.6385 -86.1257
" />
<path d="M-153.9957 -85.3400
L-154.8528 -85.3400
" />
<path d="M-154.4243 -85.3400
L-154.4243 -86.8400
" />
<path d="M-154.4243 -86.8400
L-154.5671 -86.6257
" />
<path d="M-154.5671 -86.6257
L-154.7100 -86.4828
" />
<path d="M-154.7100 -86.4828
L-154.8528 -86.4114
" />
<path d="M-152.2814 -86.9114
L-153.5671 -84.9828
" />
<path d="M-150.9957 -85.3400
L-151.8528 -85.3400
" />
<path d="M-151.4243 -85.3400
L-151.4243 -86.8400
" />
<path d="M-151.4243 -86.8400
L-151.5671 -86.6257
" />
<path d="M-151.5671 -86.6257
L-151.7100 -86.4828
" />
<path d="M-151.7100 -86.4828
L-151.8528 -86.4114
" />
</g><path d="M-245.1658 -94.4261
L-137.1658 -94.4261
" />
</g>
<g style="fill:none; 
stroke:#C872AB; stroke-width:0.4000; stroke-opacity:1; 
stroke-linecap:round; stroke-linejoin:round;">
<text x="-244.1658" y="-91.6261"
textLength="9.6571" font-size="2.6667" lengthAdjust="spacingAndGlyphs"
text-anchor="start" opacity="0" stroke-opacity="0">Title: </text>
<g class="stroked-text"><desc>Title: </desc>
<path d="M-243.4741 -93.7217
L-242.3312 -93.7217
" />
<path d="M-243.1526 -91.7217
L-242.9026 -93.7217
" />
<path d="M-241.9145 -91.7217
L-241.7479 -93.0550
" />
<path d="M-241.6645 -93.7217
L-241.7717 -93.6264
" />
<path d="M-241.7717 -93.6264
L-241.6884 -93.5312
" />
<path d="M-241.6884 -93.5312
L-241.5812 -93.6264
" />
<path d="M-241.5812 -93.6264
L-241.6645 -93.7217
" />
<path d="M-241.6645 -93.7217
L-241.6884 -93.5312
" />
<path d="M-241.0812 -93.0550
L-240.3193 -93.0550
" />
<path d="M-240.7122 -93.7217
L-240.9265 -92.0074
" />
<path d="M-240.9265 -92.0074
L-240.8550 -91.8169
" />
<path d="M-240.8550 -91.8169
L-240.6765 -91.7217
" />
<path d="M-240.6765 -91.7217
L-240.4860 -91.7217
" />
<path d="M-239.5336 -91.7217
L-239.7122 -91.8169
" />
<path d="M-239.7122 -91.8169
L-239.7836 -92.0074
" />
<path d="M-239.7836 -92.0074
L-239.5693 -93.7217
" />
<path d="M-237.9979 -91.8169
L-238.2003 -91.7217
" />
<path d="M-238.2003 -91.7217
L-238.5812 -91.7217
" />
<path d="M-238.5812 -91.7217
L-238.7598 -91.8169
" />
<path d="M-238.7598 -91.8169
L-238.8312 -92.0074
" />
<path d="M-238.8312 -92.0074
L-238.7360 -92.7693
" />
<path d="M-238.7360 -92.7693
L-238.6169 -92.9598
" />
<path d="M-238.6169 -92.9598
L-238.4145 -93.0550
" />
<path d="M-238.4145 -93.0550
L-238.0336 -93.0550
" />
<path d="M-238.0336 -93.0550
L-237.8550 -92.9598
" />
<path d="M-237.8550 -92.9598
L-237.7836 -92.7693
" />
<path d="M-237.7836 -92.7693
L-237.8074 -92.5788
" />
<path d="M-237.8074 -92.5788
L-238.7836 -92.3883
" />
<path d="M-237.0336 -91.9122
L-236.9503 -91.8169
" />
<path d="M-236.9503 -91.8169
L-237.0574 -91.7217
" />
<path d="M-237.0574 -91.7217
L-237.1407 -91.8169
" />
<path d="M-237.1407 -91.8169
L-237.0336 -91.9122
" />
<path d="M-237.0336 -91.9122
L-237.0574 -91.7217
" />
<path d="M-236.9026 -92.9598
L-236.8193 -92.8645
" />
<path d="M-236.8193 -92.8645
L-236.9265 -92.7693
" />
<path d="M-236.9265 -92.7693
L-237.0098 -92.8645
" />
<path d="M-237.0098 -92.8645
L-236.9026 -92.9598
" />
<path d="M-236.9026 -92.9598
L-236.9265 -92.7693
" />
</g></g>
<g style="fill:none; 
stroke:#C872AB; stroke-width:0.1500; stroke-opacity:1; 
stroke-linecap:round; stroke-linejoin:round;">
<text x="-244.1658" y="-95.4761"
textLength="26.3643" font-size="2.0000" lengthAdjust="spacingAndGlyphs"
text-anchor="start" opacity="0" stroke-opacity="0">File: joystick.kicad_pcb</text>
<g class="stroked-text"><desc>File: joystick.kicad_pcb</desc>
<path d="M-243.2100 -96.3257
L-243.7100 -96.3257
" />
<path d="M-243.7100 -95.5400
L-243.7100 -97.0400
" />
<path d="M-243.7100 -97.0400
L-242.9957 -97.0400
" />
<path d="M-242.4243 -95.5400
L-242.4243 -96.5400
" />
<path d="M-242.4243 -97.0400
L-242.4957 -96.9686
" />
<path d="M-242.4957 -96.9686
L-242.4243 -96.8971
" />
<path d="M-242.4243 -96.8971
L-242.3528 -96.9686
" />
<path d="M-242.3528 -96.9686
L-242.4243 -97.0400
" />
<path d="M-242.4243 -97.0400
L-242.4243 -96.8971
" />
<path d="M-241.4957 -95.5400
L-241.6385 -95.6114
" />
<path d="M-241.6385 -95.6114
L-241.7100 -95.7543
" />
<path d="M-241.7100 -95.7543
L-241.7100 -97.0400
" />
<path d="M-240.3528 -95.6114
L-240.4957 -95.5400
" />
<path d="M-240.4957 -95.5400
L-240.7814 -95.5400
" />
<path d="M-240.7814 -95.5400
L-240.9243 -95.6114
" />
<path d="M-240.9243 -95.6114
L-240.9957 -95.7543
" />
<path d="M-240.9957 -95.7543
L-240.9957 -96.3257
" />
<path d="M-240.9957 -96.3257
L-240.9243 -96.4686
" />
<path d="M-240.9243 -96.4686
L-240.7814 -96.5400
" />
<path d="M-240.7814 -96.5400
L-240.4957 -96.5400
" />
<path d="M-240.4957 -96.5400
L-240.3528 -96.4686
" />
<path d="M-240.3528 -96.4686
L-240.2814 -96.3257
" />
<path d="M-240.2814 -96.3257
L-240.2814 -96.1828
" />
<path d="M-240.2814 -96.1828
L-240.9957 -96.0400
" />
<path d="M-239.6385 -95.6828
L-239.5671 -95.6114
" />
<path d="M-239.5671 -95.6114
L-239.6385 -95.5400
" />
<path d="M-239.6385 -95.5400
L-239.7100 -95.6114
" />
<path d="M-239.7100 -95.6114
L-239.6385 -95.6828
" />
<path d="M-239.6385 -95.6828
L-239.6385 -95.5400
" />
<path d="M-239.6385 -96.4686
L-239.5671 -96.3971
" />
<path d="M-239.5671 -96.3971
L-239.6385 -96.3257
" />
<path d="M-239.6385 -96.3257
L-239.7100 -96.3971
" />
<path d="M-239.7100 -96.3971
L-239.6385 -96.4686
" />
<path d="M-239.6385 -96.4686
L-239.6385 -96.3257
" />
<path d="M-237.7814 -96.5400
L-237.7814 -95.2543
" />
<path d="M-237.7814 -95.2543
L-237.8528 -95.1114
" />
<path d="M-237.8528 -95.1114
L-237.9957 -95.0400
" />
<path d="M-237.9957 -95.0400
L-238.0671 -95.0400
" />
<path d="M-237.7814 -97.0400
L-237.8528 -96.9686
" />
<path d="M-237.8528 -96.9686
L-237.7814 -96.8971
" />
<path d="M-237.7814 -96.8971
L-237.7100 -96.9686
" />
<path d="M-237.7100 -96.9686
L-237.7814 -97.0400
" />
<path d="M-237.7814 -97.0400
L-237.7814 -96.8971
" />
<path d="M-236.8528 -95.5400
L-236.9957 -95.6114
" />
<path d="M-236.9957 -95.6114
L-237.0671 -95.6828
" />
<path d="M-237.0671 -95.6828
L-237.1385 -95.8257
" />
<path d="M-237.1385 -95.8257
L-237.1385 -96.2543
" />
<path d="M-237.1385 -96.2543
L-237.0671 -96.3971
" />
<path d="M-237.0671 -96.3971
L-236.9957 -96.4686
" />
<path d="M-236.9957 -96.4686
L-236.8528 -96.5400
" />
<path d="M-236.8528 -96.5400
L-236.6385 -96.5400
" />
<path d="M-236.6385 -96.5400
L-236.4957 -96.4686
" />
<path d="M-236.4957 -96.4686
L-236.4243 -96.3971
" />
<path d="M-236.4243 -96.3971
L-236.3528 -96.2543
" />
<path d="M-236.3528 -96.2543
L-236.3528 -95.8257
" />
<path d="M-236.3528 -95.8257
L-236.4243 -95.6828
" />
<path d="M-236.4243 -95.6828
L-236.4957 -95.6114
" />
<path d="M-236.4957 -95.6114
L-236.6385 -95.5400
" />
<path d="M-236.6385 -95.5400
L-236.8528 -95.5400
" />
<path d="M-235.8528 -96.5400
L-235.4957 -95.5400
" />
<path d="M-235.1385 -96.5400
L-235.4957 -95.5400
" />
<path d="M-235.4957 -95.5400
L-235.6385 -95.1828
" />
<path d="M-235.6385 -95.1828
L-235.7100 -95.1114
" />
<path d="M-235.7100 -95.1114
L-235.8528 -95.0400
" />
<path d="M-234.6385 -95.6114
L-234.4957 -95.5400
" />
<path d="M-234.4957 -95.5400
L-234.2100 -95.5400
" />
<path d="M-234.2100 -95.5400
L-234.0671 -95.6114
" />
<path d="M-234.0671 -95.6114
L-233.9957 -95.7543
" />
<path d="M-233.9957 -95.7543
L-233.9957 -95.8257
" />
<path d="M-233.9957 -95.8257
L-234.0671 -95.9686
" />
<path d="M-234.0671 -95.9686
L-234.2100 -96.0400
" />
<path d="M-234.2100 -96.0400
L-234.4243 -96.0400
" />
<path d="M-234.4243 -96.0400
L-234.5671 -96.1114
" />
<path d="M-234.5671 -96.1114
L-234.6385 -96.2543
" />
<path d="M-234.6385 -96.2543
L-234.6385 -96.3257
" />
<path d="M-234.6385 -96.3257
L-234.5671 -96.4686
" />
<path d="M-234.5671 -96.4686
L-234.4243 -96.5400
" />
<path d="M-234.4243 -96.5400
L-234.2100 -96.5400
" />
<path d="M-234.2100 -96.5400
L-234.0671 -96.4686
" />
<path d="M-233.5671 -96.5400
L-232.9957 -96.5400
" />
<path d="M-233.3528 -97.0400
L-233.3528 -95.7543
" />
<path d="M-233.3528 -95.7543
L-233.2814 -95.6114
" />
<path d="M-233.2814 -95.6114
L-233.1385 -95.5400
" />
<path d="M-233.1385 -95.5400
L-232.9957 -95.5400
" />
<path d="M-232.4957 -95.5400
L-232.4957 -96.5400
" />
<path d="M-232.4957 -97.0400
L-232.5671 -96.9686
" />
<path d="M-232.5671 -96.9686
L-232.4957 -96.8971
" />
<path d="M-232.4957 -96.8971
L-232.4243 -96.9686
" />
<path d="M-232.4243 -96.9686
L-232.4957 -97.0400
" />
<path d="M-232.4957 -97.0400
L-232.4957 -96.8971
" />
<path d="M-231.1385 -95.6114
L-231.2814 -95.5400
" />
<path d="M-231.2814 -95.5400
L-231.5671 -95.5400
" />
<path d="M-231.5671 -95.5400
L-231.7100 -95.6114
" />
<path d="M-231.7100 -95.6114
L-231.7814 -95.6828
" />
<path d="M-231.7814 -95.6828
L-231.8528 -95.8257
" />
<path d="M-231.8528 -95.8257
L-231.8528 -96.2543
" />
<path d="M-231.8528 -96.2543
L-231.7814 -96.3971
" />
<path d="M-231.7814 -96.3971
L-231.7100 -96.4686
" />
<path d="M-231.7100 -96.4686
L-231.5671 -96.5400
" />
<path d="M-231.5671 -96.5400
L-231.2814 -96.5400
" />
<path d="M-231.2814 -96.5400
L-231.1385 -96.4686
" />
<path d="M-230.4957 -95.5400
L-230.4957 -97.0400
" />
<path d="M-230.3528 -96.1114
L-229.9243 -95.5400
" />
<path d="M-229.9243 -96.5400
L-230.4957 -95.9686
" />
<path d="M-229.2814 -95.6828
L-229.2100 -95.6114
" />
<path d="M-229.2100 -95.6114
L-229.2814 -95.5400
" />
<path d="M-229.2814 -95.5400
L-229.3528 -95.6114
" />
<path d="M-229.3528 -95.6114
L-229.2814 -95.6828
" />
<path d="M-229.2814 -95.6828
L-229.2814 -95.5400
" />
<path d="M-228.5671 -95.5400
L-228.5671 -97.0400
" />
<path d="M-228.4243 -96.1114
L-227.9957 -95.5400
" />
<path d="M-227.9957 -96.5400
L-228.5671 -95.9686
" />
<path d="M-227.3528 -95.5400
L-227.3528 -96.5400
" />
<path d="M-227.3528 -97.0400
L-227.4243 -96.9686
" />
<path d="M-227.4243 -96.9686
L-227.3528 -96.8971
" />
<path d="M-227.3528 -96.8971
L-227.2814 -96.9686
" />
<path d="M-227.2814 -96.9686
L-227.3528 -97.0400
" />
<path d="M-227.3528 -97.0400
L-227.3528 -96.8971
" />
<path d="M-225.9957 -95.6114
L-226.1385 -95.5400
" />
<path d="M-226.1385 -95.5400
L-226.4243 -95.5400
" />
<path d="M-226.4243 -95.5400
L-226.5671 -95.6114
" />
<path d="M-226.5671 -95.6114
L-226.6385 -95.6828
" />
<path d="M-226.6385 -95.6828
L-226.7100 -95.8257
" />
<path d="M-226.7100 -95.8257
L-226.7100 -96.2543
" />
<path d="M-226.7100 -96.2543
L-226.6385 -96.3971
" />
<path d="M-226.6385 -96.3971
L-226.5671 -96.4686
" />
<path d="M-226.5671 -96.4686
L-226.4243 -96.5400
" />
<path d="M-226.4243 -96.5400
L-226.1385 -96.5400
" />
<path d="M-226.1385 -96.5400
L-225.9957 -96.4686
" />
<path d="M-224.7100 -95.5400
L-224.7100 -96.3257
" />
<path d="M-224.7100 -96.3257
L-224.7814 -96.4686
" />
<path d="M-224.7814 -96.4686
L-224.9243 -96.5400
" />
<path d="M-224.9243 -96.5400
L-225.2100 -96.5400
" />
<path d="M-225.2100 -96.5400
L-225.3528 -96.4686
" />
<path d="M-224.7100 -95.6114
L-224.8528 -95.5400
" />
<path d="M-224.8528 -95.5400
L-225.2100 -95.5400
" />
<path d="M-225.2100 -95.5400
L-225.3528 -95.6114
" />
<path d="M-225.3528 -95.6114
L-225.4243 -95.7543
" />
<path d="M-225.4243 -95.7543
L-225.4243 -95.8971
" />
<path d="M-225.4243 -95.8971
L-225.3528 -96.0400
" />
<path d="M-225.3528 -96.0400
L-225.2100 -96.1114
" />
<path d="M-225.2100 -96.1114
L-224.8528 -96.1114
" />
<path d="M-224.8528 -96.1114
L-224.7100 -96.1828
" />
<path d="M-223.3528 -95.5400
L-223.3528 -97.0400
" />
<path d="M-223.3528 -95.6114
L-223.4957 -95.5400
" />
<path d="M-223.4957 -95.5400
L-223.7814 -95.5400
" />
<path d="M-223.7814 -95.5400
L-223.9243 -95.6114
" />
<path d="M-223.9243 -95.6114
L-223.9957 -95.6828
" />
<path d="M-223.9957 -95.6828
L-224.0671 -95.8257
" />
<path d="M-224.0671 -95.8257
L-224.0671 -96.2543
" />
<path d="M-224.0671 -96.2543
L-223.9957 -96.3971
" />
<path d="M-223.9957 -96.3971
L-223.9243 -96.4686
" />
<path d="M-223.9243 -96.4686
L-223.7814 -96.5400
" />
<path d="M-223.7814 -96.5400
L-223.4957 -96.5400
" />
<path d="M-223.4957 -96.5400
L-223.3528 -96.4686
" />
<path d="M-222.9957 -95.3971
L-221.8528 -95.3971
" />
<path d="M-221.4957 -96.5400
L-221.4957 -95.0400
" />
<path d="M-221.4957 -96.4686
L-221.3528 -96.5400
" />
<path d="M-221.3528 -96.5400
L-221.0671 -96.5400
" />
<path d="M-221.0671 -96.5400
L-220.9243 -96.4686
" />
<path d="M-220.9243 -96.4686
L-220.8528 -96.3971
" />
<path d="M-220.8528 -96.3971
L-220.7814 -96.2543
" />
<path d="M-220.7814 -96.2543
L-220.7814 -95.8257
" />
<path d="M-220.7814 -95.8257
L-220.8528 -95.6828
" />
<path d="M-220.8528 -95.6828
L-220.9243 -95.6114
" />
<path d="M-220.9243 -95.6114
L-221.0671 -95.5400
" />
<path d="M-221.0671 -95.5400
L-221.3528 -95.5400
" />
<path d="M-221.3528 -95.5400
L-221.4957 -95.6114
" />
<path d="M-219.4957 -95.6114
L-219.6385 -95.5400
" />
<path d="M-219.6385 -95.5400
L-219.9243 -95.5400
" />
<path d="M-219.9243 -95.5400
L-220.0671 -95.6114
" />
<path d="M-220.0671 -95.6114
L-220.1385 -95.6828
" />
<path d="M-220.1385 -95.6828
L-220.2100 -95.8257
" />
<path d="M-220.2100 -95.8257
L-220.2100 -96.2543
" />
<path d="M-220.2100 -96.2543
L-220.1385 -96.3971
" />
<path d="M-220.1385 -96.3971
L-220.0671 -96.4686
" />
<path d="M-220.0671 -96.4686
L-219.9243 -96.5400
" />
<path d="M-219.9243 -96.5400
L-219.6385 -96.5400
" />
<path d="M-219.6385 -96.5400
L-219.4957 -96.4686
" />
<path d="M-218.8528 -95.5400
L-218.8528 -97.0400
" />
<path d="M-218.8528 -96.4686
L-218.7100 -96.5400
" />
<path d="M-218.7100 -96.5400
L-218.4243 -96.5400
" />
<path d="M-218.4243 -96.5400
L-218.2814 -96.4686
" />
<path d="M-218.2814 -96.4686
L-218.2100 -96.3971
" />
<path d="M-218.2100 -96.3971
L-218.1385 -96.2543
" />
<path d="M-218.1385 -96.2543
L-218.1385 -95.8257
" />
<path d="M-218.1385 -95.8257
L-218.2100 -95.6828
" />
<path d="M-218.2100 -95.6828
L-218.2814 -95.6114
" />
<path d="M-218.2814 -95.6114
L-218.4243 -95.5400
" />
<path d="M-218.4243 -95.5400
L-218.7100 -95.5400
" />
<path d="M-218.7100 -95.5400
L-218.8528 -95.6114
" />
</g><path d="M-245.1658 -100.4261
L-137.1658 -100.4261
" />
<text x="-244.1658" y="-98.1761"
textLength="8.2214" font-size="2.0000" lengthAdjust="spacingAndGlyphs"
text-anchor="start" opacity="0" stroke-opacity="0">Sheet: </text>
<g class="stroked-text"><desc>Sheet: </desc>
<path d="M-243.7814 -98.3114
L-243.5671 -98.2400
" />
<path d="M-243.5671 -98.2400
L-243.2100 -98.2400
" />
<path d="M-243.2100 -98.2400
L-243.0671 -98.3114
" />
<path d="M-243.0671 -98.3114
L-242.9957 -98.3828
" />
<path d="M-242.9957 -98.3828
L-242.9243 -98.5257
" />
<path d="M-242.9243 -98.5257
L-242.9243 -98.6686
" />
<path d="M-242.9243 -98.6686
L-242.9957 -98.8114
" />
<path d="M-242.9957 -98.8114
L-243.0671 -98.8828
" />
<path d="M-243.0671 -98.8828
L-243.2100 -98.9543
" />
<path d="M-243.2100 -98.9543
L-243.4957 -99.0257
" />
<path d="M-243.4957 -99.0257
L-243.6385 -99.0971
" />
<path d="M-243.6385 -99.0971
L-243.7100 -99.1686
" />
<path d="M-243.7100 -99.1686
L-243.7814 -99.3114
" />
<path d="M-243.7814 -99.3114
L-243.7814 -99.4543
" />
<path d="M-243.7814 -99.4543
L-243.7100 -99.5971
" />
<path d="M-243.7100 -99.5971
L-243.6385 -99.6686
" />
<path d="M-243.6385 -99.6686
L-243.4957 -99.7400
" />
<path d="M-243.4957 -99.7400
L-243.1385 -99.7400
" />
<path d="M-243.1385 -99.7400
L-242.9243 -99.6686
" />
<path d="M-242.2814 -98.2400
L-242.2814 -99.7400
" />
<path d="M-241.6385 -98.2400
L-241.6385 -99.0257
" />
<path d="M-241.6385 -99.0257
L-241.7100 -99.1686
" />
<path d="M-241.7100 -99.1686
L-241.8528 -99.2400
" />
<path d="M-241.8528 -99.2400
L-242.0671 -99.2400
" />
<path d="M-242.0671 -99.2400
L-242.2100 -99.1686
" />
<path d="M-242.2100 -99.1686
L-242.2814 -99.0971
" />
<path d="M-240.3528 -98.3114
L-240.4957 -98.2400
" />
<path d="M-240.4957 -98.2400
L-240.7814 -98.2400
" />
<path d="M-240.7814 -98.2400
L-240.9243 -98.3114
" />
<path d="M-240.9243 -98.3114
L-240.9957 -98.4543
" />
<path d="M-240.9957 -98.4543
L-240.9957 -99.0257
" />
<path d="M-240.9957 -99.0257
L-240.9243 -99.1686
" />
<path d="M-240.9243 -99.1686
L-240.7814 -99.2400
" />
<path d="M-240.7814 -99.2400
L-240.4957 -99.2400
" />
<path d="M-240.4957 -99.2400
L-240.3528 -99.1686
" />
<path d="M-240.3528 -99.1686
L-240.2814 -99.0257
" />
<path d="M-240.2814 -99.0257
L-240.2814 -98.8828
" />
<path d="M-240.2814 -98.8828
L-240.9957 -98.7400
" />
<path d="M-239.0671 -98.3114
L-239.2100 -98.2400
" />
<path d="M-239.2100 -98.2400
L-239.4957 -98.2400
" />
<path d="M-239.4957 -98.2400
L-239.6385 -98.3114
" />
<path d="M-239.6385 -98.3114
L-239.7100 -98.4543
" />
<path d="M-239.7100 -98.4543
L-239.7100 -99.0257
" />
<path d="M-239.7100 -99.0257
L-239.6385 -99.1686
" />
<path d="M-239.6385 -99.1686
L-239.4957 -99.2400
" />
<path d="M-239.4957 -99.2400
L-239.2100 -99.2400
" />
<path d="M-239.2100 -99.2400
L-239.0671 -99.1686
" />
<path d="M-239.0671 -99.1686
L-238.9957 -99.0257
" />
<path d="M-238.9957 -99.0257
L-238.9957 -98.8828
" />
<path d="M-238.9957 -98.8828
L-239.7100 -98.7400
" />
<path d="M-238.5671 -99.2400
L-237.9957 -99.2400
" />
<path d="M-238.3528 -99.7400
L-238.3528 -98.4543
" />
<path d="M-238.3528 -98.4543
L-238.2814 -98.3114
" />
<path d="M-238.2814 -98.3114
L-238.1385 -98.2400
" />
<path d="M-238.1385 -98.2400
L-237.9957 -98.2400
" />
<path d="M-237.4957 -98.3828
L-237.4243 -98.3114
" />
<path d="M-237.4243 -98.3114
L-237.4957 -98.2400
" />
<path d="M-237.4957 -98.2400
L-237.5671 -98.3114
" />
<path d="M-237.5671 -98.3114
L-237.4957 -98.3828
" />
<path d="M-237.4957 -98.3828
L-237.4957 -98.2400
" />
<path d="M-237.4957 -99.1686
L-237.4243 -99.0971
" />
<path d="M-237.4243 -99.0971
L-237.4957 -99.0257
" />
<path d="M-237.4957 -99.0257
L-237.5671 -99.0971
" />
<path d="M-237.5671 -99.0971
L-237.4957 -99.1686
" />
<path d="M-237.4957 -99.1686
L-237.4957 -99.0257
" />
</g></g>
<g style="fill:none; 
stroke:#C872AB; stroke-width:0.3000; stroke-opacity:1; 
stroke-linecap:round; stroke-linejoin:round;">
<text x="-244.1658" y="-101.1761"
textLength="0.9000" font-size="2.0000" lengthAdjust="spacingAndGlyphs"
text-anchor="start" opacity="0" stroke-opacity="0"></text>
<g class="stroked-text"><desc></desc>
</g></g>
<g style="fill:none; 
stroke:#C872AB; stroke-width:0.1500; stroke-opacity:1; 
stroke-linecap:round; stroke-linejoin:round;">
<text x="-244.1658" y="-104.1761"
textLength="0.4500" font-size="2.0000" lengthAdjust="spacingAndGlyphs"
text-anchor="start" opacity="0" stroke-opacity="0"></text>
<g class="stroked-text"><desc></desc>
</g><text x="-244.1658" y="-107.1761"
textLength="0.4500" font-size="2.0000" lengthAdjust="spacingAndGlyphs"
text-anchor="start" opacity="0" stroke-opacity="0"></text>
<g class="stroked-text"><desc></desc>
</g><text x="-244.1658" y="-110.1761"
textLength="0.4500" font-size="2.0000" lengthAdjust="spacingAndGlyphs"
text-anchor="start" opacity="0" stroke-opacity="0"></text>
<g class="stroked-text"><desc></desc>
</g><text x="-244.1658" y="-113.1761"
textLength="0.4500" font-size="2.0000" lengthAdjust="spacingAndGlyphs"
text-anchor="start" opacity="0" stroke-opacity="0"></text>
<g class="stroked-text"><desc></desc>
</g><path d="M-225.1658 -90.4261
L-225.1658 -87.4261
" />
<path d="M-161.1658 -90.4261
L-161.1658 -83.9261
" />
<path style="fill:#C83434; fill-opacity:1.0000; stroke:none;fill-rule:evenodd;"
d="M 1.1276,1.3154
1.1466,1.2197
1.2008,1.1386
1.2819,1.0844
1.3776,1.0654
1.9076,1.0654
2.0033,1.0844
2.0844,1.1386
2.1386,1.2197
2.1576,1.3154
2.1576,2.5454
2.1386,2.6411
2.0844,2.7222
2.0033,2.7764
1.9076,2.7954
1.3776,2.7954
1.2819,2.7764
1.2008,2.7222
1.1466,2.6411
1.1276,2.5454
Z" /> 
</g>
<g style="fill:none; 
stroke:#C83434; stroke-width:1.0300; stroke-opacity:1; 
stroke-linecap:round; stroke-linejoin:round;">
<path d="M3.1426 1.5804
L3.1426 2.2804
" />
<path d="M4.6426 1.5804
L4.6426 2.2804
" />
<path d="M6.1426 1.5804
L6.1426 2.2804
" />
<path d="M7.6426 1.5804
L7.6426 2.2804
" />
<path d="M9.1426 1.5804
L9.1426 2.2804
" />
</g>
<g style="fill:none; 
stroke:#C83434; stroke-width:1.2000; stroke-opacity:1; 
stroke-linecap:round; stroke-linejoin:round;">
<path d="M29.2408 1.3304
L29.2408 2.5304
" />
<path d="M31.6908 1.3304
L31.6908 2.5304
" />
</g>
<g style="fill:#C83434; fill-opacity:1.0000; stroke:none;">
<circle cx="7.7598" cy="11.6916" r="0.9000" /> 
<circle cx="7.7598" cy="14.2316" r="0.9000" /> 
<circle cx="7.7598" cy="16.7716" r="0.9000" /> 
<circle cx="13.9498" cy="22.9516" r="0.9000" /> 
<circle cx="16.4898" cy="22.9516" r="0.9000" /> 
<circle cx="19.0298" cy="22.9516" r="0.9000" /> 
<circle cx="22.8198" cy="19.2216" r="1.2500" /> 
<circle cx="22.8198" cy="9.2316" r="1.2500" /> 
<circle cx="10.1698" cy="9.2316" r="1.2500" /> 
<circle cx="10.1698" cy="19.2216" r="1.2500" /> 
</g>
<g style="fill:none; 
stroke:#C83434; stroke-width:1.2000; stroke-opacity:1; 
stroke-linecap:round; stroke-linejoin:round;">
<path d="M22.5722 1.3558
L22.5722 2.5558
" />
<path style="fill:#C83434; fill-opacity:1.0000; stroke:none;fill-rule:evenodd;"
d="M 31.5840,20.2810
29.8840,20.2810
29.8840,18.5810
31.5840,18.5810
Z" /> 
</g>
<g style="fill:#C83434; fill-opacity:1.0000; stroke:none;">
<circle cx="30.7340" cy="16.8910" r="0.8500" /> 
<circle cx="28.1940" cy="19.4310" r="0.8500" /> 
<circle cx="28.1940" cy="16.8910" r="0.8500" /> 
<circle cx="25.6540" cy="19.4310" r="0.8500" /> 
<circle cx="25.6540" cy="16.8910" r="0.8500" /> 
</g>
<g style="fill:none; 
stroke:#F2EDA1; stroke-width:0.1750; stroke-opacity:1; 
stroke-linecap:round; stroke-linejoin:round;">
<text x="1.2362" y="4.4958"
textLength="1.0517" font-size="0.9333" lengthAdjust="spacingAndGlyphs"
text-anchor="start" opacity="0" stroke-opacity="0">6</text>
<g class="stroked-text"><desc>6</desc>
<path d="M1.8180 3.7010
L1.6847 3.7010
" />
<path d="M1.6847 3.7010
L1.6180 3.7344
" />
<path d="M1.6180 3.7344
L1.5847 3.7677
" />
<path d="M1.5847 3.7677
L1.5180 3.8677
" />
<path d="M1.5180 3.8677
L1.4847 4.0010
" />
<path d="M1.4847 4.0010
L1.4847 4.2677
" />
<path d="M1.4847 4.2677
L1.5180 4.3344
" />
<path d="M1.5180 4.3344
L1.5513 4.3677
" />
<path d="M1.5513 4.3677
L1.6180 4.4010
" />
<path d="M1.6180 4.4010
L1.7513 4.4010
" />
<path d="M1.7513 4.4010
L1.8180 4.3677
" />
<path d="M1.8180 4.3677
L1.8513 4.3344
" />
<path d="M1.8513 4.3344
L1.8847 4.2677
" />
<path d="M1.8847 4.2677
L1.8847 4.1010
" />
<path d="M1.8847 4.1010
L1.8513 4.0344
" />
<path d="M1.8513 4.0344
L1.8180 4.0010
" />
<path d="M1.8180 4.0010
L1.7513 3.9677
" />
<path d="M1.7513 3.9677
L1.6180 3.9677
" />
<path d="M1.6180 3.9677
L1.5513 4.0010
" />
<path d="M1.5513 4.0010
L1.5180 4.0344
" />
<path d="M1.5180 4.0344
L1.4847 4.1010
" />
</g><text x="31.2336" y="4.5466"
textLength="1.0517" font-size="0.9333" lengthAdjust="spacingAndGlyphs"
text-anchor="start" opacity="0" stroke-opacity="0">Z</text>
<g class="stroked-text"><desc>Z</desc>
<path d="M31.4487 3.7518
L31.9154 3.7518
" />
<path d="M31.9154 3.7518
L31.4487 4.4518
" />
<path d="M31.4487 4.4518
L31.9154 4.4518
" />
</g><text x="28.8968" y="4.5720"
textLength="0.9517" font-size="0.9333" lengthAdjust="spacingAndGlyphs"
text-anchor="start" opacity="0" stroke-opacity="0">L</text>
<g class="stroked-text"><desc>L</desc>
<path d="M29.5119 4.4772
L29.1786 4.4772
" />
<path d="M29.1786 4.4772
L29.1786 3.7772
" />
</g></g>
<g style="fill:none; 
stroke:#F2EDA1; stroke-width:0.2500; stroke-opacity:1; 
stroke-linecap:round; stroke-linejoin:round;">
<text x="11.8788" y="25.6794"
textLength="9.4071" font-size="1.3333" lengthAdjust="spacingAndGlyphs"
text-anchor="start" opacity="0" stroke-opacity="0">DANK STICK</text>
<g class="stroked-text"><desc>DANK STICK</desc>
<path d="M12.2814 25.5440
L12.2814 24.5440
" />
<path d="M12.2814 24.5440
L12.5195 24.5440
" />
<path d="M12.5195 24.5440
L12.6623 24.5916
" />
<path d="M12.6623 24.5916
L12.7576 24.6869
" />
<path d="M12.7576 24.6869
L12.8052 24.7821
" />
<path d="M12.8052 24.7821
L12.8528 24.9726
" />
<path d="M12.8528 24.9726
L12.8528 25.1154
" />
<path d="M12.8528 25.1154
L12.8052 25.3059
" />
<path d="M12.8052 25.3059
L12.7576 25.4012
" />
<path d="M12.7576 25.4012
L12.6623 25.4964
" />
<path d="M12.6623 25.4964
L12.5195 25.5440
" />
<path d="M12.5195 25.5440
L12.2814 25.5440
" />
<path d="M13.2337 25.2583
L13.7099 25.2583
" />
<path d="M13.1385 25.5440
L13.4718 24.5440
" />
<path d="M13.4718 24.5440
L13.8052 25.5440
" />
<path d="M14.1385 25.5440
L14.1385 24.5440
" />
<path d="M14.1385 24.5440
L14.7099 25.5440
" />
<path d="M14.7099 25.5440
L14.7099 24.5440
" />
<path d="M15.1861 25.5440
L15.1861 24.5440
" />
<path d="M15.7576 25.5440
L15.3290 24.9726
" />
<path d="M15.7576 24.5440
L15.1861 25.1154
" />
<path d="M16.9004 25.4964
L17.0433 25.5440
" />
<path d="M17.0433 25.5440
L17.2814 25.5440
" />
<path d="M17.2814 25.5440
L17.3766 25.4964
" />
<path d="M17.3766 25.4964
L17.4242 25.4488
" />
<path d="M17.4242 25.4488
L17.4718 25.3535
" />
<path d="M17.4718 25.3535
L17.4718 25.2583
" />
<path d="M17.4718 25.2583
L17.4242 25.1631
" />
<path d="M17.4242 25.1631
L17.3766 25.1154
" />
<path d="M17.3766 25.1154
L17.2814 25.0678
" />
<path d="M17.2814 25.0678
L17.0909 25.0202
" />
<path d="M17.0909 25.0202
L16.9957 24.9726
" />
<path d="M16.9957 24.9726
L16.9480 24.9250
" />
<path d="M16.9480 24.9250
L16.9004 24.8297
" />
<path d="M16.9004 24.8297
L16.9004 24.7345
" />
<path d="M16.9004 24.7345
L16.9480 24.6393
" />
<path d="M16.9480 24.6393
L16.9957 24.5916
" />
<path d="M16.9957 24.5916
L17.0909 24.5440
" />
<path d="M17.0909 24.5440
L17.3290 24.5440
" />
<path d="M17.3290 24.5440
L17.4718 24.5916
" />
<path d="M17.7576 24.5440
L18.3290 24.5440
" />
<path d="M18.0433 25.5440
L18.0433 24.5440
" />
<path d="M18.6623 25.5440
L18.6623 24.5440
" />
<path d="M19.7099 25.4488
L19.6623 25.4964
" />
<path d="M19.6623 25.4964
L19.5195 25.5440
" />
<path d="M19.5195 25.5440
L19.4242 25.5440
" />
<path d="M19.4242 25.5440
L19.2814 25.4964
" />
<path d="M19.2814 25.4964
L19.1861 25.4012
" />
<path d="M19.1861 25.4012
L19.1385 25.3059
" />
<path d="M19.1385 25.3059
L19.0909 25.1154
" />
<path d="M19.0909 25.1154
L19.0909 24.9726
" />
<path d="M19.0909 24.9726
L19.1385 24.7821
" />
<path d="M19.1385 24.7821
L19.1861 24.6869
" />
<path d="M19.1861 24.6869
L19.2814 24.5916
" />
<path d="M19.2814 24.5916
L19.4242 24.5440
" />
<path d="M19.4242 24.5440
L19.5195 24.5440
" />
<path d="M19.5195 24.5440
L19.6623 24.5916
" />
<path d="M19.6623 24.5916
L19.7099 24.6393
" />
<path d="M20.1385 25.5440
L20.1385 24.5440
" />
<path d="M20.7099 25.5440
L20.2814 24.9726
" />
<path d="M20.7099 24.5440
L20.1385 25.1154
" />
</g></g>
<g style="fill:none; 
stroke:#F2EDA1; stroke-width:0.1750; stroke-opacity:1; 
stroke-linecap:round; stroke-linejoin:round;">
<text x="5.1478" y="4.5720"
textLength="1.0517" font-size="0.9333" lengthAdjust="spacingAndGlyphs"
text-anchor="start" opacity="0" stroke-opacity="0">4</text>
<g class="stroked-text"><desc>4</desc>
<path d="M5.7296 4.0106
L5.7296 4.4772
" />
<path d="M5.5629 3.7439
L5.3963 4.2439
" />
<path d="M5.3963 4.2439
L5.8296 4.2439
" />
</g><text x="21.5816" y="4.5974"
textLength="2.5183" font-size="0.9333" lengthAdjust="spacingAndGlyphs"
text-anchor="start" opacity="0" stroke-opacity="0">RNG</text>
<g class="stroked-text"><desc>RNG</desc>
<path d="M22.2634 4.5026
L22.0301 4.1693
" />
<path d="M21.8634 4.5026
L21.8634 3.8026
" />
<path d="M21.8634 3.8026
L22.1301 3.8026
" />
<path d="M22.1301 3.8026
L22.1967 3.8360
" />
<path d="M22.1967 3.8360
L22.2301 3.8693
" />
<path d="M22.2301 3.8693
L22.2634 3.9360
" />
<path d="M22.2634 3.9360
L22.2634 4.0360
" />
<path d="M22.2634 4.0360
L22.2301 4.1026
" />
<path d="M22.2301 4.1026
L22.1967 4.1360
" />
<path d="M22.1967 4.1360
L22.1301 4.1693
" />
<path d="M22.1301 4.1693
L21.8634 4.1693
" />
<path d="M22.5634 4.5026
L22.5634 3.8026
" />
<path d="M22.5634 3.8026
L22.9634 4.5026
" />
<path d="M22.9634 4.5026
L22.9634 3.8026
" />
<path d="M23.6634 3.8360
L23.5967 3.8026
" />
<path d="M23.5967 3.8026
L23.4967 3.8026
" />
<path d="M23.4967 3.8026
L23.3967 3.8360
" />
<path d="M23.3967 3.8360
L23.3301 3.9026
" />
<path d="M23.3301 3.9026
L23.2967 3.9693
" />
<path d="M23.2967 3.9693
L23.2634 4.1026
" />
<path d="M23.2634 4.1026
L23.2634 4.2026
" />
<path d="M23.2634 4.2026
L23.2967 4.3360
" />
<path d="M23.2967 4.3360
L23.3301 4.4026
" />
<path d="M23.3301 4.4026
L23.3967 4.4693
" />
<path d="M23.3967 4.4693
L23.4967 4.5026
" />
<path d="M23.4967 4.5026
L23.5634 4.5026
" />
<path d="M23.5634 4.5026
L23.6634 4.4693
" />
<path d="M23.6634 4.4693
L23.6967 4.4360
" />
<path d="M23.6967 4.4360
L23.6967 4.2026
" />
<path d="M23.6967 4.2026
L23.5634 4.2026
" />
</g><text x="11.1930" y="4.3942"
textLength="1.0517" font-size="0.9333" lengthAdjust="spacingAndGlyphs"
text-anchor="start" opacity="0" stroke-opacity="0">1</text>
<g class="stroked-text"><desc>1</desc>
<path d="M11.8415 4.2994
L11.4415 4.2994
" />
<path d="M11.6415 4.2994
L11.6415 3.5994
" />
<path d="M11.6415 3.5994
L11.5748 3.6994
" />
<path d="M11.5748 3.6994
L11.5081 3.7661
" />
<path d="M11.5081 3.7661
L11.4415 3.7994
" />
</g><text x="3.1666" y="4.5466"
textLength="1.0517" font-size="0.9333" lengthAdjust="spacingAndGlyphs"
text-anchor="start" opacity="0" stroke-opacity="0">5</text>
<g class="stroked-text"><desc>5</desc>
<path d="M3.7817 3.7518
L3.4484 3.7518
" />
<path d="M3.4484 3.7518
L3.4151 4.0852
" />
<path d="M3.4151 4.0852
L3.4484 4.0518
" />
<path d="M3.4484 4.0518
L3.5151 4.0185
" />
<path d="M3.5151 4.0185
L3.6817 4.0185
" />
<path d="M3.6817 4.0185
L3.7484 4.0518
" />
<path d="M3.7484 4.0518
L3.7817 4.0852
" />
<path d="M3.7817 4.0852
L3.8151 4.1518
" />
<path d="M3.8151 4.1518
L3.8151 4.3185
" />
<path d="M3.8151 4.3185
L3.7817 4.3852
" />
<path d="M3.7817 4.3852
L3.7484 4.4185
" />
<path d="M3.7484 4.4185
L3.6817 4.4518
" />
<path d="M3.6817 4.4518
L3.5151 4.4518
" />
<path d="M3.5151 4.4518
L3.4484 4.4185
" />
<path d="M3.4484 4.4185
L3.4151 4.3852
" />
</g><text x="9.2118" y="4.3942"
textLength="1.0517" font-size="0.9333" lengthAdjust="spacingAndGlyphs"
text-anchor="start" opacity="0" stroke-opacity="0">2</text>
<g class="stroked-text"><desc>2</desc>
<path d="M9.4603 3.6661
L9.4936 3.6328
" />
<path d="M9.4936 3.6328
L9.5603 3.5994
" />
<path d="M9.5603 3.5994
L9.7269 3.5994
" />
<path d="M9.7269 3.5994
L9.7936 3.6328
" />
<path d="M9.7936 3.6328
L9.8269 3.6661
" />
<path d="M9.8269 3.6661
L9.8603 3.7328
" />
<path d="M9.8603 3.7328
L9.8603 3.7994
" />
<path d="M9.8603 3.7994
L9.8269 3.8994
" />
<path d="M9.8269 3.8994
L9.4269 4.2994
" />
<path d="M9.4269 4.2994
L9.8603 4.2994
" />
</g></g>
<g style="fill:none; 
stroke:#F2EDA1; stroke-width:0.1250; stroke-opacity:1; 
stroke-linecap:round; stroke-linejoin:round;">
<text x="8.3228" y="3.8354"
textLength="0.7512" font-size="0.6667" lengthAdjust="spacingAndGlyphs"
text-anchor="start" opacity="0" stroke-opacity="0">3</text>
<g class="stroked-text"><desc>3</desc>
<path d="M8.4765 3.2677
L8.7860 3.2677
" />
<path d="M8.7860 3.2677
L8.6193 3.4582
" />
<path d="M8.6193 3.4582
L8.6907 3.4582
" />
<path d="M8.6907 3.4582
L8.7384 3.4820
" />
<path d="M8.7384 3.4820
L8.7622 3.5058
" />
<path d="M8.7622 3.5058
L8.7860 3.5534
" />
<path d="M8.7860 3.5534
L8.7860 3.6725
" />
<path d="M8.7860 3.6725
L8.7622 3.7201
" />
<path d="M8.7622 3.7201
L8.7384 3.7439
" />
<path d="M8.7384 3.7439
L8.6907 3.7677
" />
<path d="M8.6907 3.7677
L8.5479 3.7677
" />
<path d="M8.5479 3.7677
L8.5003 3.7439
" />
<path d="M8.5003 3.7439
L8.4765 3.7201
" />
</g></g>
<g style="fill:none; 
stroke:#F2EDA1; stroke-width:0.1750; stroke-opacity:1; 
stroke-linecap:round; stroke-linejoin:round;">
<text x="12.7678" y="21.4630"
textLength="7.4517" font-size="0.9333" lengthAdjust="spacingAndGlyphs"
text-anchor="start" opacity="0" stroke-opacity="0">V1 NOV 2025</text>
<g class="stroked-text"><desc>V1 NOV 2025</desc>
<path d="M12.9496 20.6682
L13.1829 21.3682
" />
<path d="M13.1829 21.3682
L13.4163 20.6682
" />
<path d="M14.0163 21.3682
L13.6163 21.3682
" />
<path d="M13.8163 21.3682
L13.8163 20.6682
" />
<path d="M13.8163 20.6682
L13.7496 20.7682
" />
<path d="M13.7496 20.7682
L13.6829 20.8349
" />
<path d="M13.6829 20.8349
L13.6163 20.8682
" />
<path d="M14.8496 21.3682
L14.8496 20.6682
" />
<path d="M14.8496 20.6682
L15.2496 21.3682
" />
<path d="M15.2496 21.3682
L15.2496 20.6682
" />
<path d="M15.7163 20.6682
L15.8496 20.6682
" />
<path d="M15.8496 20.6682
L15.9163 20.7016
" />
<path d="M15.9163 20.7016
L15.9829 20.7682
" />
<path d="M15.9829 20.7682
L16.0163 20.9016
" />
<path d="M16.0163 20.9016
L16.0163 21.1349
" />
<path d="M16.0163 21.1349
L15.9829 21.2682
" />
<path d="M15.9829 21.2682
L15.9163 21.3349
" />
<path d="M15.9163 21.3349
L15.8496 21.3682
" />
<path d="M15.8496 21.3682
L15.7163 21.3682
" />
<path d="M15.7163 21.3682
L15.6496 21.3349
" />
<path d="M15.6496 21.3349
L15.5829 21.2682
" />
<path d="M15.5829 21.2682
L15.5496 21.1349
" />
<path d="M15.5496 21.1349
L15.5496 20.9016
" />
<path d="M15.5496 20.9016
L15.5829 20.7682
" />
<path d="M15.5829 20.7682
L15.6496 20.7016
" />
<path d="M15.6496 20.7016
L15.7163 20.6682
" />
<path d="M16.2163 20.6682
L16.4496 21.3682
" />
<path d="M16.4496 21.3682
L16.6829 20.6682
" />
<path d="M17.4163 20.7349
L17.4496 20.7016
" />
<path d="M17.4496 20.7016
L17.5163 20.6682
" />
<path d="M17.5163 20.6682
L17.6829 20.6682
" />
<path d="M17.6829 20.6682
L17.7496 20.7016
" />
<path d="M17.7496 20.7016
L17.7829 20.7349
" />
<path d="M17.7829 20.7349
L17.8163 20.8016
" />
<path d="M17.8163 20.8016
L17.8163 20.8682
" />
<path d="M17.8163 20.8682
L17.7829 20.9682
" />
<path d="M17.7829 20.9682
L17.3829 21.3682
" />
<path d="M17.3829 21.3682
L17.8163 21.3682
" />
<path d="M18.2496 20.6682
L18.3163 20.6682
" />
<path d="M18.3163 20.6682
L18.3829 20.7016
" />
<path d="M18.3829 20.7016
L18.4163 20.7349
" />
<path d="M18.4163 20.7349
L18.4496 20.8016
" />
<path d="M18.4496 20.8016
L18.4829 20.9349
" />
<path d="M18.4829 20.9349
L18.4829 21.1016
" />
<path d="M18.4829 21.1016
L18.4496 21.2349
" />
<path d="M18.4496 21.2349
L18.4163 21.3016
" />
<path d="M18.4163 21.3016
L18.3829 21.3349
" />
<path d="M18.3829 21.3349
L18.3163 21.3682
" />
<path d="M18.3163 21.3682
L18.2496 21.3682
" />
<path d="M18.2496 21.3682
L18.1829 21.3349
" />
<path d="M18.1829 21.3349
L18.1496 21.3016
" />
<path d="M18.1496 21.3016
L18.1163 21.2349
" />
<path d="M18.1163 21.2349
L18.0829 21.1016
" />
<path d="M18.0829 21.1016
L18.0829 20.9349
" />
<path d="M18.0829 20.9349
L18.1163 20.8016
" />
<path d="M18.1163 20.8016
L18.1496 20.7349
" />
<path d="M18.1496 20.7349
L18.1829 20.7016
" />
<path d="M18.1829 20.7016
L18.2496 20.6682
" />
<path d="M18.7496 20.7349
L18.7829 20.7016
" />
<path d="M18.7829 20.7016
L18.8496 20.6682
" />
<path d="M18.8496 20.6682
L19.0163 20.6682
" />
<path d="M19.0163 20.6682
L19.0829 20.7016
" />
<path d="M19.0829 20.7016
L19.1163 20.7349
" />
<path d="M19.1163 20.7349
L19.1496 20.8016
" />
<path d="M19.1496 20.8016
L19.1496 20.8682
" />
<path d="M19.1496 20.8682
L19.1163 20.9682
" />
<path d="M19.1163 20.9682
L18.7163 21.3682
" />
<path d="M18.7163 21.3682
L19.1496 21.3682
" />
<path d="M19.7829 20.6682
L19.4496 20.6682
" />
<path d="M19.4496 20.6682
L19.4163 21.0016
" />
<path d="M19.4163 21.0016
L19.4496 20.9682
" />
<path d="M19.4496 20.9682
L19.5163 20.9349
" />
<path d="M19.5163 20.9349
L19.6829 20.9349
" />
<path d="M19.6829 20.9349
L19.7496 20.9682
" />
<path d="M19.7496 20.9682
L19.7829 21.0016
" />
<path d="M19.7829 21.0016
L19.8163 21.0682
" />
<path d="M19.8163 21.0682
L19.8163 21.2349
" />
<path d="M19.8163 21.2349
L19.7829 21.3016
" />
<path d="M19.7829 21.3016
L19.7496 21.3349
" />
<path d="M19.7496 21.3349
L19.6829 21.3682
" />
<path d="M19.6829 21.3682
L19.5163 21.3682
" />
<path d="M19.5163 21.3682
L19.4496 21.3349
" />
<path d="M19.4496 21.3349
L19.4163 21.3016
" />
</g><text x="27.2204" y="21.7678"
textLength="2.0850" font-size="0.9333" lengthAdjust="spacingAndGlyphs"
text-anchor="start" opacity="0" stroke-opacity="0">ISP</text>
<g class="stroked-text"><desc>ISP</desc>
<path d="M27.5022 21.6730
L27.5022 20.9730
" />
<path d="M27.8022 21.6397
L27.9022 21.6730
" />
<path d="M27.9022 21.6730
L28.0689 21.6730
" />
<path d="M28.0689 21.6730
L28.1355 21.6397
" />
<path d="M28.1355 21.6397
L28.1689 21.6064
" />
<path d="M28.1689 21.6064
L28.2022 21.5397
" />
<path d="M28.2022 21.5397
L28.2022 21.4730
" />
<path d="M28.2022 21.4730
L28.1689 21.4064
" />
<path d="M28.1689 21.4064
L28.1355 21.3730
" />
<path d="M28.1355 21.3730
L28.0689 21.3397
" />
<path d="M28.0689 21.3397
L27.9355 21.3064
" />
<path d="M27.9355 21.3064
L27.8689 21.2730
" />
<path d="M27.8689 21.2730
L27.8355 21.2397
" />
<path d="M27.8355 21.2397
L27.8022 21.1730
" />
<path d="M27.8022 21.1730
L27.8022 21.1064
" />
<path d="M27.8022 21.1064
L27.8355 21.0397
" />
<path d="M27.8355 21.0397
L27.8689 21.0064
" />
<path d="M27.8689 21.0064
L27.9355 20.9730
" />
<path d="M27.9355 20.9730
L28.1022 20.9730
" />
<path d="M28.1022 20.9730
L28.2022 21.0064
" />
<path d="M28.5022 21.6730
L28.5022 20.9730
" />
<path d="M28.5022 20.9730
L28.7689 20.9730
" />
<path d="M28.7689 20.9730
L28.8355 21.0064
" />
<path d="M28.8355 21.0064
L28.8689 21.0397
" />
<path d="M28.8689 21.0397
L28.9022 21.1064
" />
<path d="M28.9022 21.1064
L28.9022 21.2064
" />
<path d="M28.9022 21.2064
L28.8689 21.2730
" />
<path d="M28.8689 21.2730
L28.8355 21.3064
" />
<path d="M28.8355 21.3064
L28.7689 21.3397
" />
<path d="M28.7689 21.3397
L28.5022 21.3397
" />
</g></g>
<g style="fill:none; 
stroke:#F2EDA1; stroke-width:0.1500; stroke-opacity:1; 
stroke-linecap:round; stroke-linejoin:round;">
<text x="5.3926" y="-0.0696"
textLength="1.9643" font-size="1.3333" lengthAdjust="spacingAndGlyphs"
text-anchor="middle" opacity="0" stroke-opacity="0">J4</text>
<g class="stroked-text"><desc>J4</desc>
<path d="M5.0593 -1.1148
L5.0593 -0.4005
" />
<path d="M5.0593 -0.4005
L5.0116 -0.2576
" />
<path d="M5.0116 -0.2576
L4.9164 -0.1624
" />
<path d="M4.9164 -0.1624
L4.7736 -0.1148
" />
<path d="M4.7736 -0.1148
L4.6783 -0.1148
" />
<path d="M5.9640 -0.7814
L5.9640 -0.1148
" />
<path d="M5.7259 -1.1624
L5.4878 -0.4481
" />
<path d="M5.4878 -0.4481
L6.1069 -0.4481
" />
</g></g>
<g style="fill:none; 
stroke:#F2EDA1; stroke-width:0.1200; stroke-opacity:1; 
stroke-linecap:round; stroke-linejoin:round;">
<path d="M-0.1674 0.3204
L-0.1674 1.1204
" />
<path d="M0.0326 0.5204
L0.0326 4.2404
" />
<path d="M0.0326 1.4304
L0.4326 1.4304
" />
<path d="M0.0326 2.4304
L0.4326 2.4304
" />
<path d="M0.0326 4.2404
L10.7526 4.2404
" />
<path d="M0.4326 0.9204
L0.4326 3.8404
" />
<path d="M0.4326 3.8404
L10.3526 3.8404
" />
<path d="M0.6326 0.3204
L-0.1674 0.3204
" />
<path d="M1.0426 0.3204
L1.0426 0.5204
" />
<path d="M1.3426 0.3204
L1.0426 0.3204
" />
<path d="M1.3426 0.4204
L1.0426 0.4204
" />
<path d="M1.3426 0.5204
L1.3426 0.3204
" />
<path d="M2.2926 3.4404
L2.4926 3.4404
" />
<path d="M2.2926 3.8404
L2.2926 3.4404
" />
<path d="M2.3926 3.8404
L2.3926 3.4404
" />
<path d="M2.4926 3.4404
L2.4926 3.8404
" />
<path d="M3.7926 3.4404
L3.9926 3.4404
" />
<path d="M3.7926 3.8404
L3.7926 3.4404
" />
<path d="M3.8926 3.8404
L3.8926 3.4404
" />
<path d="M3.9926 3.4404
L3.9926 3.8404
" />
<path d="M5.2926 3.4404
L5.4926 3.4404
" />
<path d="M5.2926 3.8404
L5.2926 3.4404
" />
<path d="M5.3926 3.8404
L5.3926 3.4404
" />
<path d="M5.4926 3.4404
L5.4926 3.8404
" />
<path d="M6.7926 3.4404
L6.9926 3.4404
" />
<path d="M6.7926 3.8404
L6.7926 3.4404
" />
<path d="M6.8926 3.8404
L6.8926 3.4404
" />
<path d="M6.9926 3.4404
L6.9926 3.8404
" />
<path d="M8.2926 3.4404
L8.4926 3.4404
" />
<path d="M8.2926 3.8404
L8.2926 3.4404
" />
<path d="M8.3926 3.8404
L8.3926 3.4404
" />
<path d="M8.4926 3.4404
L8.4926 3.8404
" />
<path d="M10.3526 0.9204
L0.4326 0.9204
" />
<path d="M10.3526 3.8404
L10.3526 0.9204
" />
<path d="M10.7526 0.5204
L0.0326 0.5204
" />
<path d="M10.7526 1.4304
L10.3526 1.4304
" />
<path d="M10.7526 2.4304
L10.3526 2.4304
" />
<path d="M10.7526 4.2404
L10.7526 0.5204
" />
</g>
<g style="fill:none; 
stroke:#F2EDA1; stroke-width:0.2500; stroke-opacity:1; 
stroke-linecap:round; stroke-linejoin:round;">
<path d="M7.0898 10.0016
L7.5898 9.5016
" />
<path d="M7.0898 10.7816
L7.0898 10.0016
" />
<path d="M7.0898 13.3216
L7.0898 12.6016
" />
<path d="M7.0898 15.8616
L7.0898 15.1416
" />
<path d="M7.0898 18.4916
L7.0898 17.6816
" />
<path d="M7.5898 9.5016
L8.7098 9.5016
" />
<path d="M7.5898 18.9916
L7.0898 18.4916
" />
<path d="M8.7898 18.9916
L7.5898 18.9916
" />
<path d="M9.8898 7.7016
L12.1898 7.7016
" />
<path d="M11.7898 20.7916
L9.9898 20.7916
" />
<path d="M11.7898 23.1916
L11.7898 20.7916
" />
<path d="M12.1898 3.3016
L12.7898 2.7016
" />
<path d="M12.1898 7.7016
L12.1898 3.3016
" />
<path d="M12.2898 23.6916
L11.7898 23.1916
" />
<path d="M12.7898 2.7016
L20.1898 2.7016
" />
<path d="M13.0898 23.6916
L12.2898 23.6916
" />
<path d="M13.4898 3.7316
L12.2898 3.7316
" />
<path d="M13.4898 6.9316
L13.4898 3.7316
" />
<path d="M13.5898 7.0316
L13.4898 6.9316
" />
<path d="M14.8898 4.8316
L18.1898 4.8316
" />
<path d="M14.8898 6.0316
L14.8898 4.8316
" />
<path d="M15.2398 11.9816
L17.7398 11.9816
" />
<path d="M15.2398 13.2316
L15.2398 11.9816
" />
<path d="M15.2398 16.4816
L15.2398 15.2316
" />
<path d="M15.4898 4.1316
L15.4898 7.0316
" />
<path d="M15.4898 7.0316
L15.5898 7.0316
" />
<path d="M15.6298 23.6916
L14.8098 23.6916
" />
<path d="M17.4898 4.1316
L15.4898 4.1316
" />
<path d="M17.4898 7.0316
L17.4898 4.1316
" />
<path d="M17.7398 11.9816
L17.7398 13.2316
" />
<path d="M17.7398 15.2316
L17.7398 16.4816
" />
<path d="M17.7398 16.4816
L15.2398 16.4816
" />
<path d="M18.1698 23.6916
L17.3498 23.6916
" />
<path d="M18.1898 4.8316
L18.1898 6.0316
" />
<path d="M18.1898 6.0316
L14.8898 6.0316
" />
<path d="M18.8898 7.0316
L18.9898 6.9316
" />
<path d="M18.9898 3.7316
L20.5898 3.7316
" />
<path d="M18.9898 6.9316
L18.9898 3.7316
" />
<path d="M19.9898 13.2316
L12.9898 13.2316
" />
<path d="M19.9898 15.2316
L12.9898 15.2316
" />
<path d="M20.1898 2.7016
L20.7898 3.3016
" />
<path d="M20.6898 23.6916
L19.8898 23.6916
" />
<path d="M20.7898 3.3016
L20.7898 7.7016
" />
<path d="M20.7898 7.0416
L12.1898 7.0416
" />
<path d="M20.7898 7.7016
L23.0898 7.7016
" />
<path d="M21.2898 20.7916
L21.2898 23.0916
" />
<path d="M21.2898 23.0916
L20.6898 23.6916
" />
<path d="M23.0898 20.7916
L21.2898 20.7916
" />
<path d="M24.0898 18.4716
L24.0898 9.9916
" />
<path style="fill:#D864FF; fill-opacity:0.4000; stroke:none;fill-rule:evenodd;"
d="M 1.1276,1.3154
1.1466,1.2197
1.2008,1.1386
1.2819,1.0844
1.3776,1.0654
1.9076,1.0654
2.0033,1.0844
2.0844,1.1386
2.1386,1.2197
2.1576,1.3154
2.1576,2.5454
2.1386,2.6411
2.0844,2.7222
2.0033,2.7764
1.9076,2.7954
1.3776,2.7954
1.2819,2.7764
1.2008,2.7222
1.1466,2.6411
1.1276,2.5454
Z" /> 
</g>
<g style="fill:none; 
stroke:#D864FF; stroke-width:1.0300; stroke-opacity:1; 
stroke-linecap:round; stroke-linejoin:round;">
<path d="M3.1426 1.5804
L3.1426 2.2804
" />
<path d="M4.6426 1.5804
L4.6426 2.2804
" />
<path d="M6.1426 1.5804
L6.1426 2.2804
" />
<path d="M7.6426 1.5804
L7.6426 2.2804
" />
<path d="M9.1426 1.5804
L9.1426 2.2804
" />
</g>
<g style="fill:none; 
stroke:#D864FF; stroke-width:1.2000; stroke-opacity:1; 
stroke-linecap:round; stroke-linejoin:round;">
<path d="M29.2408 1.3304
L29.2408 2.5304
" />
<path d="M31.6908 1.3304
L31.6908 2.5304
" />
</g>
<g style="fill:#D864FF; fill-opacity:0.4000; stroke:none;">
<circle cx="7.7598" cy="11.6916" r="0.9000" /> 
<circle cx="7.7598" cy="14.2316" r="0.9000" /> 
<circle cx="7.7598" cy="16.7716" r="0.9000" /> 
<circle cx="13.9498" cy="22.9516" r="0.9000" /> 
<circle cx="16.4898" cy="22.9516" r="0.9000" /> 
<circle cx="19.0298" cy="22.9516" r="0.9000" /> 
<circle cx="22.8198" cy="19.2216" r="1.2500" /> 
<circle cx="22.8198" cy="9.2316" r="1.2500" /> 
<circle cx="10.1698" cy="9.2316" r="1.2500" /> 
<circle cx="10.1698" cy="19.2216" r="1.2500" /> 
</g>
<g style="fill:none; 
stroke:#D864FF; stroke-width:1.2000; stroke-opacity:1; 
stroke-linecap:round; stroke-linejoin:round;">
<path d="M22.5722 1.3558
L22.5722 2.5558
" />
</g>
<g style="fill:#D864FF; fill-opacity:0.4000; stroke:none;">
<circle cx="16.2208" cy="2.9747" r="0.4500" /> 
<circle cx="19.2208" cy="2.9747" r="0.4500" /> 
<path style="fill:#D864FF; fill-opacity:0.4000; stroke:none;fill-rule:evenodd;"
d="M 31.5840,20.2810
29.8840,20.2810
29.8840,18.5810
31.5840,18.5810
Z" /> 
<circle cx="30.7340" cy="16.8910" r="0.8500" /> 
<circle cx="28.1940" cy="19.4310" r="0.8500" /> 
<circle cx="28.1940" cy="16.8910" r="0.8500" /> 
<circle cx="25.6540" cy="19.4310" r="0.8500" /> 
<circle cx="25.6540" cy="16.8910" r="0.8500" /> 
</g>
<g style="fill:none; 
stroke:#D0D2CD; stroke-width:0.2500; stroke-opacity:1; 
stroke-linecap:round; stroke-linejoin:round;">
<circle cx="3.7505" cy="14.0495" r="1.1000" /> 
<path d="M21.1178 1.4948
L21.0987 1.4986
" />
<path d="M14.2491 1.4486
L14.2491 0.0000
" />
<circle cx="7.4995" cy="5.0478" r="1.3000" /> 
<circle cx="25.5005" cy="23.0488" r="1.3000" /> 
<path d="M14.2991 1.4986
L14.2800 1.4948
" />
<path d="M0.0000 20.4773
L6.0216 26.4989
" />
<path d="M21.1487 0.0000
L21.1487 1.4486
" />
<path d="M21.0987 1.4986
L14.2991 1.4986
" />
<path d="M14.2529 1.4677
L14.2491 1.4486
" />
<path d="M26.9784 26.4989
L33.0000 20.4773
" />
<path d="M33.0000 20.4773
L33.0000 0.0000
" />
<path d="M14.2800 1.4948
L14.2529 1.4677
" />
<path d="M14.2491 0.0000
L0.0000 0.0000
" />
<circle cx="7.4995" cy="23.0488" r="1.3000" /> 
<path d="M33.0000 0.0000
L21.1487 0.0000
" />
<circle cx="25.5005" cy="5.0478" r="1.3000" /> 
<path d="M6.0216 26.4989
L26.9784 26.4989
" />
<path d="M0.0000 0.0000
L0.0000 20.4773
" />
<circle cx="29.2495" cy="14.0495" r="1.1000" /> 
<path d="M21.1449 1.4677
L21.1178 1.4948
" />
<path d="M21.1487 1.4486
L21.1449 1.4677
" />
</g>
<g style="fill:#FFFFFF; fill-opacity:1.0000; stroke:none;">
<circle cx="1.6426" cy="1.9304" r="0.3650" /> 
</g>
<g style="fill:#FFFFFF; fill-opacity:1.0000; stroke:none;">
<circle cx="3.1426" cy="1.9304" r="0.3650" /> 
</g>
<g style="fill:#FFFFFF; fill-opacity:1.0000; stroke:none;">
<circle cx="4.6426" cy="1.9304" r="0.3650" /> 
</g>
<g style="fill:#FFFFFF; fill-opacity:1.0000; stroke:none;">
<circle cx="6.1426" cy="1.9304" r="0.3650" /> 
</g>
<g style="fill:#FFFFFF; fill-opacity:1.0000; stroke:none;">
<circle cx="7.6426" cy="1.9304" r="0.3650" /> 
</g>
<g style="fill:#FFFFFF; fill-opacity:1.0000; stroke:none;">
<circle cx="9.1426" cy="1.9304" r="0.3650" /> 
</g>
<g style="fill:#FFFFFF; fill-opacity:1.0000; stroke:none;">
<circle cx="29.2408" cy="1.9304" r="0.3000" /> 
</g>
<g style="fill:#FFFFFF; fill-opacity:1.0000; stroke:none;">
<circle cx="31.6908" cy="1.9304" r="0.3000" /> 
</g>
<g style="fill:#FFFFFF; fill-opacity:1.0000; stroke:none;">
<circle cx="7.7598" cy="11.6916" r="0.6000" /> 
</g>
<g style="fill:#FFFFFF; fill-opacity:1.0000; stroke:none;">
<circle cx="7.7598" cy="14.2316" r="0.6000" /> 
</g>
<g style="fill:#FFFFFF; fill-opacity:1.0000; stroke:none;">
<circle cx="7.7598" cy="16.7716" r="0.6000" /> 
</g>
<g style="fill:#FFFFFF; fill-opacity:1.0000; stroke:none;">
<circle cx="13.9498" cy="22.9516" r="0.6000" /> 
</g>
<g style="fill:#FFFFFF; fill-opacity:1.0000; stroke:none;">
<circle cx="16.4898" cy="22.9516" r="0.6000" /> 
</g>
<g style="fill:#FFFFFF; fill-opacity:1.0000; stroke:none;">
<circle cx="19.0298" cy="22.9516" r="0.6000" /> 
</g>
<g style="fill:#FFFFFF; fill-opacity:1.0000; stroke:none;">
<circle cx="22.8198" cy="19.2216" r="0.6000" /> 
</g>
<g style="fill:#FFFFFF; fill-opacity:1.0000; stroke:none;">
<circle cx="22.8198" cy="9.2316" r="0.6000" /> 
</g>
<g style="fill:#FFFFFF; fill-opacity:1.0000; stroke:none;">
<circle cx="10.1698" cy="9.2316" r="0.6000" /> 
</g>
<g style="fill:#FFFFFF; fill-opacity:1.0000; stroke:none;">
<circle cx="10.1698" cy="19.2216" r="0.6000" /> 
</g>
<g style="fill:#FFFFFF; fill-opacity:1.0000; stroke:none;">
<circle cx="22.5722" cy="1.9558" r="0.5000" /> 
</g>
<g style="fill:#000000; fill-opacity:1.0000; stroke:none;">
<circle cx="16.2208" cy="2.9747" r="0.4500" /> 
<circle cx="19.2208" cy="2.9747" r="0.4500" /> 
</g>
<g style="fill:#FFFFFF; fill-opacity:1.0000; stroke:none;">
<circle cx="30.7340" cy="19.4310" r="0.5000" /> 
</g>
<g style="fill:#FFFFFF; fill-opacity:1.0000; stroke:none;">
<circle cx="30.7340" cy="16.8910" r="0.5000" /> 
</g>
<g style="fill:#FFFFFF; fill-opacity:1.0000; stroke:none;">
<circle cx="28.1940" cy="19.4310" r="0.5000" /> 
</g>
<g style="fill:#FFFFFF; fill-opacity:1.0000; stroke:none;">
<circle cx="28.1940" cy="16.8910" r="0.5000" /> 
</g>
<g style="fill:#FFFFFF; fill-opacity:1.0000; stroke:none;">
<circle cx="25.6540" cy="19.4310" r="0.5000" /> 
</g>
<g style="fill:#FFFFFF; fill-opacity:1.0000; stroke:none;">
<circle cx="25.6540" cy="16.8910" r="0.5000" /> 
</g> 
</svg>
