%TF.GenerationSoftware,KiCad,Pcbnew,9.0.6*%
%TF.CreationDate,2025-11-13T20:17:55+05:00*%
%TF.ProjectId,joystick,6a6f7973-7469-4636-9b2e-6b696361645f,rev?*%
%TF.SameCoordinates,Original*%
%TF.FileFunction,Legend,Bot*%
%TF.FilePolarity,Positive*%
%FSLAX46Y46*%
G04 Gerber Fmt 4.6, Leading zero omitted, Abs format (unit mm)*
G04 Created by KiCad (PCBNEW 9.0.6) date 2025-11-13 20:17:55*
%MOMM*%
%LPD*%
G01*
G04 APERTURE LIST*
%ADD10C,0.150000*%
%ADD11C,0.120000*%
G04 APERTURE END LIST*
D10*
X136905904Y-78706019D02*
X136905904Y-79515542D01*
X136905904Y-79515542D02*
X136858285Y-79610780D01*
X136858285Y-79610780D02*
X136810666Y-79658400D01*
X136810666Y-79658400D02*
X136715428Y-79706019D01*
X136715428Y-79706019D02*
X136524952Y-79706019D01*
X136524952Y-79706019D02*
X136429714Y-79658400D01*
X136429714Y-79658400D02*
X136382095Y-79610780D01*
X136382095Y-79610780D02*
X136334476Y-79515542D01*
X136334476Y-79515542D02*
X136334476Y-78706019D01*
X135334476Y-79706019D02*
X135905904Y-79706019D01*
X135620190Y-79706019D02*
X135620190Y-78706019D01*
X135620190Y-78706019D02*
X135715428Y-78848876D01*
X135715428Y-78848876D02*
X135810666Y-78944114D01*
X135810666Y-78944114D02*
X135905904Y-78991733D01*
D11*
%TO.C,U1*%
X134084000Y-80096200D02*
X134084000Y-80161200D01*
X134084000Y-88901200D02*
X134084000Y-88966200D01*
X134084000Y-88966200D02*
X138204000Y-88966200D01*
X138204000Y-80096200D02*
X134084000Y-80096200D01*
X138204000Y-80161200D02*
X138204000Y-80096200D01*
X138204000Y-88966200D02*
X138204000Y-88901200D01*
X138744000Y-80161200D02*
X138504000Y-79831200D01*
X138984000Y-79831200D01*
X138744000Y-80161200D01*
G36*
X138744000Y-80161200D02*
G01*
X138504000Y-79831200D01*
X138984000Y-79831200D01*
X138744000Y-80161200D01*
G37*
%TD*%
M02*
