M48
; DRILL file {KiCad 9.0.6} date 2025-11-13T20:17:58+0500
; FORMAT={3:3/ absolute / metric / suppress leading zeros}
; #@! TF.CreationDate,2025-11-13T20:17:58+05:00
; #@! TF.GenerationSoftware,Kicad,Pcbnew,9.0.6
; #@! TF.FileFunction,Plated,1,2,PTH
FMAT,2
METRIC,TZ
; #@! TA.AperFunction,Plated,PTH,ViaDrill
T1C0.300
; #@! TA.AperFunction,Plated,PTH,ComponentDrill
T2C1.000
; #@! TA.AperFunction,Plated,PTH,ComponentDrill
T3C1.200
; #@! TA.AperFunction,Plated,PTH,ComponentDrill
T4C1.800
; #@! TA.AperFunction,Plated,PTH,ComponentDrill
T5C1.800
%
G90
G05
T1
X129540Y-89052
X130962Y-88849
X131623Y-84684
X131978Y-83668
X132029Y-82550
X132029Y-89764
X134671Y-93116
X135138Y-86970
X140970Y-87427
X141021Y-83160
X142037Y-90678
X144831Y-86512
T2
X147879Y-92304
X147879Y-94844
X147879Y-97384
X150419Y-92304
X150419Y-94844
X150419Y-97384
T3
X127434Y-88820
X127434Y-91360
X127434Y-93900
X133624Y-100080
X136164Y-100080
X138704Y-100080
T4
X129844Y-86360
X129844Y-96350
X142494Y-86360
X142494Y-96350
T5
X131864Y-91360
X140464Y-91360
M30
